<svg width="244" height="58" viewBox="0 0 244 58" fill="none" xmlns="http://www.w3.org/2000/svg">
<path d="M1 12.598V3C1 1.89543 1.89544 1 3 1H241C242.105 1 243 1.89543 243 3V35.129C243 36.2336 242.105 37.129 241 37.129H223.935C223.382 37.129 222.935 37.5767 222.935 38.129V43.3548C222.935 43.9071 223.382 44.3548 223.935 44.3548H241C242.105 44.3548 243 45.2503 243 46.3548V55C243 56.1046 242.105 57 241 57H3C1.89543 57 1 56.1046 1 55V47.66C1 47.0896 1.2435 46.5464 1.66928 46.1669L6.41112 41.9406C6.8369 41.5611 7.0804 41.0179 7.0804 40.4476V18.9073C7.0804 18.2515 6.75884 17.6373 6.21984 17.2637L1.86057 14.2417C1.32156 13.8681 1 13.2539 1 12.598Z" stroke="#FFBB00"/>
</svg>
