<svg width="164" height="56" viewBox="0 0 164 56" fill="none" xmlns="http://www.w3.org/2000/svg">
    <path
        d="M0 11.8307V2C0 0.895431 0.895431 0 2 0H161.786C162.89 0 163.786 0.895431 163.786 2V34.129C163.786 35.2336 162.89 36.129 161.786 36.129H151.205C150.653 36.129 150.205 36.5767 150.205 37.129V42.3548C150.205 42.9071 150.653 43.3548 151.205 43.3548H161.786C162.89 43.3548 163.786 44.2503 163.786 45.3548V54C163.786 55.1046 162.89 56 161.786 56H2C0.895431 56 0 55.1046 0 54V46.4367C0 45.9999 0.143011 45.5751 0.407182 45.2272L3.70804 40.8803C3.97221 40.5324 4.11522 40.1076 4.11522 39.6708V17.6746C4.11522 17.1525 3.91103 16.6511 3.54628 16.2775L0.56894 13.2279C0.204188 12.8543 0 12.3529 0 11.8307Z"
        fill="#D9D9D9" />
    <path
        d="M0 11.8307V2C0 0.895431 0.895431 0 2 0H161.786C162.89 0 163.786 0.895431 163.786 2V34.129C163.786 35.2336 162.89 36.129 161.786 36.129H151.205C150.653 36.129 150.205 36.5767 150.205 37.129V42.3548C150.205 42.9071 150.653 43.3548 151.205 43.3548H161.786C162.89 43.3548 163.786 44.2503 163.786 45.3548V54C163.786 55.1046 162.89 56 161.786 56H2C0.895431 56 0 55.1046 0 54V46.4367C0 45.9999 0.143011 45.5751 0.407182 45.2272L3.70804 40.8803C3.97221 40.5324 4.11522 40.1076 4.11522 39.6708V17.6746C4.11522 17.1525 3.91103 16.6511 3.54628 16.2775L0.56894 13.2279C0.204188 12.8543 0 12.3529 0 11.8307Z"
        fill="#FFBB00" />
</svg>