<svg width="583" height="1049" viewBox="0 0 1062 1749" fill="none" xmlns="http://www.w3.org/2000/svg" style="">
<path opacity="0.2" d="M380.979 93.0345C-49.7031 211.01 6.98354 491.504 371.007 638.462C713.929 776.937 1133.76 879.016 812.819 1132.34C579.357 1316.66 626.367 1635.03 725.85 1722.16" stroke="#FFBB00" stroke-opacity="0.8" stroke-miterlimit="10" class="JmKwOgFw_0"></path>
<path opacity="0.2" d="M399.239 90.2579C103.401 164.042 28.4279 322.758 129.903 450.297C181.857 515.645 273.46 577.318 393.698 626.703C449.865 650.038 506.387 673.359 561.146 696.428C836.807 812.341 1055.55 916.42 789.722 1126.94C732.613 1172.24 692.48 1225.47 668.519 1281.89C593.072 1459.93 627.91 1659.48 700.232 1722.81" stroke="#FFBB00" stroke-opacity="0.8" stroke-miterlimit="10" class="JmKwOgFw_1"></path>
<path opacity="0.3" d="M417.49 87.4872C112.224 156.591 33.5115 323.768 144.48 443.722C202.362 506.38 298.108 565.195 416.376 614.958C472.496 638.685 527.007 663.657 579.888 688.135C841.722 809.908 1030.04 912.152 766.659 1121.46C709.198 1167.24 669.299 1220.9 648.258 1278.31C580.945 1462.08 605.299 1662.65 674.65 1723.46" stroke="#FFBB00" stroke-opacity="0.8" stroke-miterlimit="10" class="JmKwOgFw_2"></path>
<path opacity="0.3" d="M435.615 84.7245C120.931 149.15 39.0679 324.919 158.935 437.158C223.087 497.274 322.62 553.169 438.925 603.23C495.112 627.424 547.623 653.887 598.501 679.935C846.653 807.322 1004.56 907.889 743.627 1116.07C685.814 1162.31 646.03 1216.43 627.911 1274.74C568.845 1464.22 582.603 1665.9 649.108 1724.11" stroke="#FFBB00" stroke-opacity="0.8" strokeWidth="1.1" stroke-miterlimit="10" class="JmKwOgFw_3"></path>
<path opacity="0.3" d="M453.86 81.9632C129.765 141.711 45.3537 325.965 173.395 430.602C244.043 488.251 347.123 541.236 461.59 591.513C517.607 616.182 568.239 644.131 617.114 671.749C851.731 804.503 979.129 903.63 720.523 1110.61C662.596 1157.31 623.046 1211.88 607.604 1271.17C557.011 1466.44 560.073 1669.07 623.612 1724.77" stroke="#FFBB00" stroke-opacity="0.8" strokeWidth="1.1" stroke-miterlimit="10" class="JmKwOgFw_4"></path>
<path opacity="0.3" d="M472.109 79.2043C138.61 134.276 52.1229 327.072 187.979 424.049C265.236 479.229 371.622 529.317 484.253 579.81C540.219 604.95 588.856 634.388 635.732 663.573C856.723 801.457 953.623 899.46 697.579 1105.24C639.305 1152.32 599.983 1207.41 587.458 1267.6C545.207 1468.74 537.589 1672.25 598.165 1725.43" stroke="#FFBB00" stroke-opacity="0.8" strokeWidth="1.1" stroke-miterlimit="10" class="JmKwOgFw_5"></path>
<path opacity="0.4" d="M490.369 76.4434C147.352 126.845 59.51 327.997 202.461 417.425C286.79 470.203 396.13 517.331 506.924 568.118C562.722 593.734 609.37 624.581 654.364 655.409C861.881 798.097 928.299 895.209 674.691 1099.79C616.062 1147.42 577.091 1202.95 567.243 1264.05C533.683 1471.05 515.034 1675.53 572.774 1726.11" stroke="#FFBB00" stroke-opacity="0.8" strokeWidth="1.1" stroke-miterlimit="10" class="JmKwOgFw_6"></path>
<path opacity="0.4" d="M508.529 73.6852C156.231 119.411 67.3998 328.744 217.071 410.882C308.591 461.177 420.523 505.439 529.606 556.438C585.356 582.526 630.022 614.702 673.014 647.254C867.318 794.578 902.462 890.668 651.86 1094.35C592.883 1142.37 554.367 1198.57 547.08 1260.51C522.199 1473.44 492.656 1678.73 547.439 1726.8" stroke="#FFBB00" stroke-opacity="0.8" strokeWidth="1.1" stroke-miterlimit="10" class="JmKwOgFw_7"></path>
<path opacity="0.4" d="M526.84 70.9119C165.139 111.971 75.8029 329.231 231.589 404.345C330.54 451.993 445.053 493.631 552.198 544.771C607.901 571.331 650.707 604.831 691.7 639.107C872.817 790.906 877.281 886.426 629.093 1089C569.766 1137.41 531.595 1194.14 527.103 1256.9C511.006 1475.85 470.218 1682.03 522.171 1727.52" stroke="#FFBB00" stroke-opacity="0.8" strokeWidth="1.2" stroke-miterlimit="10" class="JmKwOgFw_8"></path>
<path opacity="0.5" d="M545.193 68.1251C174.081 104.521 84.5999 329.54 246.255 397.802C352.872 442.8 469.499 481.752 574.944 533.106C630.479 560.22 671.556 594.882 710.43 630.965C878.746 786.989 852.066 882.191 606.403 1083.58C546.715 1132.54 509.008 1189.71 507.067 1253.39C499.993 1478.19 447.966 1685.28 496.97 1728.26" stroke="#FFBB00" stroke-opacity="0.8" strokeWidth="1.2" stroke-miterlimit="10" class="JmKwOgFw_9"></path>
<path opacity="0.5" d="M563.594 65.3188C182.941 97.0611 93.6726 329.675 260.841 391.182C375.369 433.364 494.101 469.871 597.732 521.443C653.226 549.029 692.335 584.94 729.212 622.826C884.87 782.911 827.057 877.955 583.78 1078.26C523.737 1127.61 486.606 1185.29 487.096 1249.9C489.032 1480.64 425.774 1688.56 471.833 1729.04" stroke="#FFBB00" stroke-opacity="0.8" strokeWidth="1.2" stroke-miterlimit="10" class="JmKwOgFw_10"></path>
<path opacity="0.5" d="M581.936 62.4973C191.962 89.5832 103.154 329.472 275.464 384.637C398.03 423.844 518.626 458.073 620.573 509.78C675.91 537.843 713.409 574.991 748.056 614.688C891.315 778.671 802.138 873.722 561.236 1072.87C500.831 1122.7 464.155 1180.9 467.31 1246.43C478.368 1483.11 403.521 1691.96 446.761 1729.85" stroke="#FFBB00" stroke-opacity="0.8" strokeWidth="1.2" stroke-miterlimit="10" class="JmKwOgFw_11"></path>
<path opacity="0.6" d="M600.456 59.6462C201.024 82.0861 112.679 329.101 290.246 378.079C420.98 414.152 543.201 446.271 643.471 498.113C698.649 526.732 734.431 564.964 766.964 606.547C898.2 774.259 777.3 869.569 538.642 1067.49C478.107 1117.79 441.879 1176.61 447.467 1242.98C467.76 1485.61 381.445 1695.32 421.747 1730.7" stroke="#FFBB00" stroke-opacity="0.8" strokeWidth="1.2" stroke-miterlimit="10" class="JmKwOgFw_12"></path>
<path opacity="0.6" d="M619.036 56.7715C210.008 74.5754 122.367 328.48 304.95 371.519C443.983 404.295 567.826 434.463 666.306 486.446C721.564 515.613 755.632 554.929 785.935 598.403C905.4 769.76 752.544 865.341 516.223 1062.21C455.317 1112.99 419.661 1172.25 427.676 1239.56C457.44 1488.05 359.293 1698.79 396.781 1731.6" stroke="#FFBB00" stroke-opacity="0.8" strokeWidth="1.3" stroke-miterlimit="10" class="JmKwOgFw_13"></path>
<path opacity="0.6" d="M637.673 53.8751C219.148 67.0439 132.219 327.609 319.812 364.948C467.043 394.195 592.505 422.569 689.313 474.769C744.423 504.413 777.01 544.884 805.085 590.25C912.786 765.255 727.855 861.114 493.86 1056.86C432.582 1108.12 397.491 1167.9 408.049 1236.14C447.164 1490.52 337.302 1702.22 371.857 1732.52" stroke="#FFBB00" stroke-opacity="0.8" strokeWidth="1.3" stroke-miterlimit="10" class="JmKwOgFw_14"></path>
<path opacity="0.7" d="M656.358 50.9583C228.318 59.4966 141.984 326.577 334.59 358.294C490.147 383.929 617.217 410.826 712.366 463.084C767.325 493.286 798.56 534.751 824.168 582.098C920.587 760.659 703.214 856.97 471.533 1051.59C409.996 1103.34 375.354 1163.58 388.338 1232.75C436.92 1493.01 315.339 1705.67 346.962 1733.48" stroke="#FFBB00" stroke-opacity="0.8" strokeWidth="1.3" stroke-miterlimit="10" class="JmKwOgFw_15"></path>
<path opacity="0.7" d="M674.968 48.0282C237.397 51.9399 151.661 325.386 349.512 351.708C513.294 373.499 641.971 398.997 735.462 451.394C790.272 482.152 820.151 524.692 843.297 573.941C928.792 756.048 678.619 852.75 449.242 1046.26C387.325 1098.49 353.362 1159.26 368.653 1229.38C426.939 1495.51 293.273 1709.24 322.089 1734.47" stroke="#FFBB00" stroke-opacity="0.8" strokeWidth="1.3" stroke-miterlimit="10" class="JmKwOgFw_16"></path>
<path opacity="0.7" d="M693.731 45.0808C246.615 44.3689 161.36 324.111 364.338 345.122C536.36 362.909 666.759 387.163 758.592 439.698C813.26 470.935 841.784 514.549 862.464 565.78C937.155 751.434 654.05 848.613 426.972 1040.94C364.674 1093.66 331.271 1154.96 348.987 1226.02C416.976 1498.04 271.343 1712.76 297.229 1735.48" stroke="#FFBB00" stroke-opacity="0.8" strokeWidth="1.3" stroke-miterlimit="10" class="JmKwOgFw_17"></path>
<path opacity="0.7" d="M712.524 42.1219C255.851 36.7887 170.963 322.679 379.302 338.527C559.573 352.231 691.574 375.322 781.635 428.001C836.274 459.792 863.684 504.394 881.663 557.616C945.667 746.814 629.621 844.475 404.713 1035.71C342.149 1088.91 309.309 1150.67 329.455 1222.58C407.032 1500.5 249.304 1716.29 272.379 1736.52" stroke="#FFBB00" stroke-opacity="0.8" strokeWidth="1.3" stroke-miterlimit="10" class="JmKwOgFw_18"></path>
<path opacity="0.8" d="M731.341 39.1513C264.979 29.2031 180.341 321.173 394.161 331.932C582.577 341.396 716.289 363.558 804.82 416.293C859.315 448.642 885.488 494.316 900.887 549.448C954.555 742.26 605.091 840.265 382.466 1030.4C319.516 1084.1 287.357 1146.31 309.806 1219.25C397.216 1502.89 227.378 1719.92 247.528 1737.57" stroke="#FFBB00" stroke-opacity="0.8" strokeWidth="1.4" stroke-miterlimit="10" class="JmKwOgFw_19"></path>
<path opacity="0.8" d="M750.06 36.1779C274.238 21.6076 189.738 319.507 409.039 325.254C605.609 330.4 741.148 351.706 828.026 404.581C882.259 437.493 907.551 484.226 920.134 541.276C963.578 737.781 581.14 836.432 360.102 1025.19C297.116 1079.44 265.403 1142.03 290.161 1215.92C387.402 1505.38 205.457 1723.49 222.678 1738.64" stroke="#FFBB00" stroke-opacity="0.8" strokeWidth="1.4" stroke-miterlimit="10" class="JmKwOgFw_20"></path>
<path opacity="0.8" d="M768.606 32.7631C282.923 13.6243 198.245 317.592 423.509 318.366C628.121 319.098 765.56 339.62 850.954 392.563C905.071 426.04 929.373 473.853 939.138 532.845C972.474 733.112 556.117 832.129 337.212 1019.89C273.797 1074.66 242.74 1137.74 269.929 1212.67C377.039 1507.97 182.606 1727.44 197.027 1740.02" stroke="#FFBB00" stroke-opacity="0.8" strokeWidth="1.4" stroke-miterlimit="10" class="JmKwOgFw_21"></path>
<path opacity="0.9" d="M787.076 29.207C291.323 5.51236 206.568 315.51 437.718 311.383C650.427 307.53 789.902 327.419 873.821 380.435C927.825 414.559 951.141 463.379 958.085 524.322C981.526 728.533 530.902 827.8 314.09 1014.67C250.356 1069.89 219.826 1133.54 249.338 1209.45C366.461 1510.62 159.606 1731.41 171.103 1741.49" stroke="#FFBB00" stroke-opacity="0.8" strokeWidth="1.4" stroke-miterlimit="10" class="JmKwOgFw_22"></path>
<path opacity="0.9" d="M805.57 25.6565C299.867 -2.60723 214.685 313.436 452.08 304.39C672.655 295.957 814.283 315.208 896.604 368.302C950.498 402.997 973.06 452.896 977.059 515.796C990.589 723.955 505.655 823.555 290.958 1009.38C226.781 1065.2 196.907 1129.26 228.742 1206.23C356.009 1513.27 136.486 1735.37 145.172 1742.96" stroke="#FFBB00" stroke-opacity="0.8" strokeWidth="1.4" stroke-miterlimit="10" class="JmKwOgFw_23"></path>
<path opacity="0.9" d="M823.969 22.1167C308.437 -10.7295 222.598 311.29 466.36 297.317C694.926 284.295 838.706 302.91 919.542 356.079C973.32 391.423 995.003 442.486 996.057 507.267C999.771 719.533 480.386 819.234 267.813 1004.07C203.198 1060.43 173.976 1125.05 208.258 1203C345.571 1515.84 113.478 1739.41 119.236 1744.42" stroke="#FFBB00" stroke-opacity="0.8" strokeWidth="1.5" stroke-miterlimit="10" class="JmKwOgFw_24"></path>
<path d="M842.505 18.5803C316.91 -18.8483 230.538 309.144 480.783 290.316C717.117 272.552 863.029 290.848 942.504 343.928C995.927 379.932 1016.97 432.072 1015.08 498.736C1009.08 715.189 455.091 814.916 244.65 998.849C179.724 1055.64 151.281 1120.67 187.651 1199.77C335.978 1518.21 90.4731 1743.37 93.2948 1745.87" stroke="#FFBB00" stroke-opacity="0.8" strokeWidth="1.5" stroke-miterlimit="10" class="JmKwOgFw_25"></path>
<path d="M861.063 15.0513C325.525 -26.9723 238.387 307.004 495.116 283.317C906.524 245.394 1046.14 321.605 1034.24 490.199C1013.62 780.105 4.15577 861.313 167.04 1196.54C324.716 1520.96 67.3494 1747.32 67.3494 1747.32" stroke="#FFBB00" stroke-opacity="0.8" strokeWidth="1.5" stroke-miterlimit="10" class="JmKwOgFw_26"></path>
<style data-made-with="vivus-instant">.JmKwOgFw_0{stroke-dasharray:2401 2403;stroke-dashoffset:2402;animation:JmKwOgFw_draw_0 7200ms linear 0ms infinite,JmKwOgFw_fade 7200ms linear 0ms infinite;}.JmKwOgFw_1{stroke-dasharray:2385 2387;stroke-dashoffset:2386;animation:JmKwOgFw_draw_1 7200ms linear 0ms infinite,JmKwOgFw_fade 7200ms linear 0ms infinite;}.JmKwOgFw_2{stroke-dasharray:2372 2374;stroke-dashoffset:2373;animation:JmKwOgFw_draw_2 7200ms linear 0ms infinite,JmKwOgFw_fade 7200ms linear 0ms infinite;}.JmKwOgFw_3{stroke-dasharray:2363 2365;stroke-dashoffset:2364;animation:JmKwOgFw_draw_3 7200ms linear 0ms infinite,JmKwOgFw_fade 7200ms linear 0ms infinite;}.JmKwOgFw_4{stroke-dasharray:2356 2358;stroke-dashoffset:2357;animation:JmKwOgFw_draw_4 7200ms linear 0ms infinite,JmKwOgFw_fade 7200ms linear 0ms infinite;}.JmKwOgFw_5{stroke-dasharray:2354 2356;stroke-dashoffset:2355;animation:JmKwOgFw_draw_5 7200ms linear 0ms infinite,JmKwOgFw_fade 7200ms linear 0ms infinite;}.JmKwOgFw_6{stroke-dasharray:2355 2357;stroke-dashoffset:2356;animation:JmKwOgFw_draw_6 7200ms linear 0ms infinite,JmKwOgFw_fade 7200ms linear 0ms infinite;}.JmKwOgFw_7{stroke-dasharray:2361 2363;stroke-dashoffset:2362;animation:JmKwOgFw_draw_7 7200ms linear 0ms infinite,JmKwOgFw_fade 7200ms linear 0ms infinite;}.JmKwOgFw_8{stroke-dasharray:2371 2373;stroke-dashoffset:2372;animation:JmKwOgFw_draw_8 7200ms linear 0ms infinite,JmKwOgFw_fade 7200ms linear 0ms infinite;}.JmKwOgFw_9{stroke-dasharray:2386 2388;stroke-dashoffset:2387;animation:JmKwOgFw_draw_9 7200ms linear 0ms infinite,JmKwOgFw_fade 7200ms linear 0ms infinite;}.JmKwOgFw_10{stroke-dasharray:2406 2408;stroke-dashoffset:2407;animation:JmKwOgFw_draw_10 7200ms linear 0ms infinite,JmKwOgFw_fade 7200ms linear 0ms infinite;}.JmKwOgFw_11{stroke-dasharray:2431 2433;stroke-dashoffset:2432;animation:JmKwOgFw_draw_11 7200ms linear 0ms infinite,JmKwOgFw_fade 7200ms linear 0ms infinite;}.JmKwOgFw_12{stroke-dasharray:2460 2462;stroke-dashoffset:2461;animation:JmKwOgFw_draw_12 7200ms linear 0ms infinite,JmKwOgFw_fade 7200ms linear 0ms infinite;}.JmKwOgFw_13{stroke-dasharray:2494 2496;stroke-dashoffset:2495;animation:JmKwOgFw_draw_13 7200ms linear 0ms infinite,JmKwOgFw_fade 7200ms linear 0ms infinite;}.JmKwOgFw_14{stroke-dasharray:2533 2535;stroke-dashoffset:2534;animation:JmKwOgFw_draw_14 7200ms linear 0ms infinite,JmKwOgFw_fade 7200ms linear 0ms infinite;}.JmKwOgFw_15{stroke-dasharray:2575 2577;stroke-dashoffset:2576;animation:JmKwOgFw_draw_15 7200ms linear 0ms infinite,JmKwOgFw_fade 7200ms linear 0ms infinite;}.JmKwOgFw_16{stroke-dasharray:2621 2623;stroke-dashoffset:2622;animation:JmKwOgFw_draw_16 7200ms linear 0ms infinite,JmKwOgFw_fade 7200ms linear 0ms infinite;}.JmKwOgFw_17{stroke-dasharray:2670 2672;stroke-dashoffset:2671;animation:JmKwOgFw_draw_17 7200ms linear 0ms infinite,JmKwOgFw_fade 7200ms linear 0ms infinite;}.JmKwOgFw_18{stroke-dasharray:2723 2725;stroke-dashoffset:2724;animation:JmKwOgFw_draw_18 7200ms linear 0ms infinite,JmKwOgFw_fade 7200ms linear 0ms infinite;}.JmKwOgFw_19{stroke-dasharray:2778 2780;stroke-dashoffset:2779;animation:JmKwOgFw_draw_19 7200ms linear 0ms infinite,JmKwOgFw_fade 7200ms linear 0ms infinite;}.JmKwOgFw_20{stroke-dasharray:2836 2838;stroke-dashoffset:2837;animation:JmKwOgFw_draw_20 7200ms linear 0ms infinite,JmKwOgFw_fade 7200ms linear 0ms infinite;}.JmKwOgFw_21{stroke-dasharray:2898 2900;stroke-dashoffset:2899;animation:JmKwOgFw_draw_21 7200ms linear 0ms infinite,JmKwOgFw_fade 7200ms linear 0ms infinite;}.JmKwOgFw_22{stroke-dasharray:2962 2964;stroke-dashoffset:2963;animation:JmKwOgFw_draw_22 7200ms linear 0ms infinite,JmKwOgFw_fade 7200ms linear 0ms infinite;}.JmKwOgFw_23{stroke-dasharray:3028 3030;stroke-dashoffset:3029;animation:JmKwOgFw_draw_23 7200ms linear 0ms infinite,JmKwOgFw_fade 7200ms linear 0ms infinite;}.JmKwOgFw_24{stroke-dasharray:3096 3098;stroke-dashoffset:3097;animation:JmKwOgFw_draw_24 7200ms linear 0ms infinite,JmKwOgFw_fade 7200ms linear 0ms infinite;}.JmKwOgFw_25{stroke-dasharray:3166 3168;stroke-dashoffset:3167;animation:JmKwOgFw_draw_25 7200ms linear 0ms infinite,JmKwOgFw_fade 7200ms linear 0ms infinite;}.JmKwOgFw_26{stroke-dasharray:3238 3240;stroke-dashoffset:3239;animation:JmKwOgFw_draw_26 7200ms linear 0ms infinite,JmKwOgFw_fade 7200ms linear 0ms infinite;}@keyframes JmKwOgFw_draw{100%{stroke-dashoffset:0;}}@keyframes JmKwOgFw_fade{0%{stroke-opacity:1;}94.44444444444444%{stroke-opacity:1;}100%{stroke-opacity:0;}}@keyframes JmKwOgFw_draw_0{11.11111111111111%{stroke-dashoffset: 2402}38.88888888888889%{ stroke-dashoffset: 0;}100%{ stroke-dashoffset: 0;}}@keyframes JmKwOgFw_draw_1{11.645299145299145%{stroke-dashoffset: 2386}39.42307692307692%{ stroke-dashoffset: 0;}100%{ stroke-dashoffset: 0;}}@keyframes JmKwOgFw_draw_2{12.179487179487179%{stroke-dashoffset: 2373}39.95726495726496%{ stroke-dashoffset: 0;}100%{ stroke-dashoffset: 0;}}@keyframes JmKwOgFw_draw_3{12.713675213675213%{stroke-dashoffset: 2364}40.491452991452995%{ stroke-dashoffset: 0;}100%{ stroke-dashoffset: 0;}}@keyframes JmKwOgFw_draw_4{13.247863247863249%{stroke-dashoffset: 2357}41.02564102564102%{ stroke-dashoffset: 0;}100%{ stroke-dashoffset: 0;}}@keyframes JmKwOgFw_draw_5{13.782051282051281%{stroke-dashoffset: 2355}41.55982905982906%{ stroke-dashoffset: 0;}100%{ stroke-dashoffset: 0;}}@keyframes JmKwOgFw_draw_6{14.316239316239315%{stroke-dashoffset: 2356}42.09401709401709%{ stroke-dashoffset: 0;}100%{ stroke-dashoffset: 0;}}@keyframes JmKwOgFw_draw_7{14.850427350427351%{stroke-dashoffset: 2362}42.62820512820513%{ stroke-dashoffset: 0;}100%{ stroke-dashoffset: 0;}}@keyframes JmKwOgFw_draw_8{15.384615384615383%{stroke-dashoffset: 2372}43.16239316239316%{ stroke-dashoffset: 0;}100%{ stroke-dashoffset: 0;}}@keyframes JmKwOgFw_draw_9{15.91880341880342%{stroke-dashoffset: 2387}43.6965811965812%{ stroke-dashoffset: 0;}100%{ stroke-dashoffset: 0;}}@keyframes JmKwOgFw_draw_10{16.45299145299145%{stroke-dashoffset: 2407}44.23076923076923%{ stroke-dashoffset: 0;}100%{ stroke-dashoffset: 0;}}@keyframes JmKwOgFw_draw_11{16.98717948717949%{stroke-dashoffset: 2432}44.76495726495726%{ stroke-dashoffset: 0;}100%{ stroke-dashoffset: 0;}}@keyframes JmKwOgFw_draw_12{17.52136752136752%{stroke-dashoffset: 2461}45.2991452991453%{ stroke-dashoffset: 0;}100%{ stroke-dashoffset: 0;}}@keyframes JmKwOgFw_draw_13{18.055555555555554%{stroke-dashoffset: 2495}45.83333333333333%{ stroke-dashoffset: 0;}100%{ stroke-dashoffset: 0;}}@keyframes JmKwOgFw_draw_14{18.58974358974359%{stroke-dashoffset: 2534}46.36752136752137%{ stroke-dashoffset: 0;}100%{ stroke-dashoffset: 0;}}@keyframes JmKwOgFw_draw_15{19.12393162393162%{stroke-dashoffset: 2576}46.901709401709404%{ stroke-dashoffset: 0;}100%{ stroke-dashoffset: 0;}}@keyframes JmKwOgFw_draw_16{19.658119658119656%{stroke-dashoffset: 2622}47.43589743589743%{ stroke-dashoffset: 0;}100%{ stroke-dashoffset: 0;}}@keyframes JmKwOgFw_draw_17{20.192307692307693%{stroke-dashoffset: 2671}47.97008547008547%{ stroke-dashoffset: 0;}100%{ stroke-dashoffset: 0;}}@keyframes JmKwOgFw_draw_18{20.726495726495727%{stroke-dashoffset: 2724}48.504273504273506%{ stroke-dashoffset: 0;}100%{ stroke-dashoffset: 0;}}@keyframes JmKwOgFw_draw_19{21.26068376068376%{stroke-dashoffset: 2779}49.03846153846153%{ stroke-dashoffset: 0;}100%{ stroke-dashoffset: 0;}}@keyframes JmKwOgFw_draw_20{21.794871794871792%{stroke-dashoffset: 2837}49.57264957264957%{ stroke-dashoffset: 0;}100%{ stroke-dashoffset: 0;}}@keyframes JmKwOgFw_draw_21{22.329059829059826%{stroke-dashoffset: 2899}50.10683760683761%{ stroke-dashoffset: 0;}100%{ stroke-dashoffset: 0;}}@keyframes JmKwOgFw_draw_22{22.863247863247864%{stroke-dashoffset: 2963}50.641025641025635%{ stroke-dashoffset: 0;}100%{ stroke-dashoffset: 0;}}@keyframes JmKwOgFw_draw_23{23.397435897435898%{stroke-dashoffset: 3029}51.17521367521368%{ stroke-dashoffset: 0;}100%{ stroke-dashoffset: 0;}}@keyframes JmKwOgFw_draw_24{23.931623931623932%{stroke-dashoffset: 3097}51.7094017094017%{ stroke-dashoffset: 0;}100%{ stroke-dashoffset: 0;}}@keyframes JmKwOgFw_draw_25{24.465811965811966%{stroke-dashoffset: 3167}52.243589743589745%{ stroke-dashoffset: 0;}100%{ stroke-dashoffset: 0;}}@keyframes JmKwOgFw_draw_26{25%{stroke-dashoffset: 3239}52.77777777777778%{ stroke-dashoffset: 0;}100%{ stroke-dashoffset: 0;}}</style></svg>
