<svg width="251" height="1750" viewBox="0 0 251 1750" fill="none" xmlns="http://www.w3.org/2000/svg" style="">
<g style="mix-blend-mode:screen" opacity="0.15">
<path opacity="0.2" d="M-430.004 93.0345C-860.686 211.01 -804 491.504 -439.976 638.462C-97.0536 776.937 322.78 879.016 1.83609 1132.34C-231.626 1316.66 -184.616 1635.03 -85.1332 1722.16" stroke="#FFBB00" stroke-opacity="0.8" stroke-miterlimit="10" class="QocTiwiH_0"></path>
<path opacity="0.2" d="M-411.744 90.2579C-707.582 164.042 -782.555 322.758 -681.08 450.297C-629.126 515.645 -537.523 577.318 -417.285 626.703C-361.119 650.038 -304.596 673.359 -249.837 696.428C25.824 812.341 244.566 916.42 -21.2615 1126.94C-78.3705 1172.24 -118.503 1225.47 -142.464 1281.89C-217.911 1459.93 -183.073 1659.48 -110.751 1722.81" stroke="#FFBB00" stroke-opacity="0.8" stroke-miterlimit="10" class="QocTiwiH_1"></path>
<path opacity="0.3" d="M-393.493 87.4872C-698.759 156.591 -777.472 323.768 -666.504 443.722C-608.621 506.38 -512.875 565.195 -394.607 614.958C-338.487 638.685 -283.976 663.657 -231.095 688.135C30.7388 809.908 219.053 912.152 -44.3238 1121.46C-101.785 1167.24 -141.684 1220.9 -162.725 1278.31C-230.038 1462.08 -205.684 1662.65 -136.333 1723.46" stroke="#FFBB00" stroke-opacity="0.8" stroke-miterlimit="10" class="QocTiwiH_2"></path>
<path opacity="0.3" d="M-375.368 84.7245C-690.052 149.15 -771.915 324.919 -652.048 437.158C-587.896 497.274 -488.363 553.169 -372.058 603.23C-315.871 627.424 -263.36 653.887 -212.482 679.935C35.6701 807.322 193.578 907.889 -67.3557 1116.07C-125.169 1162.31 -164.953 1216.43 -183.072 1274.74C-242.138 1464.22 -228.38 1665.9 -161.875 1724.11" stroke="#FFBB00" stroke-opacity="0.8" strokeWidth="1.1" stroke-miterlimit="10" class="QocTiwiH_3"></path>
<path opacity="0.3" d="M-357.123 81.9632C-681.218 141.711 -765.629 325.965 -637.588 430.602C-566.94 488.251 -463.86 541.236 -349.393 591.513C-293.376 616.182 -242.744 644.131 -193.869 671.749C40.7481 804.503 168.146 903.63 -90.4598 1110.61C-148.387 1157.31 -187.937 1211.88 -203.379 1271.17C-253.973 1466.44 -250.91 1669.07 -187.371 1724.77" stroke="#FFBB00" stroke-opacity="0.8" strokeWidth="1.1" stroke-miterlimit="10" class="QocTiwiH_4"></path>
<path opacity="0.3" d="M-338.875 79.2043C-672.373 134.276 -758.86 327.072 -623.004 424.049C-545.747 479.229 -439.361 529.317 -326.73 579.81C-270.764 604.95 -222.127 634.388 -175.251 663.573C45.7398 801.457 142.639 899.46 -113.405 1105.24C-171.678 1152.32 -211 1207.41 -223.525 1267.6C-265.776 1468.74 -273.394 1672.25 -212.818 1725.43" stroke="#FFBB00" stroke-opacity="0.8" strokeWidth="1.1" stroke-miterlimit="10" class="QocTiwiH_5"></path>
<path opacity="0.4" d="M-320.614 76.4434C-663.632 126.845 -751.473 327.997 -608.523 417.425C-524.193 470.203 -414.853 517.331 -304.06 568.118C-248.261 593.734 -201.613 624.581 -156.619 655.409C50.8974 798.097 117.316 895.209 -136.292 1099.79C-194.921 1147.42 -233.892 1202.95 -243.74 1264.05C-277.3 1471.05 -295.949 1675.53 -238.209 1726.11" stroke="#FFBB00" stroke-opacity="0.8" strokeWidth="1.1" stroke-miterlimit="10" class="QocTiwiH_6"></path>
<path opacity="0.4" d="M-302.454 73.6852C-654.752 119.411 -743.583 328.744 -593.912 410.882C-502.392 461.177 -390.46 505.439 -281.377 556.438C-225.627 582.526 -180.961 614.702 -137.969 647.254C56.3346 794.578 91.4792 890.668 -159.123 1094.35C-218.1 1142.37 -256.616 1198.57 -263.903 1260.51C-288.784 1473.44 -318.327 1678.73 -263.544 1726.8" stroke="#FFBB00" stroke-opacity="0.8" strokeWidth="1.1" stroke-miterlimit="10" class="QocTiwiH_7"></path>
<path opacity="0.4" d="M-284.143 70.9119C-645.844 111.971 -735.18 329.231 -579.394 404.345C-480.443 451.993 -365.93 493.631 -258.785 544.771C-203.082 571.331 -160.276 604.831 -119.283 639.107C61.8342 790.906 66.2981 886.426 -181.89 1089C-241.217 1137.41 -279.388 1194.14 -283.881 1256.9C-299.977 1475.85 -340.765 1682.03 -288.812 1727.52" stroke="#FFBB00" stroke-opacity="0.8" strokeWidth="1.2" stroke-miterlimit="10" class="QocTiwiH_8"></path>
<path opacity="0.5" d="M-265.79 68.1251C-636.902 104.521 -726.383 329.54 -564.728 397.802C-458.111 442.8 -341.484 481.752 -236.039 533.106C-180.504 560.22 -139.427 594.882 -100.553 630.965C67.7628 786.989 41.0831 882.191 -204.58 1083.58C-264.268 1132.54 -301.975 1189.71 -303.916 1253.39C-310.99 1478.19 -363.017 1685.28 -314.013 1728.26" stroke="#FFBB00" stroke-opacity="0.8" strokeWidth="1.2" stroke-miterlimit="10" class="QocTiwiH_9"></path>
<path opacity="0.5" d="M-247.389 65.3188C-628.042 97.0611 -717.31 329.675 -550.142 391.182C-435.614 433.364 -316.883 469.871 -213.251 521.443C-157.757 549.029 -118.648 584.94 -81.7711 622.826C73.8865 782.911 16.0737 877.955 -227.203 1078.26C-287.246 1127.61 -324.377 1185.29 -323.887 1249.9C-321.951 1480.64 -385.209 1688.56 -339.151 1729.04" stroke="#FFBB00" stroke-opacity="0.8" strokeWidth="1.2" stroke-miterlimit="10" class="QocTiwiH_10"></path>
<path opacity="0.5" d="M-229.047 62.4973C-619.022 89.5832 -707.829 329.472 -535.519 384.637C-412.953 423.844 -292.357 458.073 -190.41 509.78C-135.073 537.843 -97.5742 574.991 -62.9275 614.688C80.3314 778.671 -8.84537 873.722 -249.748 1072.87C-310.153 1122.7 -346.828 1180.9 -343.673 1246.43C-332.615 1483.11 -407.462 1691.96 -364.222 1729.85" stroke="#FFBB00" stroke-opacity="0.8" strokeWidth="1.2" stroke-miterlimit="10" class="QocTiwiH_11"></path>
<path opacity="0.6" d="M-210.527 59.6462C-609.959 82.0861 -698.304 329.101 -520.737 378.079C-390.003 414.152 -267.782 446.271 -167.512 498.113C-112.334 526.732 -76.5523 564.964 -44.0193 606.547C87.217 774.259 -33.6828 869.569 -272.341 1067.49C-332.876 1117.79 -369.104 1176.61 -363.517 1242.98C-343.223 1485.61 -429.538 1695.32 -389.237 1730.7" stroke="#FFBB00" stroke-opacity="0.8" strokeWidth="1.2" stroke-miterlimit="10" class="QocTiwiH_12"></path>
<path opacity="0.6" d="M-191.947 56.7715C-600.975 74.5754 -688.616 328.48 -506.033 371.519C-367 404.295 -243.157 434.463 -144.678 486.446C-89.4189 515.613 -55.3513 554.929 -25.0479 598.403C94.4167 769.76 -58.439 865.341 -294.761 1062.21C-355.666 1112.99 -391.322 1172.25 -383.308 1239.56C-353.543 1488.05 -451.69 1698.79 -414.202 1731.6" stroke="#FFBB00" stroke-opacity="0.8" strokeWidth="1.3" stroke-miterlimit="10" class="QocTiwiH_13"></path>
<path opacity="0.6" d="M-173.31 53.8751C-591.835 67.0439 -678.764 327.609 -491.171 364.948C-343.941 394.195 -218.478 422.569 -121.67 474.769C-66.5606 504.413 -33.9736 544.884 -5.89803 590.25C101.803 765.255 -83.1281 861.114 -317.123 1056.86C-378.401 1108.12 -413.492 1167.9 -402.934 1236.14C-363.819 1490.52 -473.681 1702.22 -439.126 1732.52" stroke="#FFBB00" stroke-opacity="0.8" strokeWidth="1.3" stroke-miterlimit="10" class="QocTiwiH_14"></path>
<path opacity="0.7" d="M-154.626 50.9583C-582.665 59.4966 -668.999 326.577 -476.393 358.294C-320.836 383.929 -193.767 410.826 -98.617 463.084C-43.6579 493.286 -12.4234 534.751 13.185 582.098C109.604 760.659 -107.769 856.97 -339.45 1051.59C-400.987 1103.34 -435.629 1163.58 -422.645 1232.75C-374.063 1493.01 -495.644 1705.67 -464.021 1733.48" stroke="#FFBB00" stroke-opacity="0.8" strokeWidth="1.3" stroke-miterlimit="10" class="QocTiwiH_15"></path>
<path opacity="0.7" d="M-136.015 48.0282C-573.586 51.9399 -659.322 325.386 -461.472 351.708C-297.689 373.499 -169.012 398.997 -75.5213 451.394C-20.7109 482.152 9.16795 524.692 32.3144 573.941C117.809 756.048 -132.364 852.75 -361.742 1046.26C-423.658 1098.49 -457.621 1159.26 -442.33 1229.38C-384.044 1495.51 -517.71 1709.24 -488.895 1734.47" stroke="#FFBB00" stroke-opacity="0.8" strokeWidth="1.3" stroke-miterlimit="10" class="QocTiwiH_16"></path>
<path opacity="0.7" d="M-117.252 45.0808C-564.368 44.3689 -649.623 324.111 -446.645 345.122C-274.623 362.909 -144.224 387.163 -52.3908 439.698C2.2768 470.935 30.8006 514.549 51.4812 565.78C126.171 751.434 -156.933 848.613 -384.011 1040.94C-446.31 1093.66 -479.712 1154.96 -461.996 1226.02C-394.007 1498.04 -539.64 1712.76 -513.754 1735.48" stroke="#FFBB00" stroke-opacity="0.8" strokeWidth="1.3" stroke-miterlimit="10" class="QocTiwiH_17"></path>
<path opacity="0.7" d="M-98.4589 42.1219C-555.132 36.7887 -640.02 322.679 -431.681 338.527C-251.41 352.231 -119.409 375.322 -29.3485 428.001C25.2913 459.792 52.701 504.394 70.6796 557.616C134.684 746.814 -181.362 844.475 -406.27 1035.71C-468.834 1088.91 -501.674 1150.67 -481.528 1222.58C-403.952 1500.5 -561.679 1716.29 -538.605 1736.52" stroke="#FFBB00" stroke-opacity="0.8" strokeWidth="1.3" stroke-miterlimit="10" class="QocTiwiH_18"></path>
<path opacity="0.8" d="M-79.642 39.1513C-546.004 29.2031 -630.642 321.173 -416.822 331.932C-228.406 341.396 -94.6942 363.558 -6.16353 416.293C48.3316 448.642 74.5052 494.316 89.904 549.448C143.572 742.26 -205.892 840.265 -428.517 1030.4C-491.467 1084.1 -523.627 1146.31 -501.177 1219.25C-413.767 1502.89 -583.605 1719.92 -563.455 1737.57" stroke="#FFBB00" stroke-opacity="0.8" strokeWidth="1.4" stroke-miterlimit="10" class="QocTiwiH_19"></path>
<path opacity="0.8" d="M-60.9226 36.1779C-536.745 21.6076 -621.245 319.507 -401.944 325.254C-205.374 330.4 -69.8356 351.706 17.0433 404.581C71.2763 437.493 96.5684 484.226 109.151 541.276C152.595 737.781 -229.843 836.432 -450.881 1025.19C-513.867 1079.44 -545.58 1142.03 -520.822 1215.92C-423.581 1505.38 -605.526 1723.49 -588.305 1738.64" stroke="#FFBB00" stroke-opacity="0.8" strokeWidth="1.4" stroke-miterlimit="10" class="QocTiwiH_20"></path>
<path opacity="0.8" d="M-42.3772 32.7631C-528.06 13.6243 -612.738 317.592 -387.474 318.366C-182.862 319.098 -45.4226 339.62 39.971 392.563C94.088 426.04 118.39 473.853 128.155 532.845C161.491 733.112 -254.866 832.129 -473.771 1019.89C-537.186 1074.66 -568.243 1137.74 -541.054 1212.67C-433.944 1507.97 -628.377 1727.44 -613.957 1740.02" stroke="#FFBB00" stroke-opacity="0.8" strokeWidth="1.4" stroke-miterlimit="10" class="QocTiwiH_21"></path>
<path opacity="0.9" d="M-23.9071 29.207C-519.66 5.51236 -604.415 315.51 -373.265 311.383C-160.556 307.53 -21.0812 327.419 62.8375 380.435C116.842 414.559 140.158 463.379 147.102 524.322C170.542 728.533 -280.081 827.8 -496.893 1014.67C-560.627 1069.89 -591.157 1133.54 -561.645 1209.45C-444.522 1510.62 -651.377 1731.41 -639.88 1741.49" stroke="#FFBB00" stroke-opacity="0.8" strokeWidth="1.4" stroke-miterlimit="10" class="QocTiwiH_22"></path>
<path opacity="0.9" d="M-5.41256 25.6565C-511.116 -2.60723 -596.298 313.436 -358.903 304.39C-138.328 295.957 3.30008 315.208 85.6208 368.302C139.515 402.997 162.077 452.896 166.076 515.796C179.606 723.955 -305.328 823.555 -520.025 1009.38C-584.202 1065.2 -614.076 1129.26 -582.241 1206.23C-454.974 1513.27 -674.497 1735.37 -665.811 1742.96" stroke="#FFBB00" stroke-opacity="0.8" strokeWidth="1.4" stroke-miterlimit="10" class="QocTiwiH_23"></path>
<path opacity="0.9" d="M12.9858 22.1167C-502.546 -10.7295 -588.385 311.29 -344.623 297.317C-116.057 284.295 27.7224 302.91 108.559 356.079C162.337 391.423 184.02 442.486 185.074 507.267C188.788 719.533 -330.597 819.234 -543.171 1004.07C-607.785 1060.43 -637.008 1125.05 -602.725 1203C-465.412 1515.84 -697.505 1739.41 -691.747 1744.42" stroke="#FFBB00" stroke-opacity="0.8" strokeWidth="1.5" stroke-miterlimit="10" class="QocTiwiH_24"></path>
<path d="M31.522 18.5803C-494.073 -18.8483 -580.445 309.144 -330.201 290.316C-93.8665 272.552 52.0459 290.848 131.521 343.928C184.944 379.932 205.988 432.072 204.093 498.736C198.093 715.189 -355.892 814.916 -566.333 998.849C-631.259 1055.64 -659.702 1120.67 -623.332 1199.77C-475.005 1518.21 -720.51 1743.37 -717.688 1745.87" stroke="#FFBB00" stroke-opacity="0.8" strokeWidth="1.5" stroke-miterlimit="10" class="QocTiwiH_25"></path>
<path d="M50.0796 15.0513C-485.458 -26.9723 -572.596 307.004 -315.867 283.317C95.541 245.394 235.16 321.605 223.253 490.199C202.639 780.105 -806.827 861.313 -643.943 1196.54C-486.267 1520.96 -743.634 1747.32 -743.634 1747.32" stroke="#FFBB00" stroke-opacity="0.8" strokeWidth="1.5" stroke-miterlimit="10" class="QocTiwiH_26"></path>
</g>
<style data-made-with="vivus-instant">.QocTiwiH_0{stroke-dasharray:2401 2403;stroke-dashoffset:2402;animation:QocTiwiH_draw_0 7200ms linear 0ms infinite,QocTiwiH_fade 7200ms linear 0ms infinite;}.QocTiwiH_1{stroke-dasharray:2385 2387;stroke-dashoffset:2386;animation:QocTiwiH_draw_1 7200ms linear 0ms infinite,QocTiwiH_fade 7200ms linear 0ms infinite;}.QocTiwiH_2{stroke-dasharray:2372 2374;stroke-dashoffset:2373;animation:QocTiwiH_draw_2 7200ms linear 0ms infinite,QocTiwiH_fade 7200ms linear 0ms infinite;}.QocTiwiH_3{stroke-dasharray:2363 2365;stroke-dashoffset:2364;animation:QocTiwiH_draw_3 7200ms linear 0ms infinite,QocTiwiH_fade 7200ms linear 0ms infinite;}.QocTiwiH_4{stroke-dasharray:2356 2358;stroke-dashoffset:2357;animation:QocTiwiH_draw_4 7200ms linear 0ms infinite,QocTiwiH_fade 7200ms linear 0ms infinite;}.QocTiwiH_5{stroke-dasharray:2354 2356;stroke-dashoffset:2355;animation:QocTiwiH_draw_5 7200ms linear 0ms infinite,QocTiwiH_fade 7200ms linear 0ms infinite;}.QocTiwiH_6{stroke-dasharray:2355 2357;stroke-dashoffset:2356;animation:QocTiwiH_draw_6 7200ms linear 0ms infinite,QocTiwiH_fade 7200ms linear 0ms infinite;}.QocTiwiH_7{stroke-dasharray:2361 2363;stroke-dashoffset:2362;animation:QocTiwiH_draw_7 7200ms linear 0ms infinite,QocTiwiH_fade 7200ms linear 0ms infinite;}.QocTiwiH_8{stroke-dasharray:2371 2373;stroke-dashoffset:2372;animation:QocTiwiH_draw_8 7200ms linear 0ms infinite,QocTiwiH_fade 7200ms linear 0ms infinite;}.QocTiwiH_9{stroke-dasharray:2386 2388;stroke-dashoffset:2387;animation:QocTiwiH_draw_9 7200ms linear 0ms infinite,QocTiwiH_fade 7200ms linear 0ms infinite;}.QocTiwiH_10{stroke-dasharray:2406 2408;stroke-dashoffset:2407;animation:QocTiwiH_draw_10 7200ms linear 0ms infinite,QocTiwiH_fade 7200ms linear 0ms infinite;}.QocTiwiH_11{stroke-dasharray:2431 2433;stroke-dashoffset:2432;animation:QocTiwiH_draw_11 7200ms linear 0ms infinite,QocTiwiH_fade 7200ms linear 0ms infinite;}.QocTiwiH_12{stroke-dasharray:2460 2462;stroke-dashoffset:2461;animation:QocTiwiH_draw_12 7200ms linear 0ms infinite,QocTiwiH_fade 7200ms linear 0ms infinite;}.QocTiwiH_13{stroke-dasharray:2494 2496;stroke-dashoffset:2495;animation:QocTiwiH_draw_13 7200ms linear 0ms infinite,QocTiwiH_fade 7200ms linear 0ms infinite;}.QocTiwiH_14{stroke-dasharray:2533 2535;stroke-dashoffset:2534;animation:QocTiwiH_draw_14 7200ms linear 0ms infinite,QocTiwiH_fade 7200ms linear 0ms infinite;}.QocTiwiH_15{stroke-dasharray:2575 2577;stroke-dashoffset:2576;animation:QocTiwiH_draw_15 7200ms linear 0ms infinite,QocTiwiH_fade 7200ms linear 0ms infinite;}.QocTiwiH_16{stroke-dasharray:2621 2623;stroke-dashoffset:2622;animation:QocTiwiH_draw_16 7200ms linear 0ms infinite,QocTiwiH_fade 7200ms linear 0ms infinite;}.QocTiwiH_17{stroke-dasharray:2670 2672;stroke-dashoffset:2671;animation:QocTiwiH_draw_17 7200ms linear 0ms infinite,QocTiwiH_fade 7200ms linear 0ms infinite;}.QocTiwiH_18{stroke-dasharray:2723 2725;stroke-dashoffset:2724;animation:QocTiwiH_draw_18 7200ms linear 0ms infinite,QocTiwiH_fade 7200ms linear 0ms infinite;}.QocTiwiH_19{stroke-dasharray:2778 2780;stroke-dashoffset:2779;animation:QocTiwiH_draw_19 7200ms linear 0ms infinite,QocTiwiH_fade 7200ms linear 0ms infinite;}.QocTiwiH_20{stroke-dasharray:2836 2838;stroke-dashoffset:2837;animation:QocTiwiH_draw_20 7200ms linear 0ms infinite,QocTiwiH_fade 7200ms linear 0ms infinite;}.QocTiwiH_21{stroke-dasharray:2898 2900;stroke-dashoffset:2899;animation:QocTiwiH_draw_21 7200ms linear 0ms infinite,QocTiwiH_fade 7200ms linear 0ms infinite;}.QocTiwiH_22{stroke-dasharray:2962 2964;stroke-dashoffset:2963;animation:QocTiwiH_draw_22 7200ms linear 0ms infinite,QocTiwiH_fade 7200ms linear 0ms infinite;}.QocTiwiH_23{stroke-dasharray:3028 3030;stroke-dashoffset:3029;animation:QocTiwiH_draw_23 7200ms linear 0ms infinite,QocTiwiH_fade 7200ms linear 0ms infinite;}.QocTiwiH_24{stroke-dasharray:3096 3098;stroke-dashoffset:3097;animation:QocTiwiH_draw_24 7200ms linear 0ms infinite,QocTiwiH_fade 7200ms linear 0ms infinite;}.QocTiwiH_25{stroke-dasharray:3166 3168;stroke-dashoffset:3167;animation:QocTiwiH_draw_25 7200ms linear 0ms infinite,QocTiwiH_fade 7200ms linear 0ms infinite;}.QocTiwiH_26{stroke-dasharray:3238 3240;stroke-dashoffset:3239;animation:QocTiwiH_draw_26 7200ms linear 0ms infinite,QocTiwiH_fade 7200ms linear 0ms infinite;}@keyframes QocTiwiH_draw{100%{stroke-dashoffset:0;}}@keyframes QocTiwiH_fade{0%{stroke-opacity:1;}94.44444444444444%{stroke-opacity:1;}100%{stroke-opacity:0;}}@keyframes QocTiwiH_draw_0{11.11111111111111%{stroke-dashoffset: 2402}38.88888888888889%{ stroke-dashoffset: 0;}100%{ stroke-dashoffset: 0;}}@keyframes QocTiwiH_draw_1{11.645299145299145%{stroke-dashoffset: 2386}39.42307692307692%{ stroke-dashoffset: 0;}100%{ stroke-dashoffset: 0;}}@keyframes QocTiwiH_draw_2{12.179487179487179%{stroke-dashoffset: 2373}39.95726495726496%{ stroke-dashoffset: 0;}100%{ stroke-dashoffset: 0;}}@keyframes QocTiwiH_draw_3{12.713675213675213%{stroke-dashoffset: 2364}40.491452991452995%{ stroke-dashoffset: 0;}100%{ stroke-dashoffset: 0;}}@keyframes QocTiwiH_draw_4{13.247863247863249%{stroke-dashoffset: 2357}41.02564102564102%{ stroke-dashoffset: 0;}100%{ stroke-dashoffset: 0;}}@keyframes QocTiwiH_draw_5{13.782051282051281%{stroke-dashoffset: 2355}41.55982905982906%{ stroke-dashoffset: 0;}100%{ stroke-dashoffset: 0;}}@keyframes QocTiwiH_draw_6{14.316239316239315%{stroke-dashoffset: 2356}42.09401709401709%{ stroke-dashoffset: 0;}100%{ stroke-dashoffset: 0;}}@keyframes QocTiwiH_draw_7{14.850427350427351%{stroke-dashoffset: 2362}42.62820512820513%{ stroke-dashoffset: 0;}100%{ stroke-dashoffset: 0;}}@keyframes QocTiwiH_draw_8{15.384615384615383%{stroke-dashoffset: 2372}43.16239316239316%{ stroke-dashoffset: 0;}100%{ stroke-dashoffset: 0;}}@keyframes QocTiwiH_draw_9{15.91880341880342%{stroke-dashoffset: 2387}43.6965811965812%{ stroke-dashoffset: 0;}100%{ stroke-dashoffset: 0;}}@keyframes QocTiwiH_draw_10{16.45299145299145%{stroke-dashoffset: 2407}44.23076923076923%{ stroke-dashoffset: 0;}100%{ stroke-dashoffset: 0;}}@keyframes QocTiwiH_draw_11{16.98717948717949%{stroke-dashoffset: 2432}44.76495726495726%{ stroke-dashoffset: 0;}100%{ stroke-dashoffset: 0;}}@keyframes QocTiwiH_draw_12{17.52136752136752%{stroke-dashoffset: 2461}45.2991452991453%{ stroke-dashoffset: 0;}100%{ stroke-dashoffset: 0;}}@keyframes QocTiwiH_draw_13{18.055555555555554%{stroke-dashoffset: 2495}45.83333333333333%{ stroke-dashoffset: 0;}100%{ stroke-dashoffset: 0;}}@keyframes QocTiwiH_draw_14{18.58974358974359%{stroke-dashoffset: 2534}46.36752136752137%{ stroke-dashoffset: 0;}100%{ stroke-dashoffset: 0;}}@keyframes QocTiwiH_draw_15{19.12393162393162%{stroke-dashoffset: 2576}46.901709401709404%{ stroke-dashoffset: 0;}100%{ stroke-dashoffset: 0;}}@keyframes QocTiwiH_draw_16{19.658119658119656%{stroke-dashoffset: 2622}47.43589743589743%{ stroke-dashoffset: 0;}100%{ stroke-dashoffset: 0;}}@keyframes QocTiwiH_draw_17{20.192307692307693%{stroke-dashoffset: 2671}47.97008547008547%{ stroke-dashoffset: 0;}100%{ stroke-dashoffset: 0;}}@keyframes QocTiwiH_draw_18{20.726495726495727%{stroke-dashoffset: 2724}48.504273504273506%{ stroke-dashoffset: 0;}100%{ stroke-dashoffset: 0;}}@keyframes QocTiwiH_draw_19{21.26068376068376%{stroke-dashoffset: 2779}49.03846153846153%{ stroke-dashoffset: 0;}100%{ stroke-dashoffset: 0;}}@keyframes QocTiwiH_draw_20{21.794871794871792%{stroke-dashoffset: 2837}49.57264957264957%{ stroke-dashoffset: 0;}100%{ stroke-dashoffset: 0;}}@keyframes QocTiwiH_draw_21{22.329059829059826%{stroke-dashoffset: 2899}50.10683760683761%{ stroke-dashoffset: 0;}100%{ stroke-dashoffset: 0;}}@keyframes QocTiwiH_draw_22{22.863247863247864%{stroke-dashoffset: 2963}50.641025641025635%{ stroke-dashoffset: 0;}100%{ stroke-dashoffset: 0;}}@keyframes QocTiwiH_draw_23{23.397435897435898%{stroke-dashoffset: 3029}51.17521367521368%{ stroke-dashoffset: 0;}100%{ stroke-dashoffset: 0;}}@keyframes QocTiwiH_draw_24{23.931623931623932%{stroke-dashoffset: 3097}51.7094017094017%{ stroke-dashoffset: 0;}100%{ stroke-dashoffset: 0;}}@keyframes QocTiwiH_draw_25{24.465811965811966%{stroke-dashoffset: 3167}52.243589743589745%{ stroke-dashoffset: 0;}100%{ stroke-dashoffset: 0;}}@keyframes QocTiwiH_draw_26{25%{stroke-dashoffset: 3239}52.77777777777778%{ stroke-dashoffset: 0;}100%{ stroke-dashoffset: 0;}}</style></svg>
