<svg width="596" height="1697" viewBox="0 0 596 1697" fill="none" xmlns="http://www.w3.org/2000/svg" style="">
<g style="mix-blend-mode:screen" opacity="0.15">
<path opacity="0.2" d="M1069.23 3.13135C1443.01 247.464 1303.06 497.072 911.509 525.351C542.647 552.024 111.734 520.475 339.559 859.996C505.269 1107.02 362.917 1395.65 241.514 1448.08" stroke="#FFBB00" stroke-opacity="0.8" stroke-miterlimit="10" class="yyiInaXz_0"></path>
<path opacity="0.2" d="M1052.71 -5.10951C1311.68 155.819 1334.38 329.877 1198.69 420.165C1129.2 466.438 1023.1 497.058 893.516 507.202C832.9 512.193 771.95 517.063 712.755 522.233C414.832 548.052 174.715 580.057 363.201 861.936C403.67 922.566 425.552 985.532 431.06 1046.59C448.291 1239.19 353.954 1418.44 265.699 1456.55" stroke="#FFBB00" stroke-opacity="0.8" stroke-miterlimit="10" class="yyiInaXz_1"></path>
<path opacity="0.3" d="M1036.18 -13.3424C1305.56 146.022 1329.23 329.28 1186.83 409.437C1112.53 451.332 1003.36 477.962 875.53 489.069C814.839 494.448 755.297 501.506 697.458 508.593C410.9 544.229 200.307 583.817 386.831 863.795C427.493 924.979 449.016 988.296 451.444 1049.39C459.177 1244.94 374.505 1428.39 289.85 1465.01" stroke="#FFBB00" stroke-opacity="0.8" stroke-miterlimit="10" class="yyiInaXz_2"></path>
<path opacity="0.3" d="M1019.78 -21.5289C1299.56 136.27 1323.59 328.672 1175.08 398.758C1095.59 436.311 983.715 458.999 857.663 470.994C796.765 476.796 738.669 485.886 682.256 495.082C406.999 540.256 225.864 587.569 410.407 865.725C451.26 927.462 472.536 991.171 471.908 1052.23C470.038 1250.69 395.111 1438.44 313.962 1473.46" stroke="#FFBB00" stroke-opacity="0.8" strokeWidth="1.1" stroke-miterlimit="10" class="yyiInaXz_3"></path>
<path opacity="0.3" d="M1003.26 -29.7507C1293.43 126.481 1317.29 327.741 1163.33 388.084C1078.41 421.298 964.051 440.13 839.682 452.892C778.8 459.2 722.037 470.28 667.048 481.583C403.03 536.016 251.376 591.312 434.072 867.612C474.893 929.821 495.811 993.882 492.33 1055.05C480.622 1256.43 415.583 1448.37 338.028 1481.9" stroke="#FFBB00" stroke-opacity="0.8" strokeWidth="1.1" stroke-miterlimit="10" class="yyiInaXz_4"></path>
<path opacity="0.3" d="M986.733 -37.9715C1287.29 116.692 1310.5 326.719 1151.46 377.375C1061 406.213 944.385 421.273 821.698 434.804C760.719 441.576 705.4 454.685 651.833 468.094C399.212 531.586 276.933 595.162 457.56 869.528C498.592 932.212 519.132 996.702 512.599 1057.84C491.15 1262.24 436.01 1458.29 362.046 1490.34" stroke="#FFBB00" stroke-opacity="0.8" strokeWidth="1.1" stroke-miterlimit="10" class="yyiInaXz_5"></path>
<path opacity="0.4" d="M970.198 -46.1976C1281.25 106.94 1303.19 325.335 1139.7 366.631C1043.26 391.014 924.733 402.351 803.704 416.725C742.739 424.001 688.881 439.061 636.602 454.61C395.333 526.807 302.34 598.881 481.016 871.358C522.219 934.672 542.289 999.474 532.93 1060.65C501.413 1267.97 456.475 1468.32 386.007 1498.77" stroke="#FFBB00" stroke-opacity="0.8" strokeWidth="1.1" stroke-miterlimit="10" class="yyiInaXz_6"></path>
<path opacity="0.4" d="M953.759 -54.3905C1275.07 97.1411 1295.45 323.627 1127.8 355.924C1025.27 375.738 905.16 383.553 785.694 398.654C724.631 406.393 672.251 423.326 621.35 441.13C391.236 521.79 328.325 602.479 504.415 873.179C545.83 936.971 565.26 1002.27 553.207 1063.46C511.61 1273.77 476.794 1478.23 409.91 1507.19" stroke="#FFBB00" stroke-opacity="0.8" strokeWidth="1.1" stroke-miterlimit="10" class="yyiInaXz_7"></path>
<path opacity="0.4" d="M937.18 -62.6441C1268.87 87.3276 1287.3 321.514 1115.99 345.25C1007.2 360.268 885.431 364.793 767.767 380.623C706.604 388.825 655.589 407.589 606.061 427.647C387.127 516.609 353.594 606.161 527.726 875.067C569.354 939.337 588.296 1005.03 573.329 1066.15C521.526 1279.49 497.138 1488.25 433.742 1515.62" stroke="#FFBB00" stroke-opacity="0.8" strokeWidth="1.2" stroke-miterlimit="10" class="yyiInaXz_8"></path>
<path opacity="0.5" d="M920.565 -70.9233C1262.65 77.495 1278.83 319.112 1104.04 334.527C988.757 344.67 865.804 345.992 749.693 362.545C688.519 371.328 638.794 391.727 590.729 414.155C382.685 511.063 378.893 609.861 550.984 876.867C592.787 941.771 611.152 1007.74 593.475 1068.96C531.29 1285.1 517.322 1498.17 457.502 1524.05" stroke="#FFBB00" stroke-opacity="0.8" strokeWidth="1.2" stroke-miterlimit="10" class="yyiInaXz_9"></path>
<path opacity="0.5" d="M903.91 -79.236C1256.5 67.6784 1270.16 316.458 1092.18 323.753C970.236 328.792 846.03 327.14 731.578 344.457C670.299 353.702 622.064 375.894 575.347 400.649C378.106 505.305 403.997 613.495 574.151 878.734C616.17 944.122 633.829 1010.41 613.555 1071.76C540.972 1290.79 537.44 1508.1 481.19 1532.5" stroke="#FFBB00" stroke-opacity="0.8" strokeWidth="1.2" stroke-miterlimit="10" class="yyiInaXz_10"></path>
<path opacity="0.5" d="M887.317 -87.5447C1250.21 57.795 1261.19 313.359 1080.27 313.04C951.585 312.783 826.302 308.392 713.412 326.354C652.137 336.1 605.055 359.963 559.906 387.126C373.272 499.292 429.014 617.106 597.262 880.515C639.481 946.466 656.546 1013.11 633.453 1074.52C550.366 1296.41 557.578 1518.15 504.805 1540.96" stroke="#FFBB00" stroke-opacity="0.8" strokeWidth="1.2" stroke-miterlimit="10" class="yyiInaXz_11"></path>
<path opacity="0.6" d="M870.562 -95.9362C1243.88 47.8809 1252.24 310.086 1068.21 302.267C932.711 296.522 806.529 289.624 695.194 308.229C633.899 318.553 588.119 343.974 544.404 373.581C368.07 492.982 453.928 620.768 620.415 882.328C662.614 948.765 679.066 1015.85 653.398 1077.32C559.698 1302.04 577.563 1528.11 528.354 1549.44" stroke="#FFBB00" stroke-opacity="0.8" strokeWidth="1.2" stroke-miterlimit="10" class="yyiInaXz_12"></path>
<path opacity="0.6" d="M853.759 -104.369C1237.63 37.9772 1243.21 306.524 1056.22 291.514C913.838 280.087 786.71 270.834 677.036 290.123C615.496 300.944 571.016 327.922 528.843 360.012C362.597 486.492 478.789 624.333 643.375 884.171C685.779 951.178 701.55 1018.51 673.287 1080.13C568.772 1307.53 597.584 1538.21 551.844 1557.94" stroke="#FFBB00" stroke-opacity="0.8" strokeWidth="1.3" stroke-miterlimit="10" class="yyiInaXz_13"></path>
<path opacity="0.6" d="M836.907 -112.839C1231.24 28.0064 1234.1 302.675 1044.09 280.703C894.986 263.404 766.866 251.948 658.717 271.954C597.172 283.275 553.747 311.808 513.115 346.382C356.948 479.94 503.585 627.879 666.301 885.932C708.912 953.514 723.984 1021.18 693.014 1082.89C577.797 1313.03 617.465 1548.21 575.283 1566.47" stroke="#FFBB00" stroke-opacity="0.8" strokeWidth="1.3" stroke-miterlimit="10" class="yyiInaXz_14"></path>
<path opacity="0.7" d="M820.016 -121.344C1224.83 18.0112 1225.12 298.699 1032.07 269.839C876.141 246.549 746.944 233.194 640.356 253.765C578.784 265.663 536.341 295.556 497.45 332.771C350.931 473.173 528.31 631.489 689.166 887.77C731.876 955.888 746.381 1023.85 712.816 1085.71C586.784 1318.54 637.311 1558.24 598.685 1575.01" stroke="#FFBB00" stroke-opacity="0.8" strokeWidth="1.3" stroke-miterlimit="10" class="yyiInaXz_15"></path>
<path opacity="0.7" d="M803.201 -129.839C1218.5 8.03482 1216.28 294.598 1019.88 258.996C857.306 229.524 727.008 214.345 621.956 235.556C560.355 248.03 518.873 279.361 481.743 319.142C344.535 466.269 553.014 635.013 712.018 889.53C754.94 958.228 768.637 1026.48 732.587 1088.53C595.516 1323.98 657.22 1568.4 622.058 1583.58" stroke="#FFBB00" stroke-opacity="0.8" strokeWidth="1.3" stroke-miterlimit="10" class="yyiInaXz_16"></path>
<path opacity="0.7" d="M786.244 -138.397C1212.05 -1.99776 1207.43 290.411 1007.79 248.181C838.598 212.373 707.043 195.481 603.525 217.333C541.913 230.306 501.392 263.074 466.001 305.498C337.99 459.313 577.669 638.607 734.847 891.293C777.983 960.572 790.984 1029.16 752.337 1091.36C604.225 1329.44 677.017 1578.47 645.409 1592.17" stroke="#FFBB00" stroke-opacity="0.8" strokeWidth="1.3" stroke-miterlimit="10" class="yyiInaXz_17"></path>
<path opacity="0.7" d="M769.264 -146.975C1205.58 -12.0442 1198.73 286.104 995.568 237.317C819.776 195.093 687.053 176.603 585.178 199.135C523.423 212.643 483.66 246.694 450.23 291.842C331.303 452.306 602.19 642.157 757.638 893.136C800.878 962.958 813.204 1031.81 771.98 1094.08C612.937 1334.83 696.912 1588.59 668.746 1600.77" stroke="#FFBB00" stroke-opacity="0.8" strokeWidth="1.3" stroke-miterlimit="10" class="yyiInaXz_18"></path>
<path opacity="0.8" d="M752.263 -155.571C1199.22 -22.0632 1190.27 281.795 983.446 226.483C801.201 177.727 667.134 157.828 566.699 180.883C504.911 194.967 465.995 230.416 434.435 278.173C324.239 445.246 626.829 645.67 780.441 894.906C823.897 965.313 835.437 1034.39 791.706 1096.93C621.546 1340.12 716.669 1598.77 692.077 1609.39" stroke="#FFBB00" stroke-opacity="0.8" strokeWidth="1.4" stroke-miterlimit="10" class="yyiInaXz_19"></path>
<path opacity="0.8" d="M735.357 -164.14C1192.73 -32.1316 1181.83 277.328 971.332 215.565C782.65 160.199 647.106 138.926 548.201 162.62C486.489 177.32 448.088 214.048 418.621 264.494C317.024 438.216 650.801 649.365 803.327 896.797C846.647 967.746 857.644 1037.04 811.426 1099.78C630.126 1345.49 736.44 1608.88 715.402 1618.03" stroke="#FFBB00" stroke-opacity="0.8" strokeWidth="1.4" stroke-miterlimit="10" class="yyiInaXz_20"></path>
<path opacity="0.8" d="M718.752 -173.076C1186.91 -42.3929 1174.32 272.898 959.67 204.574C764.687 142.54 627.574 119.937 530.061 144.151C468.287 159.425 430.497 197.485 403.117 250.642C309.988 431.046 675.938 652.941 826.738 898.774C870.307 970.35 880.533 1039.91 831.679 1102.9C639.194 1351.14 756.98 1619.65 739.397 1627.2" stroke="#FFBB00" stroke-opacity="0.8" strokeWidth="1.4" stroke-miterlimit="10" class="yyiInaXz_21"></path>
<path opacity="0.9" d="M702.261 -182.123C1181.41 -52.6893 1167.04 268.365 948.286 193.57C747.002 124.691 608.146 100.862 512.015 125.597C450.149 141.521 412.988 180.842 387.695 236.721C302.776 423.912 701.267 656.551 850.346 900.897C894.082 972.995 903.63 1042.94 852.265 1106.15C648.45 1356.91 777.656 1630.47 763.621 1636.55" stroke="#FFBB00" stroke-opacity="0.8" strokeWidth="1.4" stroke-miterlimit="10" class="yyiInaXz_22"></path>
<path opacity="0.9" d="M685.746 -191.173C1175.76 -63.0375 1159.95 263.902 936.76 182.511C729.392 106.86 588.682 81.7643 494.048 107.063C432.112 123.564 395.339 164.143 372.249 222.789C295.553 416.776 726.6 660.25 873.989 902.946C917.961 975.758 926.758 1045.89 872.857 1109.4C657.586 1362.63 798.446 1641.34 787.853 1645.9" stroke="#FFBB00" stroke-opacity="0.8" strokeWidth="1.4" stroke-miterlimit="10" class="yyiInaXz_23"></path>
<path opacity="0.9" d="M669.319 -200.183C1170.1 -73.396 1153.08 259.433 925.336 171.401C711.769 88.9321 569.206 62.5709 475.962 88.3961C413.938 105.551 377.644 147.507 356.781 208.846C288.168 409.752 751.977 663.884 897.645 904.995C941.871 978.443 949.874 1048.91 893.344 1112.6C666.736 1368.27 819.108 1652.24 812.092 1655.24" stroke="#FFBB00" stroke-opacity="0.8" strokeWidth="1.5" stroke-miterlimit="10" class="yyiInaXz_24"></path>
<path d="M652.759 -209.232C1164.52 -83.7213 1146.18 254.957 913.754 160.315C694.247 70.9512 549.752 43.6322 457.83 69.7914C395.942 87.683 359.927 130.86 341.293 194.895C280.644 402.764 777.377 667.53 921.294 907.122C965.681 981.088 972.818 1051.7 913.949 1115.85C675.139 1373.47 839.793 1663.06 836.338 1664.58" stroke="#FFBB00" stroke-opacity="0.8" strokeWidth="1.5" stroke-miterlimit="10" class="yyiInaXz_25"></path>
<path d="M636.177 -218.28C1158.81 -94.0954 1139.36 250.513 902.257 149.259C522.287 -12.9678 366.026 16.7697 325.673 180.895C256.415 463.16 1192.37 849.94 934.559 1119.09C685.016 1379.54 860.59 1673.91 860.59 1673.91" stroke="#FFBB00" stroke-opacity="0.8" strokeWidth="1.5" stroke-miterlimit="10" class="yyiInaXz_26"></path>
</g>
<style data-made-with="vivus-instant">.yyiInaXz_0{stroke-dasharray:2401 2403;stroke-dashoffset:2402;animation:yyiInaXz_draw_0 7200ms linear 0ms infinite,yyiInaXz_fade 7200ms linear 0ms infinite;}.yyiInaXz_1{stroke-dasharray:2385 2387;stroke-dashoffset:2386;animation:yyiInaXz_draw_1 7200ms linear 0ms infinite,yyiInaXz_fade 7200ms linear 0ms infinite;}.yyiInaXz_2{stroke-dasharray:2372 2374;stroke-dashoffset:2373;animation:yyiInaXz_draw_2 7200ms linear 0ms infinite,yyiInaXz_fade 7200ms linear 0ms infinite;}.yyiInaXz_3{stroke-dasharray:2363 2365;stroke-dashoffset:2364;animation:yyiInaXz_draw_3 7200ms linear 0ms infinite,yyiInaXz_fade 7200ms linear 0ms infinite;}.yyiInaXz_4{stroke-dasharray:2356 2358;stroke-dashoffset:2357;animation:yyiInaXz_draw_4 7200ms linear 0ms infinite,yyiInaXz_fade 7200ms linear 0ms infinite;}.yyiInaXz_5{stroke-dasharray:2354 2356;stroke-dashoffset:2355;animation:yyiInaXz_draw_5 7200ms linear 0ms infinite,yyiInaXz_fade 7200ms linear 0ms infinite;}.yyiInaXz_6{stroke-dasharray:2355 2357;stroke-dashoffset:2356;animation:yyiInaXz_draw_6 7200ms linear 0ms infinite,yyiInaXz_fade 7200ms linear 0ms infinite;}.yyiInaXz_7{stroke-dasharray:2361 2363;stroke-dashoffset:2362;animation:yyiInaXz_draw_7 7200ms linear 0ms infinite,yyiInaXz_fade 7200ms linear 0ms infinite;}.yyiInaXz_8{stroke-dasharray:2371 2373;stroke-dashoffset:2372;animation:yyiInaXz_draw_8 7200ms linear 0ms infinite,yyiInaXz_fade 7200ms linear 0ms infinite;}.yyiInaXz_9{stroke-dasharray:2386 2388;stroke-dashoffset:2387;animation:yyiInaXz_draw_9 7200ms linear 0ms infinite,yyiInaXz_fade 7200ms linear 0ms infinite;}.yyiInaXz_10{stroke-dasharray:2406 2408;stroke-dashoffset:2407;animation:yyiInaXz_draw_10 7200ms linear 0ms infinite,yyiInaXz_fade 7200ms linear 0ms infinite;}.yyiInaXz_11{stroke-dasharray:2431 2433;stroke-dashoffset:2432;animation:yyiInaXz_draw_11 7200ms linear 0ms infinite,yyiInaXz_fade 7200ms linear 0ms infinite;}.yyiInaXz_12{stroke-dasharray:2460 2462;stroke-dashoffset:2461;animation:yyiInaXz_draw_12 7200ms linear 0ms infinite,yyiInaXz_fade 7200ms linear 0ms infinite;}.yyiInaXz_13{stroke-dasharray:2494 2496;stroke-dashoffset:2495;animation:yyiInaXz_draw_13 7200ms linear 0ms infinite,yyiInaXz_fade 7200ms linear 0ms infinite;}.yyiInaXz_14{stroke-dasharray:2533 2535;stroke-dashoffset:2534;animation:yyiInaXz_draw_14 7200ms linear 0ms infinite,yyiInaXz_fade 7200ms linear 0ms infinite;}.yyiInaXz_15{stroke-dasharray:2575 2577;stroke-dashoffset:2576;animation:yyiInaXz_draw_15 7200ms linear 0ms infinite,yyiInaXz_fade 7200ms linear 0ms infinite;}.yyiInaXz_16{stroke-dasharray:2621 2623;stroke-dashoffset:2622;animation:yyiInaXz_draw_16 7200ms linear 0ms infinite,yyiInaXz_fade 7200ms linear 0ms infinite;}.yyiInaXz_17{stroke-dasharray:2670 2672;stroke-dashoffset:2671;animation:yyiInaXz_draw_17 7200ms linear 0ms infinite,yyiInaXz_fade 7200ms linear 0ms infinite;}.yyiInaXz_18{stroke-dasharray:2723 2725;stroke-dashoffset:2724;animation:yyiInaXz_draw_18 7200ms linear 0ms infinite,yyiInaXz_fade 7200ms linear 0ms infinite;}.yyiInaXz_19{stroke-dasharray:2778 2780;stroke-dashoffset:2779;animation:yyiInaXz_draw_19 7200ms linear 0ms infinite,yyiInaXz_fade 7200ms linear 0ms infinite;}.yyiInaXz_20{stroke-dasharray:2836 2838;stroke-dashoffset:2837;animation:yyiInaXz_draw_20 7200ms linear 0ms infinite,yyiInaXz_fade 7200ms linear 0ms infinite;}.yyiInaXz_21{stroke-dasharray:2898 2900;stroke-dashoffset:2899;animation:yyiInaXz_draw_21 7200ms linear 0ms infinite,yyiInaXz_fade 7200ms linear 0ms infinite;}.yyiInaXz_22{stroke-dasharray:2962 2964;stroke-dashoffset:2963;animation:yyiInaXz_draw_22 7200ms linear 0ms infinite,yyiInaXz_fade 7200ms linear 0ms infinite;}.yyiInaXz_23{stroke-dasharray:3028 3030;stroke-dashoffset:3029;animation:yyiInaXz_draw_23 7200ms linear 0ms infinite,yyiInaXz_fade 7200ms linear 0ms infinite;}.yyiInaXz_24{stroke-dasharray:3096 3098;stroke-dashoffset:3097;animation:yyiInaXz_draw_24 7200ms linear 0ms infinite,yyiInaXz_fade 7200ms linear 0ms infinite;}.yyiInaXz_25{stroke-dasharray:3166 3168;stroke-dashoffset:3167;animation:yyiInaXz_draw_25 7200ms linear 0ms infinite,yyiInaXz_fade 7200ms linear 0ms infinite;}.yyiInaXz_26{stroke-dasharray:3238 3240;stroke-dashoffset:3239;animation:yyiInaXz_draw_26 7200ms linear 0ms infinite,yyiInaXz_fade 7200ms linear 0ms infinite;}@keyframes yyiInaXz_draw{100%{stroke-dashoffset:0;}}@keyframes yyiInaXz_fade{0%{stroke-opacity:1;}94.44444444444444%{stroke-opacity:1;}100%{stroke-opacity:0;}}@keyframes yyiInaXz_draw_0{11.11111111111111%{stroke-dashoffset: 2402}38.88888888888889%{ stroke-dashoffset: 0;}100%{ stroke-dashoffset: 0;}}@keyframes yyiInaXz_draw_1{11.645299145299145%{stroke-dashoffset: 2386}39.42307692307692%{ stroke-dashoffset: 0;}100%{ stroke-dashoffset: 0;}}@keyframes yyiInaXz_draw_2{12.179487179487179%{stroke-dashoffset: 2373}39.95726495726496%{ stroke-dashoffset: 0;}100%{ stroke-dashoffset: 0;}}@keyframes yyiInaXz_draw_3{12.713675213675213%{stroke-dashoffset: 2364}40.491452991452995%{ stroke-dashoffset: 0;}100%{ stroke-dashoffset: 0;}}@keyframes yyiInaXz_draw_4{13.247863247863249%{stroke-dashoffset: 2357}41.02564102564102%{ stroke-dashoffset: 0;}100%{ stroke-dashoffset: 0;}}@keyframes yyiInaXz_draw_5{13.782051282051281%{stroke-dashoffset: 2355}41.55982905982906%{ stroke-dashoffset: 0;}100%{ stroke-dashoffset: 0;}}@keyframes yyiInaXz_draw_6{14.316239316239315%{stroke-dashoffset: 2356}42.09401709401709%{ stroke-dashoffset: 0;}100%{ stroke-dashoffset: 0;}}@keyframes yyiInaXz_draw_7{14.850427350427351%{stroke-dashoffset: 2362}42.62820512820513%{ stroke-dashoffset: 0;}100%{ stroke-dashoffset: 0;}}@keyframes yyiInaXz_draw_8{15.384615384615383%{stroke-dashoffset: 2372}43.16239316239316%{ stroke-dashoffset: 0;}100%{ stroke-dashoffset: 0;}}@keyframes yyiInaXz_draw_9{15.91880341880342%{stroke-dashoffset: 2387}43.6965811965812%{ stroke-dashoffset: 0;}100%{ stroke-dashoffset: 0;}}@keyframes yyiInaXz_draw_10{16.45299145299145%{stroke-dashoffset: 2407}44.23076923076923%{ stroke-dashoffset: 0;}100%{ stroke-dashoffset: 0;}}@keyframes yyiInaXz_draw_11{16.98717948717949%{stroke-dashoffset: 2432}44.76495726495726%{ stroke-dashoffset: 0;}100%{ stroke-dashoffset: 0;}}@keyframes yyiInaXz_draw_12{17.52136752136752%{stroke-dashoffset: 2461}45.2991452991453%{ stroke-dashoffset: 0;}100%{ stroke-dashoffset: 0;}}@keyframes yyiInaXz_draw_13{18.055555555555554%{stroke-dashoffset: 2495}45.83333333333333%{ stroke-dashoffset: 0;}100%{ stroke-dashoffset: 0;}}@keyframes yyiInaXz_draw_14{18.58974358974359%{stroke-dashoffset: 2534}46.36752136752137%{ stroke-dashoffset: 0;}100%{ stroke-dashoffset: 0;}}@keyframes yyiInaXz_draw_15{19.12393162393162%{stroke-dashoffset: 2576}46.901709401709404%{ stroke-dashoffset: 0;}100%{ stroke-dashoffset: 0;}}@keyframes yyiInaXz_draw_16{19.658119658119656%{stroke-dashoffset: 2622}47.43589743589743%{ stroke-dashoffset: 0;}100%{ stroke-dashoffset: 0;}}@keyframes yyiInaXz_draw_17{20.192307692307693%{stroke-dashoffset: 2671}47.97008547008547%{ stroke-dashoffset: 0;}100%{ stroke-dashoffset: 0;}}@keyframes yyiInaXz_draw_18{20.726495726495727%{stroke-dashoffset: 2724}48.504273504273506%{ stroke-dashoffset: 0;}100%{ stroke-dashoffset: 0;}}@keyframes yyiInaXz_draw_19{21.26068376068376%{stroke-dashoffset: 2779}49.03846153846153%{ stroke-dashoffset: 0;}100%{ stroke-dashoffset: 0;}}@keyframes yyiInaXz_draw_20{21.794871794871792%{stroke-dashoffset: 2837}49.57264957264957%{ stroke-dashoffset: 0;}100%{ stroke-dashoffset: 0;}}@keyframes yyiInaXz_draw_21{22.329059829059826%{stroke-dashoffset: 2899}50.10683760683761%{ stroke-dashoffset: 0;}100%{ stroke-dashoffset: 0;}}@keyframes yyiInaXz_draw_22{22.863247863247864%{stroke-dashoffset: 2963}50.641025641025635%{ stroke-dashoffset: 0;}100%{ stroke-dashoffset: 0;}}@keyframes yyiInaXz_draw_23{23.397435897435898%{stroke-dashoffset: 3029}51.17521367521368%{ stroke-dashoffset: 0;}100%{ stroke-dashoffset: 0;}}@keyframes yyiInaXz_draw_24{23.931623931623932%{stroke-dashoffset: 3097}51.7094017094017%{ stroke-dashoffset: 0;}100%{ stroke-dashoffset: 0;}}@keyframes yyiInaXz_draw_25{24.465811965811966%{stroke-dashoffset: 3167}52.243589743589745%{ stroke-dashoffset: 0;}100%{ stroke-dashoffset: 0;}}@keyframes yyiInaXz_draw_26{25%{stroke-dashoffset: 3239}52.77777777777778%{ stroke-dashoffset: 0;}100%{ stroke-dashoffset: 0;}}</style></svg>
