<svg width="216" height="140" viewBox="0 0 216 140" fill="none" xmlns="http://www.w3.org/2000/svg">
    <path d="M29.4108 140H216V137.991H29.4108C22.1387 137.983 15.1669 135.052 10.0248 129.841C4.88274 124.63 1.99028 117.565 1.98204 110.195V29.8045C1.99028 22.4352 4.88274 15.37 10.0248 10.1591C15.1669 4.94811 22.1387 2.01693 29.4108 2.00858H216V0H29.4108C21.6132 0.0089321 14.1376 3.15192 8.62396 8.73941C3.11028 14.3269 0.00881958 21.9026 0 29.8045V110.195C0.00881958 118.097 3.11028 125.673 8.62396 131.261C14.1376 136.848 21.6132 139.991 29.4108 140Z" fill="url(#paint0_linear_271_452)"/>
    <defs>
    <linearGradient id="paint0_linear_271_452" x1="0.315841" y1="69.9745" x2="200.502" y2="58.1068" gradientUnits="userSpaceOnUse">
    <stop stop-color="#FFBB00" stop-opacity="0.4"/>
    <stop offset="1" stop-color="#FFBB00" stop-opacity="0"/>
    </linearGradient>
    </defs>
    </svg>
    