<svg width="403" height="200" viewBox="0 0 403 200" fill="none" xmlns="http://www.w3.org/2000/svg">
    <path
        d="M348.127 200H0V197.131H348.127C361.695 197.119 374.702 192.931 384.296 185.487C393.89 178.043 399.287 167.95 399.302 157.422V42.5779C399.287 32.0502 393.89 21.9571 384.296 14.5129C374.702 7.06873 361.695 2.88133 348.127 2.8694H0V0H348.127C362.675 0.0127601 376.623 4.50274 386.91 12.4849C397.197 20.467 402.984 31.2895 403 42.5779V157.422C402.984 168.71 397.197 179.533 386.91 187.515C376.623 195.497 362.675 199.987 348.127 200Z"
        fill="url(#paint0_linear_604_23)" />
    <defs>
        <linearGradient id="paint0_linear_604_23" x1="402.411" y1="99.9636" x2="29.836" y2="71.1168"
            gradientUnits="userSpaceOnUse">
            <stop stop-color="#FFBB00" stop-opacity="0.4" />
            <stop offset="1" stop-color="#FFBB00" stop-opacity="0" />
        </linearGradient>
    </defs>
</svg>
    