<svg width="403" height="200" viewBox="0 0 403 200" fill="none" xmlns="http://www.w3.org/2000/svg">
    <path d="M54.8728 200H403V197.131H54.8728C41.3051 197.119 28.2975 192.931 18.7037 185.487C9.10992 178.043 3.71335 167.95 3.69797 157.422V42.5779C3.71335 32.0502 9.10992 21.9571 18.7037 14.5129C28.2975 7.06873 41.3051 2.88133 54.8728 2.8694H403V0H54.8728C40.3247 0.0127601 26.3771 4.50274 16.0901 12.4849C5.80298 20.467 0.016449 31.2895 -3.05176e-05 42.5779V157.422C0.016449 168.71 5.80298 179.533 16.0901 187.515C26.3771 195.497 40.3247 199.987 54.8728 200Z" fill="url(#paint0_linear_155_348)"/>
    <defs>
    <linearGradient id="paint0_linear_155_348" x1="0.589277" y1="99.9636" x2="373.164" y2="71.1168" gradientUnits="userSpaceOnUse">
    <stop stop-color="#FFBB00" stop-opacity="0.4"/>
    <stop offset="1" stop-color="#FFBB00" stop-opacity="0"/>
    </linearGradient>
    </defs>
    </svg>
    