<svg width="1440" height="2906" viewBox="0 0 1440 2906" fill="none" xmlns="http://www.w3.org/2000/svg">
<g clipPath="url(#clip0_601_23)">
<g style="mix-blend-mode:screen" opacity="0.15">
<path opacity="0.2" d="M-430.004 1068.03C-860.686 1186.01 -804 1466.5 -439.976 1613.46C-97.0536 1751.94 322.78 1854.02 1.83609 2107.34C-231.626 2291.66 -184.616 2610.03 -85.1332 2697.16" stroke="#FFBB00" stroke-opacity="0.8" stroke-miterlimit="10"/>
<path opacity="0.2" d="M-411.744 1065.26C-707.582 1139.04 -782.555 1297.76 -681.08 1425.3C-629.126 1490.64 -537.523 1552.32 -417.285 1601.7C-361.119 1625.04 -304.596 1648.36 -249.837 1671.43C25.824 1787.34 244.566 1891.42 -21.2615 2101.94C-78.3705 2147.24 -118.503 2200.47 -142.464 2256.89C-217.911 2434.93 -183.073 2634.48 -110.751 2697.81" stroke="#FFBB00" stroke-opacity="0.8" stroke-miterlimit="10"/>
<path opacity="0.3" d="M-393.493 1062.49C-698.759 1131.59 -777.472 1298.77 -666.504 1418.72C-608.621 1481.38 -512.875 1540.2 -394.607 1589.96C-338.487 1613.68 -283.976 1638.66 -231.095 1663.13C30.7388 1784.91 219.053 1887.15 -44.3238 2096.46C-101.785 2142.24 -141.684 2195.9 -162.725 2253.31C-230.038 2437.08 -205.684 2637.65 -136.333 2698.46" stroke="#FFBB00" stroke-opacity="0.8" stroke-miterlimit="10"/>
<path opacity="0.3" d="M-375.368 1059.72C-690.052 1124.15 -771.915 1299.92 -652.048 1412.16C-587.896 1472.27 -488.363 1528.17 -372.058 1578.23C-315.871 1602.42 -263.36 1628.89 -212.482 1654.94C35.6701 1782.32 193.578 1882.89 -67.3557 2091.07C-125.169 2137.31 -164.953 2191.43 -183.072 2249.74C-242.138 2439.22 -228.38 2640.9 -161.875 2699.11" stroke="#FFBB00" stroke-opacity="0.8" strokeWidth="1.1" stroke-miterlimit="10"/>
<path opacity="0.3" d="M-357.123 1056.96C-681.218 1116.71 -765.629 1300.96 -637.588 1405.6C-566.94 1463.25 -463.86 1516.24 -349.393 1566.51C-293.376 1591.18 -242.744 1619.13 -193.869 1646.75C40.7482 1779.5 168.146 1878.63 -90.4598 2085.61C-148.387 2132.31 -187.937 2186.88 -203.379 2246.17C-253.972 2441.44 -250.91 2644.07 -187.371 2699.77" stroke="#FFBB00" stroke-opacity="0.8" strokeWidth="1.1" stroke-miterlimit="10"/>
<path opacity="0.3" d="M-338.875 1054.2C-672.373 1109.28 -758.86 1302.07 -623.004 1399.05C-545.747 1454.23 -439.361 1504.32 -326.73 1554.81C-270.764 1579.95 -222.127 1609.39 -175.251 1638.57C45.7398 1776.46 142.639 1874.46 -113.405 2080.24C-171.678 2127.32 -211 2182.41 -223.525 2242.6C-265.776 2443.74 -273.394 2647.25 -212.818 2700.43" stroke="#FFBB00" stroke-opacity="0.8" strokeWidth="1.1" stroke-miterlimit="10"/>
<path opacity="0.4" d="M-320.614 1051.44C-663.632 1101.85 -751.473 1303 -608.523 1392.43C-524.193 1445.2 -414.853 1492.33 -304.06 1543.12C-248.261 1568.73 -201.613 1599.58 -156.619 1630.41C50.8974 1773.1 117.316 1870.21 -136.292 2074.79C-194.921 2122.42 -233.892 2177.95 -243.74 2239.05C-277.3 2446.05 -295.949 2650.53 -238.209 2701.11" stroke="#FFBB00" stroke-opacity="0.8" strokeWidth="1.1" stroke-miterlimit="10"/>
<path opacity="0.4" d="M-302.454 1048.69C-654.752 1094.41 -743.583 1303.74 -593.912 1385.88C-502.392 1436.18 -390.46 1480.44 -281.377 1531.44C-225.627 1557.53 -180.961 1589.7 -137.969 1622.25C56.3345 1769.58 91.4792 1865.67 -159.123 2069.35C-218.101 2117.37 -256.616 2173.57 -263.903 2235.51C-288.784 2448.44 -318.327 2653.73 -263.544 2701.8" stroke="#FFBB00" stroke-opacity="0.8" strokeWidth="1.1" stroke-miterlimit="10"/>
<path opacity="0.4" d="M-284.143 1045.91C-645.844 1086.97 -735.18 1304.23 -579.394 1379.34C-480.443 1426.99 -365.93 1468.63 -258.785 1519.77C-203.082 1546.33 -160.276 1579.83 -119.283 1614.11C61.8342 1765.91 66.2981 1861.43 -181.89 2064C-241.217 2112.41 -279.388 2169.14 -283.881 2231.9C-299.977 2450.85 -340.765 2657.03 -288.812 2702.52" stroke="#FFBB00" stroke-opacity="0.8" strokeWidth="1.2" stroke-miterlimit="10"/>
<path opacity="0.5" d="M-265.79 1043.13C-636.902 1079.52 -726.383 1304.54 -564.728 1372.8C-458.111 1417.8 -341.484 1456.75 -236.039 1508.11C-180.504 1535.22 -139.427 1569.88 -100.553 1605.97C67.7628 1761.99 41.0831 1857.19 -204.58 2058.58C-264.268 2107.54 -301.975 2164.71 -303.916 2228.39C-310.99 2453.19 -363.017 2660.28 -314.013 2703.26" stroke="#FFBB00" stroke-opacity="0.8" strokeWidth="1.2" stroke-miterlimit="10"/>
<path opacity="0.5" d="M-247.389 1040.32C-628.042 1072.06 -717.311 1304.67 -550.142 1366.18C-435.614 1408.36 -316.883 1444.87 -213.251 1496.44C-157.757 1524.03 -118.648 1559.94 -81.7711 1597.83C73.8864 1757.91 16.0736 1852.95 -227.203 2053.26C-287.246 2102.61 -324.377 2160.29 -323.887 2224.9C-321.951 2455.64 -385.209 2663.56 -339.151 2704.04" stroke="#FFBB00" stroke-opacity="0.8" strokeWidth="1.2" stroke-miterlimit="10"/>
<path opacity="0.5" d="M-229.048 1037.5C-619.022 1064.58 -707.829 1304.47 -535.519 1359.64C-412.953 1398.84 -292.357 1433.07 -190.41 1484.78C-135.073 1512.84 -97.5743 1549.99 -62.9276 1589.69C80.3314 1753.67 -8.84543 1848.72 -249.748 2047.87C-310.153 2097.7 -346.828 2155.9 -343.673 2221.43C-332.615 2458.11 -407.462 2666.96 -364.222 2704.85" stroke="#FFBB00" stroke-opacity="0.8" strokeWidth="1.2" stroke-miterlimit="10"/>
<path opacity="0.6" d="M-210.527 1034.65C-609.959 1057.09 -698.304 1304.1 -520.737 1353.08C-390.003 1389.15 -267.782 1421.27 -167.512 1473.11C-112.334 1501.73 -76.5523 1539.96 -44.0193 1581.55C87.217 1749.26 -33.6828 1844.57 -272.341 2042.49C-332.876 2092.79 -369.104 2151.61 -363.517 2217.98C-343.223 2460.61 -429.538 2670.32 -389.237 2705.7" stroke="#FFBB00" stroke-opacity="0.8" strokeWidth="1.2" stroke-miterlimit="10"/>
<path opacity="0.6" d="M-191.947 1031.77C-600.975 1049.58 -688.616 1303.48 -506.033 1346.52C-367 1379.3 -243.157 1409.46 -144.678 1461.45C-89.4189 1490.61 -55.3512 1529.93 -25.0479 1573.4C94.4168 1744.76 -58.439 1840.34 -294.761 2037.21C-355.666 2087.99 -391.322 2147.25 -383.307 2214.56C-353.543 2463.05 -451.69 2673.79 -414.202 2706.6" stroke="#FFBB00" stroke-opacity="0.8" strokeWidth="1.3" stroke-miterlimit="10"/>
<path opacity="0.6" d="M-173.311 1028.88C-591.835 1042.04 -678.764 1302.61 -491.171 1339.95C-343.941 1369.19 -218.478 1397.57 -121.67 1449.77C-66.5606 1479.41 -33.9736 1519.88 -5.89809 1565.25C101.802 1740.26 -83.1282 1836.11 -317.123 2031.86C-378.401 2083.12 -413.492 2142.9 -402.934 2211.14C-363.819 2465.52 -473.681 2677.22 -439.126 2707.52" stroke="#FFBB00" stroke-opacity="0.8" strokeWidth="1.3" stroke-miterlimit="10"/>
<path opacity="0.7" d="M-154.626 1025.96C-582.665 1034.5 -668.999 1301.58 -476.393 1333.29C-320.836 1358.93 -193.767 1385.83 -98.617 1438.08C-43.6579 1468.29 -12.4234 1509.75 13.185 1557.1C109.604 1735.66 -107.769 1831.97 -339.45 2026.59C-400.987 2078.34 -435.629 2138.58 -422.645 2207.75C-374.063 2468.01 -495.644 2680.67 -464.021 2708.48" stroke="#FFBB00" stroke-opacity="0.8" strokeWidth="1.3" stroke-miterlimit="10"/>
<path opacity="0.7" d="M-136.015 1023.03C-573.586 1026.94 -659.322 1300.39 -461.471 1326.71C-297.689 1348.5 -169.012 1374 -75.5213 1426.39C-20.7108 1457.15 9.16801 1499.69 32.3144 1548.94C117.809 1731.05 -132.364 1827.75 -361.742 2021.26C-423.658 2073.49 -457.621 2134.26 -442.33 2204.38C-384.044 2470.51 -517.71 2684.24 -488.894 2709.47" stroke="#FFBB00" stroke-opacity="0.8" strokeWidth="1.3" stroke-miterlimit="10"/>
<path opacity="0.7" d="M-117.252 1020.08C-564.368 1019.37 -649.623 1299.11 -446.645 1320.12C-274.623 1337.91 -144.224 1362.16 -52.3908 1414.7C2.27674 1445.94 30.8005 1489.55 51.4811 1540.78C126.171 1726.43 -156.933 1823.61 -384.011 2015.94C-446.31 2068.66 -479.712 2129.96 -461.997 2201.02C-394.007 2473.04 -539.64 2687.76 -513.754 2710.48" stroke="#FFBB00" stroke-opacity="0.8" strokeWidth="1.3" stroke-miterlimit="10"/>
<path opacity="0.7" d="M-98.4589 1017.12C-555.132 1011.79 -640.02 1297.68 -431.681 1313.53C-251.41 1327.23 -119.409 1350.32 -29.3485 1403C25.2913 1434.79 52.701 1479.39 70.6796 1532.62C134.684 1721.81 -181.362 1819.47 -406.27 2010.71C-468.834 2063.91 -501.674 2125.67 -481.528 2197.58C-403.952 2475.5 -561.679 2691.29 -538.605 2711.52" stroke="#FFBB00" stroke-opacity="0.8" strokeWidth="1.3" stroke-miterlimit="10"/>
<path opacity="0.8" d="M-79.6421 1014.15C-546.004 1004.2 -630.642 1296.17 -416.822 1306.93C-228.406 1316.4 -94.6942 1338.56 -6.16359 1391.29C48.3315 1423.64 74.5052 1469.32 89.904 1524.45C143.572 1717.26 -205.892 1815.26 -428.517 2005.4C-491.467 2059.1 -523.627 2121.31 -501.177 2194.25C-413.767 2477.89 -583.605 2694.92 -563.455 2712.57" stroke="#FFBB00" stroke-opacity="0.8" strokeWidth="1.4" stroke-miterlimit="10"/>
<path opacity="0.8" d="M-60.9226 1011.18C-536.745 996.608 -621.245 1294.51 -401.944 1300.25C-205.374 1305.4 -69.8355 1326.71 17.0434 1379.58C71.2763 1412.49 96.5684 1459.23 109.151 1516.28C152.595 1712.78 -229.843 1811.43 -450.881 2000.19C-513.867 2054.44 -545.58 2117.03 -520.822 2190.92C-423.581 2480.38 -605.526 2698.49 -588.305 2713.64" stroke="#FFBB00" stroke-opacity="0.8" strokeWidth="1.4" stroke-miterlimit="10"/>
<path opacity="0.8" d="M-42.3772 1007.76C-528.06 988.624 -612.738 1292.59 -387.474 1293.37C-182.862 1294.1 -45.4226 1314.62 39.971 1367.56C94.0881 1401.04 118.39 1448.85 128.155 1507.84C161.491 1708.11 -254.866 1807.13 -473.771 1994.89C-537.186 2049.66 -568.243 2112.74 -541.054 2187.67C-433.944 2482.97 -628.377 2702.44 -613.956 2715.02" stroke="#FFBB00" stroke-opacity="0.8" strokeWidth="1.4" stroke-miterlimit="10"/>
<path opacity="0.9" d="M-23.9072 1004.21C-519.66 980.512 -604.415 1290.51 -373.265 1286.38C-160.556 1282.53 -21.0813 1302.42 62.8375 1355.43C116.842 1389.56 140.158 1438.38 147.102 1499.32C170.542 1703.53 -280.081 1802.8 -496.893 1989.67C-560.627 2044.89 -591.157 2108.54 -561.645 2184.45C-444.522 2485.62 -651.377 2706.41 -639.88 2716.49" stroke="#FFBB00" stroke-opacity="0.8" strokeWidth="1.4" stroke-miterlimit="10"/>
<path opacity="0.9" d="M-5.41262 1000.66C-511.116 972.393 -596.298 1288.44 -358.903 1279.39C-138.328 1270.96 3.30002 1290.21 85.6207 1343.3C139.515 1378 162.077 1427.9 166.076 1490.8C179.606 1698.96 -305.328 1798.55 -520.025 1984.38C-584.203 2040.2 -614.076 2104.26 -582.242 2181.23C-454.974 2488.27 -674.497 2710.37 -665.811 2717.96" stroke="#FFBB00" stroke-opacity="0.8" strokeWidth="1.4" stroke-miterlimit="10"/>
<path opacity="0.9" d="M12.9858 997.117C-502.546 964.271 -588.385 1286.29 -344.623 1272.32C-116.057 1259.3 27.7224 1277.91 108.559 1331.08C162.337 1366.42 184.02 1417.49 185.074 1482.27C188.788 1694.53 -330.597 1794.23 -543.171 1979.07C-607.785 2035.43 -637.008 2100.05 -602.725 2178C-465.412 2490.84 -697.505 2714.41 -691.747 2719.42" stroke="#FFBB00" stroke-opacity="0.8" strokeWidth="1.5" stroke-miterlimit="10"/>
<path d="M31.522 993.58C-494.073 956.152 -580.445 1284.14 -330.201 1265.32C-93.8665 1247.55 52.0459 1265.85 131.521 1318.93C184.944 1354.93 205.988 1407.07 204.093 1473.74C198.093 1690.19 -355.892 1789.92 -566.333 1973.85C-631.259 2030.64 -659.702 2095.67 -623.332 2174.77C-475.005 2493.21 -720.51 2718.37 -717.688 2720.87" stroke="#FFBB00" stroke-opacity="0.8" strokeWidth="1.5" stroke-miterlimit="10"/>
<path d="M50.0796 990.051C-485.458 948.028 -572.596 1282 -315.867 1258.32C95.541 1220.39 235.16 1296.61 223.253 1465.2C202.639 1755.1 -806.827 1836.31 -643.943 2171.54C-486.267 2495.96 -743.634 2722.32 -743.634 2722.32" stroke="#FFBB00" stroke-opacity="0.8" strokeWidth="1.5" stroke-miterlimit="10"/>
</g>
<g style="mix-blend-mode:screen" opacity="0.15">
<path opacity="0.2" d="M1913.23 3.13135C2287.01 247.464 2147.06 497.072 1755.51 525.351C1386.65 552.024 955.734 520.475 1183.56 859.996C1349.27 1107.02 1206.92 1395.65 1085.51 1448.08" stroke="#FFBB00" stroke-opacity="0.8" stroke-miterlimit="10"/>
<path opacity="0.2" d="M1896.71 -5.10951C2155.68 155.819 2178.38 329.877 2042.69 420.165C1973.2 466.438 1867.1 497.058 1737.52 507.202C1676.9 512.193 1615.95 517.063 1556.75 522.233C1258.83 548.052 1018.72 580.057 1207.2 861.936C1247.67 922.566 1269.55 985.532 1275.06 1046.59C1292.29 1239.19 1197.95 1418.44 1109.7 1456.55" stroke="#FFBB00" stroke-opacity="0.8" stroke-miterlimit="10"/>
<path opacity="0.3" d="M1880.18 -13.3424C2149.56 146.022 2173.23 329.28 2030.83 409.437C1956.53 451.332 1847.36 477.962 1719.53 489.069C1658.84 494.448 1599.3 501.506 1541.46 508.593C1254.9 544.229 1044.31 583.817 1230.83 863.795C1271.49 924.979 1293.02 988.296 1295.44 1049.39C1303.18 1244.94 1218.5 1428.39 1133.85 1465.01" stroke="#FFBB00" stroke-opacity="0.8" stroke-miterlimit="10"/>
<path opacity="0.3" d="M1863.78 -21.5289C2143.56 136.27 2167.59 328.672 2019.08 398.758C1939.59 436.311 1827.72 458.999 1701.66 470.994C1640.76 476.796 1582.67 485.886 1526.26 495.082C1251 540.256 1069.86 587.569 1254.41 865.725C1295.26 927.462 1316.54 991.171 1315.91 1052.23C1314.04 1250.69 1239.11 1438.44 1157.96 1473.46" stroke="#FFBB00" stroke-opacity="0.8" strokeWidth="1.1" stroke-miterlimit="10"/>
<path opacity="0.3" d="M1847.26 -29.7507C2137.43 126.481 2161.29 327.741 2007.33 388.084C1922.41 421.298 1808.05 440.13 1683.68 452.892C1622.8 459.2 1566.04 470.28 1511.05 481.583C1247.03 536.016 1095.38 591.312 1278.07 867.612C1318.89 929.821 1339.81 993.882 1336.33 1055.05C1324.62 1256.43 1259.58 1448.37 1182.03 1481.9" stroke="#FFBB00" stroke-opacity="0.8" strokeWidth="1.1" stroke-miterlimit="10"/>
<path opacity="0.3" d="M1830.73 -37.9715C2131.29 116.692 2154.5 326.719 1995.46 377.375C1905 406.213 1788.39 421.273 1665.7 434.804C1604.72 441.576 1549.4 454.685 1495.83 468.094C1243.21 531.586 1120.93 595.162 1301.56 869.528C1342.59 932.212 1363.13 996.702 1356.6 1057.84C1335.15 1262.24 1280.01 1458.29 1206.05 1490.34" stroke="#FFBB00" stroke-opacity="0.8" strokeWidth="1.1" stroke-miterlimit="10"/>
<path opacity="0.4" d="M1814.2 -46.1976C2125.25 106.94 2147.19 325.335 1983.7 366.631C1887.26 391.014 1768.73 402.351 1647.7 416.725C1586.74 424.001 1532.88 439.061 1480.6 454.61C1239.33 526.807 1146.34 598.881 1325.02 871.358C1366.22 934.672 1386.29 999.474 1376.93 1060.65C1345.41 1267.97 1300.47 1468.32 1230.01 1498.77" stroke="#FFBB00" stroke-opacity="0.8" strokeWidth="1.1" stroke-miterlimit="10"/>
<path opacity="0.4" d="M1797.76 -54.3905C2119.07 97.1411 2139.45 323.627 1971.8 355.924C1869.27 375.738 1749.16 383.553 1629.69 398.654C1568.63 406.393 1516.25 423.326 1465.35 441.13C1235.24 521.79 1172.32 602.479 1348.42 873.179C1389.83 936.971 1409.26 1002.27 1397.21 1063.46C1355.61 1273.77 1320.79 1478.23 1253.91 1507.19" stroke="#FFBB00" stroke-opacity="0.8" strokeWidth="1.1" stroke-miterlimit="10"/>
<path opacity="0.4" d="M1781.18 -62.6441C2112.87 87.3276 2131.3 321.514 1959.99 345.25C1851.2 360.268 1729.43 364.793 1611.77 380.623C1550.6 388.825 1499.59 407.589 1450.06 427.647C1231.13 516.609 1197.59 606.161 1371.73 875.067C1413.35 939.337 1432.3 1005.03 1417.33 1066.15C1365.53 1279.49 1341.14 1488.25 1277.74 1515.62" stroke="#FFBB00" stroke-opacity="0.8" strokeWidth="1.2" stroke-miterlimit="10"/>
<path opacity="0.5" d="M1764.56 -70.9233C2106.65 77.495 2122.83 319.112 1948.04 334.527C1832.76 344.67 1709.8 345.992 1593.69 362.545C1532.52 371.328 1482.79 391.727 1434.73 414.155C1226.69 511.063 1222.89 609.861 1394.98 876.867C1436.79 941.771 1455.15 1007.74 1437.48 1068.96C1375.29 1285.1 1361.32 1498.17 1301.5 1524.05" stroke="#FFBB00" stroke-opacity="0.8" strokeWidth="1.2" stroke-miterlimit="10"/>
<path opacity="0.5" d="M1747.91 -79.236C2100.5 67.6784 2114.16 316.458 1936.18 323.753C1814.24 328.792 1690.03 327.14 1575.58 344.457C1514.3 353.702 1466.06 375.894 1419.35 400.649C1222.11 505.305 1248 613.495 1418.15 878.734C1460.17 944.122 1477.83 1010.41 1457.55 1071.76C1384.97 1290.79 1381.44 1508.1 1325.19 1532.5" stroke="#FFBB00" stroke-opacity="0.8" strokeWidth="1.2" stroke-miterlimit="10"/>
<path opacity="0.5" d="M1731.32 -87.5447C2094.21 57.795 2105.19 313.359 1924.27 313.04C1795.58 312.783 1670.3 308.392 1557.41 326.354C1496.14 336.1 1449.05 359.963 1403.91 387.126C1217.27 499.292 1273.01 617.106 1441.26 880.515C1483.48 946.466 1500.55 1013.11 1477.45 1074.52C1394.37 1296.41 1401.58 1518.15 1348.81 1540.96" stroke="#FFBB00" stroke-opacity="0.8" strokeWidth="1.2" stroke-miterlimit="10"/>
<path opacity="0.6" d="M1714.56 -95.9362C2087.88 47.8809 2096.24 310.086 1912.21 302.267C1776.71 296.522 1650.53 289.624 1539.19 308.229C1477.9 318.553 1432.12 343.974 1388.4 373.581C1212.07 492.982 1297.93 620.768 1464.41 882.328C1506.61 948.765 1523.07 1015.85 1497.4 1077.32C1403.7 1302.04 1421.56 1528.11 1372.35 1549.44" stroke="#FFBB00" stroke-opacity="0.8" strokeWidth="1.2" stroke-miterlimit="10"/>
<path opacity="0.6" d="M1697.76 -104.369C2081.63 37.9772 2087.21 306.524 1900.22 291.514C1757.84 280.087 1630.71 270.834 1521.04 290.123C1459.5 300.944 1415.02 327.922 1372.84 360.012C1206.6 486.492 1322.79 624.333 1487.37 884.171C1529.78 951.178 1545.55 1018.51 1517.29 1080.13C1412.77 1307.53 1441.58 1538.21 1395.84 1557.94" stroke="#FFBB00" stroke-opacity="0.8" strokeWidth="1.3" stroke-miterlimit="10"/>
<path opacity="0.6" d="M1680.91 -112.839C2075.24 28.0064 2078.1 302.675 1888.09 280.703C1738.99 263.404 1610.87 251.948 1502.72 271.954C1441.17 283.275 1397.75 311.808 1357.11 346.382C1200.95 479.94 1347.58 627.879 1510.3 885.932C1552.91 953.514 1567.98 1021.18 1537.01 1082.89C1421.8 1313.03 1461.46 1548.21 1419.28 1566.47" stroke="#FFBB00" stroke-opacity="0.8" strokeWidth="1.3" stroke-miterlimit="10"/>
<path opacity="0.7" d="M1664.02 -121.344C2068.83 18.0112 2069.12 298.699 1876.07 269.839C1720.14 246.549 1590.94 233.194 1484.36 253.765C1422.78 265.663 1380.34 295.556 1341.45 332.771C1194.93 473.173 1372.31 631.489 1533.17 887.77C1575.88 955.888 1590.38 1023.85 1556.82 1085.71C1430.78 1318.54 1481.31 1558.24 1442.69 1575.01" stroke="#FFBB00" stroke-opacity="0.8" strokeWidth="1.3" stroke-miterlimit="10"/>
<path opacity="0.7" d="M1647.2 -129.839C2062.5 8.03482 2060.28 294.598 1863.88 258.996C1701.31 229.524 1571.01 214.345 1465.96 235.556C1404.36 248.03 1362.87 279.361 1325.74 319.142C1188.53 466.269 1397.01 635.013 1556.02 889.53C1598.94 958.228 1612.64 1026.48 1576.59 1088.53C1439.52 1323.98 1501.22 1568.4 1466.06 1583.58" stroke="#FFBB00" stroke-opacity="0.8" strokeWidth="1.3" stroke-miterlimit="10"/>
<path opacity="0.7" d="M1630.24 -138.397C2056.05 -1.99776 2051.43 290.411 1851.79 248.181C1682.6 212.373 1551.04 195.481 1447.53 217.333C1385.91 230.306 1345.39 263.074 1310 305.498C1181.99 459.313 1421.67 638.607 1578.85 891.293C1621.98 960.572 1634.98 1029.16 1596.34 1091.36C1448.23 1329.44 1521.02 1578.47 1489.41 1592.17" stroke="#FFBB00" stroke-opacity="0.8" strokeWidth="1.3" stroke-miterlimit="10"/>
<path opacity="0.7" d="M1613.26 -146.975C2049.58 -12.0442 2042.73 286.104 1839.57 237.317C1663.78 195.093 1531.05 176.603 1429.18 199.135C1367.42 212.643 1327.66 246.694 1294.23 291.842C1175.3 452.306 1446.19 642.157 1601.64 893.136C1644.88 962.958 1657.2 1031.81 1615.98 1094.08C1456.94 1334.83 1540.91 1588.59 1512.75 1600.77" stroke="#FFBB00" stroke-opacity="0.8" strokeWidth="1.3" stroke-miterlimit="10"/>
<path opacity="0.8" d="M1596.26 -155.571C2043.22 -22.0632 2034.27 281.795 1827.45 226.483C1645.2 177.727 1511.13 157.828 1410.7 180.883C1348.91 194.967 1310 230.416 1278.44 278.173C1168.24 445.246 1470.83 645.67 1624.44 894.906C1667.9 965.313 1679.44 1034.39 1635.71 1096.93C1465.55 1340.12 1560.67 1598.77 1536.08 1609.39" stroke="#FFBB00" stroke-opacity="0.8" strokeWidth="1.4" stroke-miterlimit="10"/>
<path opacity="0.8" d="M1579.36 -164.14C2036.73 -32.1316 2025.83 277.328 1815.33 215.565C1626.65 160.199 1491.11 138.926 1392.2 162.62C1330.49 177.32 1292.09 214.048 1262.62 264.494C1161.02 438.216 1494.8 649.365 1647.33 896.797C1690.65 967.746 1701.64 1037.04 1655.43 1099.78C1474.13 1345.49 1580.44 1608.88 1559.4 1618.03" stroke="#FFBB00" stroke-opacity="0.8" strokeWidth="1.4" stroke-miterlimit="10"/>
<path opacity="0.8" d="M1562.75 -173.076C2030.91 -42.3929 2018.32 272.898 1803.67 204.574C1608.69 142.54 1471.57 119.937 1374.06 144.151C1312.29 159.425 1274.5 197.485 1247.12 250.642C1153.99 431.046 1519.94 652.941 1670.74 898.774C1714.31 970.35 1724.53 1039.91 1675.68 1102.9C1483.19 1351.14 1600.98 1619.65 1583.4 1627.2" stroke="#FFBB00" stroke-opacity="0.8" strokeWidth="1.4" stroke-miterlimit="10"/>
<path opacity="0.9" d="M1546.26 -182.123C2025.41 -52.6893 2011.04 268.365 1792.29 193.57C1591 124.691 1452.15 100.862 1356.01 125.597C1294.15 141.521 1256.99 180.842 1231.7 236.721C1146.78 423.912 1545.27 656.551 1694.35 900.897C1738.08 972.995 1747.63 1042.94 1696.26 1106.15C1492.45 1356.91 1621.66 1630.47 1607.62 1636.55" stroke="#FFBB00" stroke-opacity="0.8" strokeWidth="1.4" stroke-miterlimit="10"/>
<path opacity="0.9" d="M1529.75 -191.173C2019.76 -63.0375 2003.95 263.902 1780.76 182.511C1573.39 106.86 1432.68 81.7643 1338.05 107.063C1276.11 123.564 1239.34 164.143 1216.25 222.789C1139.55 416.776 1570.6 660.25 1717.99 902.946C1761.96 975.758 1770.76 1045.89 1716.86 1109.4C1501.59 1362.63 1642.45 1641.34 1631.85 1645.9" stroke="#FFBB00" stroke-opacity="0.8" strokeWidth="1.4" stroke-miterlimit="10"/>
<path opacity="0.9" d="M1513.32 -200.183C2014.1 -73.396 1997.08 259.433 1769.34 171.401C1555.77 88.9321 1413.21 62.5709 1319.96 88.3961C1257.94 105.551 1221.64 147.507 1200.78 208.846C1132.17 409.752 1595.98 663.884 1741.64 904.995C1785.87 978.443 1793.87 1048.91 1737.34 1112.6C1510.74 1368.27 1663.11 1652.24 1656.09 1655.24" stroke="#FFBB00" stroke-opacity="0.8" strokeWidth="1.5" stroke-miterlimit="10"/>
<path d="M1496.76 -209.232C2008.52 -83.7213 1990.18 254.957 1757.75 160.315C1538.25 70.9512 1393.75 43.6322 1301.83 69.7914C1239.94 87.683 1203.93 130.86 1185.29 194.895C1124.64 402.764 1621.38 667.53 1765.29 907.122C1809.68 981.088 1816.82 1051.7 1757.95 1115.85C1519.14 1373.47 1683.79 1663.06 1680.34 1664.58" stroke="#FFBB00" stroke-opacity="0.8" strokeWidth="1.5" stroke-miterlimit="10"/>
<path d="M1480.18 -218.28C2002.81 -94.0954 1983.36 250.513 1746.26 149.259C1366.29 -12.9678 1210.03 16.7697 1169.67 180.895C1100.41 463.16 2036.37 849.94 1778.56 1119.09C1529.02 1379.54 1704.59 1673.91 1704.59 1673.91" stroke="#FFBB00" stroke-opacity="0.8" strokeWidth="1.5" stroke-miterlimit="10"/>
</g>
<g filter="url(#filter0_f_601_23)">
<circle cx="1332.5" cy="1987.5" r="107.5" fill="#FFBB00"/>
</g>
<g filter="url(#filter1_f_601_23)">
<circle cx="83" cy="2590" r="85" fill="#FFBB00"/>
</g>
<g filter="url(#filter2_f_601_23)">
<circle cx="105" cy="156" r="85" fill="#FFBB00"/>
</g>
</g>
<defs>
<filter id="filter0_f_601_23" x="450" y="1105" width="1765" height="1765" filterUnits="userSpaceOnUse" colorInterpolationFilters="sRGB">
<feFlood floodOpacity="0" result="BackgroundImageFix"/>
<feBlend mode="normal" in="SourceGraphic" in2="BackgroundImageFix" result="shape"/>
<feGaussianBlur stdDeviation="387.5" result="effect1_foregroundBlur_601_23"/>
</filter>
<filter id="filter1_f_601_23" x="-777" y="1730" width="1720" height="1720" filterUnits="userSpaceOnUse" colorInterpolationFilters="sRGB">
<feFlood floodOpacity="0" result="BackgroundImageFix"/>
<feBlend mode="normal" in="SourceGraphic" in2="BackgroundImageFix" result="shape"/>
<feGaussianBlur stdDeviation="387.5" result="effect1_foregroundBlur_601_23"/>
</filter>
<filter id="filter2_f_601_23" x="-755" y="-704" width="1720" height="1720" filterUnits="userSpaceOnUse" colorInterpolationFilters="sRGB">
<feFlood floodOpacity="0" result="BackgroundImageFix"/>
<feBlend mode="normal" in="SourceGraphic" in2="BackgroundImageFix" result="shape"/>
<feGaussianBlur stdDeviation="387.5" result="effect1_foregroundBlur_601_23"/>
</filter>
<clipPath id="clip0_601_23">
<rect width="1440" height="2906" fill="white"/>
</clipPath>
</defs>
</svg>
