<svg width="481" height="1934" viewBox="0 0 481 1934" fill="none" xmlns="http://www.w3.org/2000/svg" class="" style="">
<g style="mix-blend-mode:screen" opacity="0.15">
<path opacity="0.2" d="M927.377 234.445C1323.7 440.204 1209.39 702.548 822.625 769.812C458.274 833.211 26.3661 844.879 286.978 1159.93C476.542 1389.16 363.744 1690.57 248.188 1754.87" stroke="#FFBB00" stroke-opacity="0.8" stroke-miterlimit="10" class="UOOKNOnJ_0"></path>
<path opacity="0.2" d="M910.107 227.897C1183.86 362.142 1223.85 533.06 1097.86 636.455C1033.34 689.44 930.834 730.509 802.908 753.551C743.095 764.575 682.936 775.511 624.554 786.571C330.702 842.03 94.9854 897.869 310.695 1159.5C357.021 1215.79 385.085 1276.25 396.666 1336.45C433.056 1526.36 357.104 1714.14 273.099 1760.88" stroke="#FFBB00" stroke-opacity="0.8" stroke-miterlimit="10" class="UOOKNOnJ_1"></path>
<path opacity="0.3" d="M892.845 221.357C1176.8 353.005 1218.66 532.981 1084.99 626.966C1015.24 676.076 909.281 713.481 783.201 737.307C723.351 748.724 664.812 761.696 607.971 774.527C326.408 838.62 120.825 899.053 334.393 1158.99C380.965 1215.81 408.707 1276.65 417.229 1337.2C444.463 1531 378.546 1721.99 297.974 1766.89" stroke="#FFBB00" stroke-opacity="0.8" stroke-miterlimit="10" class="UOOKNOnJ_2"></path>
<path opacity="0.3" d="M875.703 214.85C1169.85 343.902 1212.99 532.939 1072.23 617.514C996.889 662.823 887.839 696.577 763.616 721.107C703.603 732.966 646.706 747.816 591.494 762.603C322.129 835.057 146.628 900.232 358.043 1158.56C404.861 1215.9 432.397 1277.17 437.873 1337.98C455.844 1535.64 400.054 1729.94 322.81 1772.89" stroke="#FFBB00" stroke-opacity="0.8" strokeWidth="1.1" stroke-miterlimit="10" class="UOOKNOnJ_3"></path>
<path opacity="0.3" d="M858.444 208.32C1162.77 334.774 1206.62 532.643 1059.47 608.068C978.294 649.602 866.388 679.767 743.917 704.893C683.969 717.253 628.598 733.95 575.014 750.691C317.756 831.234 172.388 901.408 381.778 1158.07C428.611 1215.89 455.826 1277.54 458.476 1338.75C466.949 1540.29 421.416 1737.77 347.6 1778.88" stroke="#FFBB00" stroke-opacity="0.8" strokeWidth="1.1" stroke-miterlimit="10" class="UOOKNOnJ_4"></path>
<path opacity="0.3" d="M841.182 201.792C1155.69 325.648 1199.77 532.304 1046.59 598.599C959.467 636.332 844.937 662.97 724.216 688.693C664.219 701.524 610.486 720.095 558.527 738.79C313.515 827.208 198.201 902.685 405.341 1157.63C452.431 1215.9 479.312 1278.01 478.922 1339.49C478.005 1545.02 442.731 1745.6 372.34 1784.87" stroke="#FFBB00" stroke-opacity="0.8" strokeWidth="1.1" stroke-miterlimit="10" class="UOOKNOnJ_5"></path>
<path opacity="0.4" d="M823.907 195.259C1148.7 316.548 1192.36 531.657 1033.82 589.084C940.288 622.982 823.491 646.106 704.505 672.502C644.572 685.834 592.488 706.2 542.025 726.895C309.178 822.841 223.853 903.846 428.862 1157.1C476.185 1215.99 502.631 1278.46 499.432 1340.27C488.789 1549.69 464.096 1753.53 397.024 1790.87" stroke="#FFBB00" stroke-opacity="0.8" strokeWidth="1.1" stroke-miterlimit="10" class="UOOKNOnJ_6"></path>
<path opacity="0.4" d="M806.732 188.75C1141.58 307.416 1184.49 530.731 1020.91 579.619C920.868 609.58 802.138 629.358 684.779 656.321C624.796 670.124 574.37 692.206 525.502 715.007C304.601 818.258 250.067 904.83 452.326 1156.58C499.908 1215.91 525.767 1278.95 519.889 1341.04C499.515 1554.45 485.303 1761.36 421.649 1796.86" stroke="#FFBB00" stroke-opacity="0.8" strokeWidth="1.1" stroke-miterlimit="10" class="UOOKNOnJ_7"></path>
<path opacity="0.4" d="M789.41 182.195C1134.43 298.27 1176.17 529.444 1008.09 570.18C901.336 595.994 780.634 612.663 665.14 640.172C605.103 654.445 556.218 678.212 508.943 703.119C299.994 813.514 275.577 905.968 475.709 1156.13C523.55 1215.92 548.963 1279.39 540.179 1341.7C509.953 1559.15 506.547 1769.3 446.204 1802.87" stroke="#FFBB00" stroke-opacity="0.8" strokeWidth="1.2" stroke-miterlimit="10" class="UOOKNOnJ_8"></path>
<path opacity="0.5" d="M772.052 175.617C1127.25 289.109 1167.5 527.9 995.119 560.704C881.431 582.317 759.226 595.917 645.35 623.991C585.36 638.842 537.922 664.108 492.339 691.227C295.02 808.439 301.119 907.121 499.031 1155.59C547.109 1216 571.975 1279.8 560.504 1342.48C520.228 1563.75 527.622 1777.15 470.687 1808.88" stroke="#FFBB00" stroke-opacity="0.8" strokeWidth="1.2" stroke-miterlimit="10" class="UOOKNOnJ_9"></path>
<path opacity="0.5" d="M754.65 169.01C1120.16 279.956 1158.6 526.126 982.248 551.169C861.417 568.369 737.667 579.136 625.518 607.803C565.47 623.125 519.694 650.026 475.685 679.326C289.889 803.167 326.461 908.229 522.268 1155.14C570.611 1216 594.805 1280.19 580.762 1343.26C530.431 1568.45 548.63 1785.02 495.101 1814.92" stroke="#FFBB00" stroke-opacity="0.8" strokeWidth="1.2" stroke-miterlimit="10" class="UOOKNOnJ_10"></path>
<path opacity="0.5" d="M737.309 162.401C1112.91 270.751 1149.38 523.938 969.325 541.7C841.259 554.303 716.165 562.453 605.634 591.606C545.64 607.426 501.178 635.874 458.969 667.413C284.478 797.668 351.713 909.321 545.441 1154.6C594.039 1216 617.678 1280.61 600.837 1344.01C540.339 1573.1 569.673 1793.01 519.443 1820.98" stroke="#FFBB00" stroke-opacity="0.8" strokeWidth="1.2" stroke-miterlimit="10" class="UOOKNOnJ_11"></path>
<path opacity="0.6" d="M719.8 155.726C1105.62 261.518 1140.14 521.575 956.249 532.185C820.855 540.009 694.615 545.754 585.696 575.392C525.74 591.79 482.729 621.657 442.192 655.484C278.672 791.909 376.869 910.476 568.659 1154.09C617.286 1215.98 640.36 1281.08 620.962 1344.81C550.187 1577.77 590.553 1800.93 543.721 1827.06" stroke="#FFBB00" stroke-opacity="0.8" strokeWidth="1.2" stroke-miterlimit="10" class="UOOKNOnJ_12"></path>
<path opacity="0.6" d="M702.238 149.014C1098.41 252.289 1130.8 518.934 943.249 522.684C800.434 525.543 673.017 529.04 565.82 559.191C505.669 576.107 464.107 607.395 425.353 643.539C272.577 785.998 401.961 911.538 591.688 1153.63C640.576 1216.06 662.997 1281.49 641.032 1345.61C559.764 1582.32 611.483 1808.97 567.943 1833.18" stroke="#FFBB00" stroke-opacity="0.8" strokeWidth="1.3" stroke-miterlimit="10" class="UOOKNOnJ_13"></path>
<path opacity="0.6" d="M684.624 142.27C1091.06 243.007 1121.35 516.015 930.099 513.139C780.009 510.827 651.386 512.231 545.777 542.944C485.672 560.358 445.315 593.087 408.341 631.548C266.302 780.044 426.987 912.589 614.676 1153.09C663.827 1216.08 685.585 1281.9 660.937 1346.4C569.293 1586.89 632.264 1816.94 592.117 1839.31" stroke="#FFBB00" stroke-opacity="0.8" strokeWidth="1.3" stroke-miterlimit="10" class="UOOKNOnJ_14"></path>
<path opacity="0.7" d="M666.968 135.496C1083.68 233.702 1112.02 512.956 917.046 503.531C759.574 495.94 629.69 495.562 525.69 526.681C465.615 544.671 426.372 578.656 391.395 619.571C259.639 773.912 451.95 913.71 637.61 1152.63C686.913 1216.14 708.137 1282.31 680.921 1347.22C578.785 1591.48 653.012 1824.93 616.256 1845.48" stroke="#FFBB00" stroke-opacity="0.8" strokeWidth="1.3" stroke-miterlimit="10" class="UOOKNOnJ_15"></path>
<path opacity="0.7" d="M649.388 128.724C1076.39 224.408 1102.81 509.759 903.84 493.96C739.132 480.882 607.97 478.799 505.563 510.402C445.517 528.969 407.373 564.288 374.404 607.58C252.585 767.681 476.883 914.748 660.524 1152.1C710.096 1216.17 730.545 1282.71 700.875 1348.05C588.019 1596.02 673.837 1833.05 640.368 1851.67" stroke="#FFBB00" stroke-opacity="0.8" strokeWidth="1.3" stroke-miterlimit="10" class="UOOKNOnJ_16"></path>
<path opacity="0.7" d="M631.661 121.903C1068.96 215.071 1093.59 506.477 890.727 484.409C718.804 465.686 586.219 462.025 485.403 494.111C425.396 513.176 388.352 549.83 357.377 595.578C245.377 761.414 501.773 915.86 683.414 1151.58C733.257 1216.2 753.047 1283.14 720.809 1348.9C597.229 1600.58 694.541 1841.09 664.46 1857.88" stroke="#FFBB00" stroke-opacity="0.8" strokeWidth="1.3" stroke-miterlimit="10" class="UOOKNOnJ_17"></path>
<path opacity="0.7" d="M613.908 115.066C1061.52 205.721 1084.5 503.061 877.481 474.819C698.35 450.373 564.443 445.239 465.33 477.837C405.234 497.449 369.072 535.303 340.321 583.565C238.024 755.111 526.526 916.943 706.276 1151.13C756.276 1216.28 775.42 1283.56 740.626 1349.64C606.436 1605.08 715.347 1849.17 688.54 1864.11" stroke="#FFBB00" stroke-opacity="0.8" strokeWidth="1.3" stroke-miterlimit="10" class="UOOKNOnJ_18"></path>
<path opacity="0.8" d="M596.134 108.211C1054.19 196.388 1075.65 499.619 864.337 465.251C678.132 434.951 542.748 428.548 445.119 461.523C385.048 481.711 349.869 520.872 323.239 571.543C230.29 748.792 551.393 917.976 729.141 1150.61C779.416 1216.33 797.8 1283.9 760.538 1350.5C615.53 1609.48 736.023 1857.32 712.616 1870.35" stroke="#FFBB00" stroke-opacity="0.8" strokeWidth="1.4" stroke-miterlimit="10" class="UOOKNOnJ_19"></path>
<path opacity="0.8" d="M578.456 101.374C1046.73 187.017 1066.81 496.018 851.193 455.598C657.923 419.364 520.932 411.741 424.888 445.2C364.955 465.993 330.416 506.375 306.137 559.513C222.409 742.518 575.615 919.256 752.102 1150.21C802.295 1216.47 820.162 1284.33 780.444 1351.37C624.604 1613.97 756.706 1865.41 736.687 1876.62" stroke="#FFBB00" stroke-opacity="0.8" strokeWidth="1.4" stroke-miterlimit="10" class="UOOKNOnJ_20"></path>
<path opacity="0.8" d="M561.041 94.1418C1039.92 177.389 1058.9 492.36 838.491 445.827C638.285 403.588 499.6 394.8 404.995 428.637C345.056 450.007 311.258 491.653 289.327 547.28C214.691 736.086 600.983 920.303 775.593 1149.84C826.097 1216.7 843.221 1284.89 800.907 1352.44C634.192 1618.68 778.219 1874.07 761.479 1883.34" stroke="#FFBB00" stroke-opacity="0.8" strokeWidth="1.4" stroke-miterlimit="10" class="UOOKNOnJ_21"></path>
<path opacity="0.9" d="M543.729 86.7877C1033.41 167.695 1051.2 488.577 826.064 436.017C618.904 387.596 478.362 377.761 385.184 411.978C325.219 434.005 292.173 476.843 272.591 534.97C206.803 729.709 626.545 921.364 799.295 1149.59C850.017 1216.96 866.506 1285.59 821.714 1353.62C643.977 1623.49 799.873 1882.78 786.516 1890.23" stroke="#FFBB00" stroke-opacity="0.8" strokeWidth="1.4" stroke-miterlimit="10" class="UOOKNOnJ_22"></path>
<path opacity="0.9" d="M526.392 79.4337C1026.76 157.962 1043.7 484.845 813.491 426.164C599.601 371.614 457.087 360.704 365.455 395.333C305.478 417.94 272.944 461.991 255.83 522.65C198.902 723.331 652.121 922.513 823.024 1149.27C874.052 1217.32 889.813 1286.22 842.528 1354.8C653.64 1628.27 821.645 1891.51 811.56 1897.1" stroke="#FFBB00" stroke-opacity="0.8" strokeWidth="1.4" stroke-miterlimit="10" class="UOOKNOnJ_23"></path>
<path opacity="0.9" d="M509.146 72.1102C1020.09 148.222 1036.41 481.085 801.014 416.251C580.274 355.537 435.791 343.553 345.594 378.567C285.595 401.834 253.675 447.207 239.046 510.323C190.853 717.08 677.734 923.593 846.767 1148.94C898.111 1217.6 913.116 1286.92 863.233 1355.94C663.307 1632.97 843.292 1900.29 836.611 1903.98" stroke="#FFBB00" stroke-opacity="0.8" strokeWidth="1.5" stroke-miterlimit="10" class="UOOKNOnJ_24"></path>
<path d="M491.766 64.7612C1013.51 138.505 1029.1 477.321 788.382 406.378C561.044 339.396 414.542 326.653 325.694 361.867C265.903 385.853 234.383 432.413 222.241 497.989C182.667 710.879 703.371 924.682 870.51 1148.69C922.066 1217.85 936.224 1287.4 884.059 1357.11C672.188 1637.31 864.954 1908.99 861.669 1910.85" stroke="#FFBB00" stroke-opacity="0.8" strokeWidth="1.5" stroke-miterlimit="10" class="UOOKNOnJ_25"></path>
<path d="M474.362 57.4155C1006.79 128.754 1021.87 473.581 775.837 396.526C381.558 273.081 229.051 318.285 205.301 485.621C164.595 773.394 1134.52 1064.71 904.889 1358.27C682.622 1642.36 886.732 1917.71 886.732 1917.71" stroke="#FFBB00" stroke-opacity="0.8" strokeWidth="1.5" stroke-miterlimit="10" class="UOOKNOnJ_26"></path>
</g>
<style data-made-with="vivus-instant">.UOOKNOnJ_0{stroke-dasharray:2401 2403;stroke-dashoffset:2402;animation:UOOKNOnJ_draw_0 6100ms linear 0ms infinite,UOOKNOnJ_fade 6100ms linear 0ms infinite;}.UOOKNOnJ_1{stroke-dasharray:2385 2387;stroke-dashoffset:2386;animation:UOOKNOnJ_draw_1 6100ms linear 0ms infinite,UOOKNOnJ_fade 6100ms linear 0ms infinite;}.UOOKNOnJ_2{stroke-dasharray:2372 2374;stroke-dashoffset:2373;animation:UOOKNOnJ_draw_2 6100ms linear 0ms infinite,UOOKNOnJ_fade 6100ms linear 0ms infinite;}.UOOKNOnJ_3{stroke-dasharray:2363 2365;stroke-dashoffset:2364;animation:UOOKNOnJ_draw_3 6100ms linear 0ms infinite,UOOKNOnJ_fade 6100ms linear 0ms infinite;}.UOOKNOnJ_4{stroke-dasharray:2356 2358;stroke-dashoffset:2357;animation:UOOKNOnJ_draw_4 6100ms linear 0ms infinite,UOOKNOnJ_fade 6100ms linear 0ms infinite;}.UOOKNOnJ_5{stroke-dasharray:2354 2356;stroke-dashoffset:2355;animation:UOOKNOnJ_draw_5 6100ms linear 0ms infinite,UOOKNOnJ_fade 6100ms linear 0ms infinite;}.UOOKNOnJ_6{stroke-dasharray:2355 2357;stroke-dashoffset:2356;animation:UOOKNOnJ_draw_6 6100ms linear 0ms infinite,UOOKNOnJ_fade 6100ms linear 0ms infinite;}.UOOKNOnJ_7{stroke-dasharray:2361 2363;stroke-dashoffset:2362;animation:UOOKNOnJ_draw_7 6100ms linear 0ms infinite,UOOKNOnJ_fade 6100ms linear 0ms infinite;}.UOOKNOnJ_8{stroke-dasharray:2371 2373;stroke-dashoffset:2372;animation:UOOKNOnJ_draw_8 6100ms linear 0ms infinite,UOOKNOnJ_fade 6100ms linear 0ms infinite;}.UOOKNOnJ_9{stroke-dasharray:2386 2388;stroke-dashoffset:2387;animation:UOOKNOnJ_draw_9 6100ms linear 0ms infinite,UOOKNOnJ_fade 6100ms linear 0ms infinite;}.UOOKNOnJ_10{stroke-dasharray:2406 2408;stroke-dashoffset:2407;animation:UOOKNOnJ_draw_10 6100ms linear 0ms infinite,UOOKNOnJ_fade 6100ms linear 0ms infinite;}.UOOKNOnJ_11{stroke-dasharray:2431 2433;stroke-dashoffset:2432;animation:UOOKNOnJ_draw_11 6100ms linear 0ms infinite,UOOKNOnJ_fade 6100ms linear 0ms infinite;}.UOOKNOnJ_12{stroke-dasharray:2460 2462;stroke-dashoffset:2461;animation:UOOKNOnJ_draw_12 6100ms linear 0ms infinite,UOOKNOnJ_fade 6100ms linear 0ms infinite;}.UOOKNOnJ_13{stroke-dasharray:2494 2496;stroke-dashoffset:2495;animation:UOOKNOnJ_draw_13 6100ms linear 0ms infinite,UOOKNOnJ_fade 6100ms linear 0ms infinite;}.UOOKNOnJ_14{stroke-dasharray:2533 2535;stroke-dashoffset:2534;animation:UOOKNOnJ_draw_14 6100ms linear 0ms infinite,UOOKNOnJ_fade 6100ms linear 0ms infinite;}.UOOKNOnJ_15{stroke-dasharray:2575 2577;stroke-dashoffset:2576;animation:UOOKNOnJ_draw_15 6100ms linear 0ms infinite,UOOKNOnJ_fade 6100ms linear 0ms infinite;}.UOOKNOnJ_16{stroke-dasharray:2621 2623;stroke-dashoffset:2622;animation:UOOKNOnJ_draw_16 6100ms linear 0ms infinite,UOOKNOnJ_fade 6100ms linear 0ms infinite;}.UOOKNOnJ_17{stroke-dasharray:2670 2672;stroke-dashoffset:2671;animation:UOOKNOnJ_draw_17 6100ms linear 0ms infinite,UOOKNOnJ_fade 6100ms linear 0ms infinite;}.UOOKNOnJ_18{stroke-dasharray:2723 2725;stroke-dashoffset:2724;animation:UOOKNOnJ_draw_18 6100ms linear 0ms infinite,UOOKNOnJ_fade 6100ms linear 0ms infinite;}.UOOKNOnJ_19{stroke-dasharray:2778 2780;stroke-dashoffset:2779;animation:UOOKNOnJ_draw_19 6100ms linear 0ms infinite,UOOKNOnJ_fade 6100ms linear 0ms infinite;}.UOOKNOnJ_20{stroke-dasharray:2836 2838;stroke-dashoffset:2837;animation:UOOKNOnJ_draw_20 6100ms linear 0ms infinite,UOOKNOnJ_fade 6100ms linear 0ms infinite;}.UOOKNOnJ_21{stroke-dasharray:2898 2900;stroke-dashoffset:2899;animation:UOOKNOnJ_draw_21 6100ms linear 0ms infinite,UOOKNOnJ_fade 6100ms linear 0ms infinite;}.UOOKNOnJ_22{stroke-dasharray:2962 2964;stroke-dashoffset:2963;animation:UOOKNOnJ_draw_22 6100ms linear 0ms infinite,UOOKNOnJ_fade 6100ms linear 0ms infinite;}.UOOKNOnJ_23{stroke-dasharray:3028 3030;stroke-dashoffset:3029;animation:UOOKNOnJ_draw_23 6100ms linear 0ms infinite,UOOKNOnJ_fade 6100ms linear 0ms infinite;}.UOOKNOnJ_24{stroke-dasharray:3096 3098;stroke-dashoffset:3097;animation:UOOKNOnJ_draw_24 6100ms linear 0ms infinite,UOOKNOnJ_fade 6100ms linear 0ms infinite;}.UOOKNOnJ_25{stroke-dasharray:3166 3168;stroke-dashoffset:3167;animation:UOOKNOnJ_draw_25 6100ms linear 0ms infinite,UOOKNOnJ_fade 6100ms linear 0ms infinite;}.UOOKNOnJ_26{stroke-dasharray:3238 3240;stroke-dashoffset:3239;animation:UOOKNOnJ_draw_26 6100ms linear 0ms infinite,UOOKNOnJ_fade 6100ms linear 0ms infinite;}@keyframes UOOKNOnJ_draw{100%{stroke-dashoffset:0;}}@keyframes UOOKNOnJ_fade{0%{stroke-opacity:1;}93.44262295081967%{stroke-opacity:1;}100%{stroke-opacity:0;}}@keyframes UOOKNOnJ_draw_0{13.114754098360656%{stroke-dashoffset: 2402}33.87978142076503%{ stroke-dashoffset: 0;}100%{ stroke-dashoffset: 0;}}@keyframes UOOKNOnJ_draw_1{13.51408154686843%{stroke-dashoffset: 2386}34.2791088692728%{ stroke-dashoffset: 0;}100%{ stroke-dashoffset: 0;}}@keyframes UOOKNOnJ_draw_2{13.913408995376209%{stroke-dashoffset: 2373}34.67843631778057%{ stroke-dashoffset: 0;}100%{ stroke-dashoffset: 0;}}@keyframes UOOKNOnJ_draw_3{14.312736443883987%{stroke-dashoffset: 2364}35.077763766288356%{ stroke-dashoffset: 0;}100%{ stroke-dashoffset: 0;}}@keyframes UOOKNOnJ_draw_4{14.712063892391761%{stroke-dashoffset: 2357}35.47709121479613%{ stroke-dashoffset: 0;}100%{ stroke-dashoffset: 0;}}@keyframes UOOKNOnJ_draw_5{15.111391340899537%{stroke-dashoffset: 2355}35.8764186633039%{ stroke-dashoffset: 0;}100%{ stroke-dashoffset: 0;}}@keyframes UOOKNOnJ_draw_6{15.510718789407315%{stroke-dashoffset: 2356}36.275746111811685%{ stroke-dashoffset: 0;}100%{ stroke-dashoffset: 0;}}@keyframes UOOKNOnJ_draw_7{15.91004623791509%{stroke-dashoffset: 2362}36.67507356031947%{ stroke-dashoffset: 0;}100%{ stroke-dashoffset: 0;}}@keyframes UOOKNOnJ_draw_8{16.309373686422866%{stroke-dashoffset: 2372}37.07440100882724%{ stroke-dashoffset: 0;}100%{ stroke-dashoffset: 0;}}@keyframes UOOKNOnJ_draw_9{16.708701134930646%{stroke-dashoffset: 2387}37.47372845733501%{ stroke-dashoffset: 0;}100%{ stroke-dashoffset: 0;}}@keyframes UOOKNOnJ_draw_10{17.10802858343842%{stroke-dashoffset: 2407}37.87305590584279%{ stroke-dashoffset: 0;}100%{ stroke-dashoffset: 0;}}@keyframes UOOKNOnJ_draw_11{17.5073560319462%{stroke-dashoffset: 2432}38.272383354350566%{ stroke-dashoffset: 0;}100%{ stroke-dashoffset: 0;}}@keyframes UOOKNOnJ_draw_12{17.90668348045397%{stroke-dashoffset: 2461}38.67171080285834%{ stroke-dashoffset: 0;}100%{ stroke-dashoffset: 0;}}@keyframes UOOKNOnJ_draw_13{18.30601092896175%{stroke-dashoffset: 2495}39.07103825136611%{ stroke-dashoffset: 0;}100%{ stroke-dashoffset: 0;}}@keyframes UOOKNOnJ_draw_14{18.705338377469527%{stroke-dashoffset: 2534}39.470365699873895%{ stroke-dashoffset: 0;}100%{ stroke-dashoffset: 0;}}@keyframes UOOKNOnJ_draw_15{19.104665825977303%{stroke-dashoffset: 2576}39.86969314838167%{ stroke-dashoffset: 0;}100%{ stroke-dashoffset: 0;}}@keyframes UOOKNOnJ_draw_16{19.50399327448508%{stroke-dashoffset: 2622}40.26902059688945%{ stroke-dashoffset: 0;}100%{ stroke-dashoffset: 0;}}@keyframes UOOKNOnJ_draw_17{19.903320722992856%{stroke-dashoffset: 2671}40.668348045397224%{ stroke-dashoffset: 0;}100%{ stroke-dashoffset: 0;}}@keyframes UOOKNOnJ_draw_18{20.302648171500632%{stroke-dashoffset: 2724}41.06767549390501%{ stroke-dashoffset: 0;}100%{ stroke-dashoffset: 0;}}@keyframes UOOKNOnJ_draw_19{20.701975620008408%{stroke-dashoffset: 2779}41.46700294241278%{ stroke-dashoffset: 0;}100%{ stroke-dashoffset: 0;}}@keyframes UOOKNOnJ_draw_20{21.101303068516188%{stroke-dashoffset: 2837}41.86633039092055%{ stroke-dashoffset: 0;}100%{ stroke-dashoffset: 0;}}@keyframes UOOKNOnJ_draw_21{21.50063051702396%{stroke-dashoffset: 2899}42.26565783942833%{ stroke-dashoffset: 0;}100%{ stroke-dashoffset: 0;}}@keyframes UOOKNOnJ_draw_22{21.899957965531737%{stroke-dashoffset: 2963}42.664985287936105%{ stroke-dashoffset: 0;}100%{ stroke-dashoffset: 0;}}@keyframes UOOKNOnJ_draw_23{22.29928541403951%{stroke-dashoffset: 3029}43.06431273644388%{ stroke-dashoffset: 0;}100%{ stroke-dashoffset: 0;}}@keyframes UOOKNOnJ_draw_24{22.69861286254729%{stroke-dashoffset: 3097}43.463640184951664%{ stroke-dashoffset: 0;}100%{ stroke-dashoffset: 0;}}@keyframes UOOKNOnJ_draw_25{23.097940311055066%{stroke-dashoffset: 3167}43.862967633459434%{ stroke-dashoffset: 0;}100%{ stroke-dashoffset: 0;}}@keyframes UOOKNOnJ_draw_26{23.497267759562842%{stroke-dashoffset: 3239}44.26229508196721%{ stroke-dashoffset: 0;}100%{ stroke-dashoffset: 0;}}</style></svg>
