<svg width="1124" height="746" viewBox="0 0 1124 746" fill="none" xmlns="http://www.w3.org/2000/svg" style="">
<g style="mix-blend-mode:screen" opacity="0.1">
<path opacity="0.2" d="M1730.93 609.724C1798.34 1051.15 1519.04 1113.46 1236.72 840.692C970.732 583.747 706.707 241.736 605.834 637.972C532.411 926.224 222.447 1012.78 102.389 957.338" stroke="#FFBB00" stroke-opacity="0.45" stroke-miterlimit="10" class="IyTMaoHd_0"></path>
<path opacity="0.2" d="M1726.04 591.914C1778.97 892.184 1664.48 1025.23 1506.69 984.411C1425.86 963.531 1332.26 904.934 1238.23 815.181C1194.07 773.362 1149.77 731.213 1106.43 690.573C888.407 485.896 704.352 328.403 620.164 656.876C602.007 727.475 569.709 785.787 527.907 830.629C395.95 971.972 199.49 1021.31 112.216 981.006" stroke="#FFBB00" stroke-opacity="0.45" stroke-miterlimit="10" class="IyTMaoHd_1"></path>
<path opacity="0.3" d="M1721.15 574.114C1782.19 881.093 1661.49 1021 1506.77 968.42C1425.98 941.03 1333.31 877.486 1239.74 789.685C1195.24 748.07 1150.25 708.429 1106.38 670.077C888.631 480.416 718.628 349.973 634.546 675.717C616.106 746.828 583.306 805.107 539.422 847.681C398.927 983.921 205.792 1043.26 122.028 1004.64" stroke="#FFBB00" stroke-opacity="0.45" stroke-miterlimit="10" class="IyTMaoHd_2"></path>
<path opacity="0.3" d="M1716.3 556.431C1785.45 870.112 1658.17 1016.39 1506.88 952.545C1425.87 918.393 1334.32 850.201 1241.28 764.316C1196.32 722.828 1150.79 685.622 1106.3 649.739C888.987 474.859 732.886 371.512 648.84 694.565C630.115 766.187 596.858 824.545 550.963 864.815C401.89 995.848 212.051 1065.32 131.822 1028.24" stroke="#FFBB00" stroke-opacity="0.45" strokeWidth="1.1" stroke-miterlimit="10" class="IyTMaoHd_3"></path>
<path opacity="0.3" d="M1711.4 538.641C1788.65 859.016 1654.66 1011.08 1506.99 936.668C1425.59 895.578 1335.26 822.964 1242.77 738.845C1197.44 697.706 1151.32 662.821 1106.21 629.405C889.497 469.073 747.12 393.013 663.224 713.451C644.127 785.364 610.369 843.689 562.483 881.914C404.677 1007.56 218.317 1087.19 141.592 1051.8" stroke="#FFBB00" stroke-opacity="0.45" strokeWidth="1.1" stroke-miterlimit="10" class="IyTMaoHd_4"></path>
<path opacity="0.3" d="M1706.5 520.848C1791.84 847.912 1650.9 1005.34 1507.04 920.68C1425.21 872.548 1336.18 795.735 1244.24 713.381C1198.51 672.48 1151.83 640.023 1106.1 609.071C890.249 463.275 761.305 414.617 677.47 732.224C658.159 804.612 623.829 862.941 573.935 898.868C407.374 1019.28 224.559 1109.02 151.336 1075.31" stroke="#FFBB00" stroke-opacity="0.45" strokeWidth="1.1" stroke-miterlimit="10" class="IyTMaoHd_5"></path>
<path opacity="0.4" d="M1701.59 503.043C1795.08 836.904 1647.05 998.97 1507.2 904.756C1424.69 849.186 1337.16 768.471 1245.7 687.915C1199.6 647.361 1152.45 617.294 1105.98 588.729C891.22 457.196 775.489 436.023 691.757 750.916C672.091 823.852 637.216 882.04 585.402 915.89C409.955 1030.75 230.743 1130.96 161.045 1098.79" stroke="#FFBB00" stroke-opacity="0.45" strokeWidth="1.1" stroke-miterlimit="10" class="IyTMaoHd_6"></path>
<path opacity="0.4" d="M1696.73 485.332C1798.25 825.768 1643.16 992.067 1507.24 888.748C1424.07 825.599 1338.1 741.349 1247.14 662.443C1200.63 622.125 1153.07 594.409 1105.84 568.375C892.224 450.798 790.147 457.778 706.014 769.56C686.134 842.972 650.457 901.018 596.839 932.869C412.439 1042.21 236.922 1152.7 170.72 1122.21" stroke="#FFBB00" stroke-opacity="0.45" strokeWidth="1.1" stroke-miterlimit="10" class="IyTMaoHd_7"></path>
<path opacity="0.4" d="M1691.81 467.476C1801.43 814.603 1639.29 984.588 1507.31 872.826C1423.53 801.812 1338.91 714.137 1248.61 637.059C1201.69 596.976 1153.67 571.497 1105.69 547.991C893.341 444.28 804.265 479.056 720.162 788.182C700.067 862.072 663.774 920.017 608.262 949.652C414.793 1053.42 243.028 1174.54 180.344 1145.59" stroke="#FFBB00" stroke-opacity="0.45" strokeWidth="1.2" stroke-miterlimit="10" class="IyTMaoHd_8"></path>
<path opacity="0.5" d="M1686.89 449.577C1804.6 803.404 1635.43 976.678 1507.32 856.767C1422.84 777.671 1339.82 686.973 1250.01 611.535C1202.65 571.83 1154.28 548.404 1105.51 527.569C894.509 437.271 818.39 500.368 734.34 806.708C713.89 881.151 677.005 938.85 619.617 966.527C417.131 1064.43 249.11 1196.19 189.916 1168.91" stroke="#FFBB00" stroke-opacity="0.45" strokeWidth="1.2" stroke-miterlimit="10" class="IyTMaoHd_9"></path>
<path opacity="0.5" d="M1681.97 431.625C1807.81 792.277 1631.62 968.444 1507.43 840.749C1422.31 753.282 1340.67 659.666 1251.4 585.973C1203.63 546.498 1154.91 525.378 1105.3 507.1C895.742 430.018 832.433 521.492 748.407 825.209C727.741 900.136 690.15 957.519 630.928 983.352C419.352 1075.44 255.139 1217.8 199.431 1192.19" stroke="#FFBB00" stroke-opacity="0.45" strokeWidth="1.2" stroke-miterlimit="10" class="IyTMaoHd_10"></path>
<path opacity="0.5" d="M1677.09 413.722C1810.97 780.994 1627.95 959.7 1507.46 824.728C1421.79 728.708 1341.47 632.462 1252.76 560.362C1204.62 521.225 1155.43 502.079 1105.07 486.575C896.995 422.405 846.436 542.534 762.502 843.611C741.549 919.062 703.294 976.243 642.149 1000.01C421.435 1086.18 261.085 1239.51 208.886 1215.42" stroke="#FFBB00" stroke-opacity="0.45" strokeWidth="1.2" stroke-miterlimit="10" class="IyTMaoHd_11"></path>
<path opacity="0.6" d="M1672.16 395.643C1814.13 769.666 1624.41 950.848 1507.44 808.557C1421.31 703.799 1342.25 605.211 1254.11 534.699C1205.52 495.933 1156.04 478.796 1104.82 465.991C898.224 414.321 860.332 563.535 776.6 862.065C755.272 937.827 716.281 994.845 653.371 1016.74C423.468 1096.89 267.001 1261.05 218.281 1238.62" stroke="#FFBB00" stroke-opacity="0.45" strokeWidth="1.2" stroke-miterlimit="10" class="IyTMaoHd_12"></path>
<path opacity="0.6" d="M1667.23 377.5C1817.34 758.404 1621.04 941.745 1507.45 792.456C1420.96 678.776 1343.02 577.913 1255.48 509.093C1206.36 470.476 1156.58 455.347 1104.54 445.347C899.406 405.913 874.265 584.431 790.547 880.397C768.931 956.691 729.3 1013.37 664.551 1033.43C425.436 1107.31 272.838 1282.7 227.622 1261.79" stroke="#FFBB00" stroke-opacity="0.45" strokeWidth="1.3" stroke-miterlimit="10" class="IyTMaoHd_13"></path>
<path opacity="0.6" d="M1662.29 359.297C1820.5 746.99 1617.83 932.391 1507.41 776.206C1420.8 653.602 1343.85 550.53 1256.79 483.325C1207.29 445.039 1157.06 431.732 1104.2 424.537C900.516 397.334 888.169 605.266 804.532 898.648C782.627 975.48 742.285 1031.86 675.652 1049.97C427.363 1117.7 278.654 1304.18 236.914 1284.94" stroke="#FFBB00" stroke-opacity="0.45" strokeWidth="1.3" stroke-miterlimit="10" class="IyTMaoHd_14"></path>
<path opacity="0.7" d="M1657.36 341.041C1823.67 735.543 1614.8 923.05 1507.48 759.999C1420.78 628.32 1344.53 523.178 1258.08 457.513C1208.14 419.59 1157.55 407.923 1103.88 403.788C901.543 388.337 901.978 626.091 818.421 916.905C796.182 994.168 755.241 1050.32 686.767 1066.6C429.254 1128.07 284.429 1325.65 246.163 1308.07" stroke="#FFBB00" stroke-opacity="0.45" strokeWidth="1.3" stroke-miterlimit="10" class="IyTMaoHd_15"></path>
<path opacity="0.7" d="M1652.46 322.848C1826.88 724.175 1611.95 913.725 1507.42 743.689C1420.9 602.932 1345.26 495.752 1259.37 431.659C1208.97 394.099 1157.96 384.107 1103.55 382.994C902.417 378.966 915.837 646.843 832.357 935.101C809.828 1012.91 768.13 1068.65 697.857 1083.21C431.025 1138.21 290.144 1347.26 255.377 1331.2" stroke="#FFBB00" stroke-opacity="0.45" strokeWidth="1.3" stroke-miterlimit="10" class="IyTMaoHd_16"></path>
<path opacity="0.7" d="M1647.52 304.508C1830.04 712.674 1609.17 904.347 1507.41 727.466C1421.19 577.552 1345.99 468.294 1260.64 405.77C1209.87 368.536 1158.43 360.219 1103.21 362.165C903.231 369.45 929.611 667.604 846.276 953.281C823.457 1031.64 781.044 1087.09 708.926 1099.8C432.771 1148.34 295.857 1368.72 264.563 1354.32" stroke="#FFBB00" stroke-opacity="0.45" strokeWidth="1.3" stroke-miterlimit="10" class="IyTMaoHd_17"></path>
<path opacity="0.7" d="M1642.58 286.137C1833.21 701.154 1606.57 894.992 1507.35 711.113C1421.5 552.003 1346.71 440.809 1261.96 379.963C1210.69 342.979 1158.8 336.081 1102.86 341.306C903.988 359.795 943.328 688.238 860.111 971.486C836.957 1050.28 793.899 1105.4 720.007 1116.25C434.568 1158.43 301.592 1390.29 273.727 1377.44" stroke="#FFBB00" stroke-opacity="0.45" strokeWidth="1.3" stroke-miterlimit="10" class="IyTMaoHd_18"></path>
<path opacity="0.8" d="M1637.64 267.738C1836.43 689.729 1604.13 885.811 1507.33 694.856C1422.04 526.581 1347.41 413.445 1263.22 354.02C1211.5 317.395 1159.13 312.063 1102.5 320.421C904.533 349.822 957.151 708.934 874.008 989.652C850.562 1069 806.814 1123.68 731.049 1132.84C436.374 1168.37 307.194 1411.8 282.872 1400.57" stroke="#FFBB00" stroke-opacity="0.45" strokeWidth="1.4" stroke-miterlimit="10" class="IyTMaoHd_19"></path>
<path opacity="0.8" d="M1632.74 249.428C1839.6 678.182 1601.83 876.549 1507.38 678.548C1422.72 501.068 1348.12 385.915 1264.48 328.056C1212.36 291.9 1159.38 287.803 1102.14 299.515C904.955 339.758 970.395 729.255 887.87 1007.96C863.93 1087.57 819.651 1142 742.082 1149.43C438.097 1178.34 312.853 1433.27 292.003 1423.71" stroke="#FFBB00" stroke-opacity="0.45" strokeWidth="1.4" stroke-miterlimit="10" class="IyTMaoHd_20"></path>
<path opacity="0.8" d="M1628.32 231.097C1843.36 667 1600.12 867.999 1507.78 662.528C1423.89 475.905 1349.23 358.697 1266.13 302.222C1213.54 266.402 1159.98 263.65 1102.11 278.725C905.602 329.732 984.504 750.364 902.018 1026.72C877.777 1106.93 832.792 1160.95 753.277 1166.6C439.944 1188.86 318.538 1455.76 301.181 1447.7" stroke="#FFBB00" stroke-opacity="0.45" strokeWidth="1.4" stroke-miterlimit="10" class="IyTMaoHd_21"></path>
<path opacity="0.9" d="M1624.06 212.778C1847.35 656.028 1598.64 859.549 1508.38 646.707C1425.38 450.823 1350.48 331.498 1267.91 276.4C1214.77 240.945 1160.69 239.503 1102.19 257.949C906.103 319.6 998.715 771.639 916.19 1045.72C891.671 1126.4 845.947 1180.18 764.591 1184.1C441.822 1199.61 324.27 1478.38 310.381 1471.98" stroke="#FFBB00" stroke-opacity="0.45" strokeWidth="1.4" stroke-miterlimit="10" class="IyTMaoHd_22"></path>
<path opacity="0.9" d="M1619.78 194.438C1851.3 644.919 1597.23 851.29 1508.93 630.742C1426.91 425.808 1351.72 304.257 1269.73 250.651C1216.11 215.529 1161.35 215.215 1102.26 237.148C906.598 309.459 1012.86 792.976 930.439 1064.69C905.546 1146.03 859.18 1199.38 775.911 1201.6C443.655 1210.23 330.049 1501.12 319.588 1496.27" stroke="#FFBB00" stroke-opacity="0.45" strokeWidth="1.4" stroke-miterlimit="10" class="IyTMaoHd_23"></path>
<path opacity="0.9" d="M1615.53 176.191C1855.23 633.787 1595.97 843.188 1509.58 614.82C1428.51 400.72 1353.02 276.945 1271.57 224.724C1217.4 189.973 1161.94 190.935 1102.33 216.323C906.903 299.272 1027.09 814.302 944.697 1083.68C919.499 1165.63 872.351 1218.61 787.193 1219C445.557 1220.81 335.718 1523.78 328.802 1520.55" stroke="#FFBB00" stroke-opacity="0.45" strokeWidth="1.5" stroke-miterlimit="10" class="IyTMaoHd_24"></path>
<path d="M1611.22 157.819C1859.2 622.744 1594.7 835.062 1510.11 598.797C1430.21 375.672 1354.14 249.818 1273.32 198.805C1218.7 164.647 1162.51 166.631 1102.38 195.479C907.087 289.005 1041.32 835.654 958.893 1102.72C933.417 1185.13 885.582 1237.56 798.526 1236.51C447.292 1230.54 341.463 1546.4 338.025 1544.85" stroke="#FFBB00" stroke-opacity="0.45" strokeWidth="1.5" stroke-miterlimit="10" class="IyTMaoHd_25"></path>
<path d="M1606.89 139.43C1863.12 611.569 1593.46 827.021 1510.68 582.855C1377.97 191.594 1251.56 95.0478 1102.39 174.503C845.935 311.257 1182.36 1266.47 809.865 1254.03C449.362 1241.95 347.255 1569.14 347.255 1569.14" stroke="#FFBB00" stroke-opacity="0.45" strokeWidth="1.5" stroke-miterlimit="10" class="IyTMaoHd_26"></path>
</g>
<style data-made-with="vivus-instant">.IyTMaoHd_0{stroke-dasharray:2401 2403;stroke-dashoffset:2402;animation:IyTMaoHd_draw_0 6100ms linear 0ms infinite,IyTMaoHd_fade 6100ms linear 0ms infinite;}.IyTMaoHd_1{stroke-dasharray:2385 2387;stroke-dashoffset:2386;animation:IyTMaoHd_draw_1 6100ms linear 0ms infinite,IyTMaoHd_fade 6100ms linear 0ms infinite;}.IyTMaoHd_2{stroke-dasharray:2372 2374;stroke-dashoffset:2373;animation:IyTMaoHd_draw_2 6100ms linear 0ms infinite,IyTMaoHd_fade 6100ms linear 0ms infinite;}.IyTMaoHd_3{stroke-dasharray:2363 2365;stroke-dashoffset:2364;animation:IyTMaoHd_draw_3 6100ms linear 0ms infinite,IyTMaoHd_fade 6100ms linear 0ms infinite;}.IyTMaoHd_4{stroke-dasharray:2356 2358;stroke-dashoffset:2357;animation:IyTMaoHd_draw_4 6100ms linear 0ms infinite,IyTMaoHd_fade 6100ms linear 0ms infinite;}.IyTMaoHd_5{stroke-dasharray:2354 2356;stroke-dashoffset:2355;animation:IyTMaoHd_draw_5 6100ms linear 0ms infinite,IyTMaoHd_fade 6100ms linear 0ms infinite;}.IyTMaoHd_6{stroke-dasharray:2355 2357;stroke-dashoffset:2356;animation:IyTMaoHd_draw_6 6100ms linear 0ms infinite,IyTMaoHd_fade 6100ms linear 0ms infinite;}.IyTMaoHd_7{stroke-dasharray:2361 2363;stroke-dashoffset:2362;animation:IyTMaoHd_draw_7 6100ms linear 0ms infinite,IyTMaoHd_fade 6100ms linear 0ms infinite;}.IyTMaoHd_8{stroke-dasharray:2371 2373;stroke-dashoffset:2372;animation:IyTMaoHd_draw_8 6100ms linear 0ms infinite,IyTMaoHd_fade 6100ms linear 0ms infinite;}.IyTMaoHd_9{stroke-dasharray:2386 2388;stroke-dashoffset:2387;animation:IyTMaoHd_draw_9 6100ms linear 0ms infinite,IyTMaoHd_fade 6100ms linear 0ms infinite;}.IyTMaoHd_10{stroke-dasharray:2406 2408;stroke-dashoffset:2407;animation:IyTMaoHd_draw_10 6100ms linear 0ms infinite,IyTMaoHd_fade 6100ms linear 0ms infinite;}.IyTMaoHd_11{stroke-dasharray:2431 2433;stroke-dashoffset:2432;animation:IyTMaoHd_draw_11 6100ms linear 0ms infinite,IyTMaoHd_fade 6100ms linear 0ms infinite;}.IyTMaoHd_12{stroke-dasharray:2460 2462;stroke-dashoffset:2461;animation:IyTMaoHd_draw_12 6100ms linear 0ms infinite,IyTMaoHd_fade 6100ms linear 0ms infinite;}.IyTMaoHd_13{stroke-dasharray:2494 2496;stroke-dashoffset:2495;animation:IyTMaoHd_draw_13 6100ms linear 0ms infinite,IyTMaoHd_fade 6100ms linear 0ms infinite;}.IyTMaoHd_14{stroke-dasharray:2533 2535;stroke-dashoffset:2534;animation:IyTMaoHd_draw_14 6100ms linear 0ms infinite,IyTMaoHd_fade 6100ms linear 0ms infinite;}.IyTMaoHd_15{stroke-dasharray:2575 2577;stroke-dashoffset:2576;animation:IyTMaoHd_draw_15 6100ms linear 0ms infinite,IyTMaoHd_fade 6100ms linear 0ms infinite;}.IyTMaoHd_16{stroke-dasharray:2621 2623;stroke-dashoffset:2622;animation:IyTMaoHd_draw_16 6100ms linear 0ms infinite,IyTMaoHd_fade 6100ms linear 0ms infinite;}.IyTMaoHd_17{stroke-dasharray:2670 2672;stroke-dashoffset:2671;animation:IyTMaoHd_draw_17 6100ms linear 0ms infinite,IyTMaoHd_fade 6100ms linear 0ms infinite;}.IyTMaoHd_18{stroke-dasharray:2723 2725;stroke-dashoffset:2724;animation:IyTMaoHd_draw_18 6100ms linear 0ms infinite,IyTMaoHd_fade 6100ms linear 0ms infinite;}.IyTMaoHd_19{stroke-dasharray:2778 2780;stroke-dashoffset:2779;animation:IyTMaoHd_draw_19 6100ms linear 0ms infinite,IyTMaoHd_fade 6100ms linear 0ms infinite;}.IyTMaoHd_20{stroke-dasharray:2836 2838;stroke-dashoffset:2837;animation:IyTMaoHd_draw_20 6100ms linear 0ms infinite,IyTMaoHd_fade 6100ms linear 0ms infinite;}.IyTMaoHd_21{stroke-dasharray:2898 2900;stroke-dashoffset:2899;animation:IyTMaoHd_draw_21 6100ms linear 0ms infinite,IyTMaoHd_fade 6100ms linear 0ms infinite;}.IyTMaoHd_22{stroke-dasharray:2962 2964;stroke-dashoffset:2963;animation:IyTMaoHd_draw_22 6100ms linear 0ms infinite,IyTMaoHd_fade 6100ms linear 0ms infinite;}.IyTMaoHd_23{stroke-dasharray:3028 3030;stroke-dashoffset:3029;animation:IyTMaoHd_draw_23 6100ms linear 0ms infinite,IyTMaoHd_fade 6100ms linear 0ms infinite;}.IyTMaoHd_24{stroke-dasharray:3096 3098;stroke-dashoffset:3097;animation:IyTMaoHd_draw_24 6100ms linear 0ms infinite,IyTMaoHd_fade 6100ms linear 0ms infinite;}.IyTMaoHd_25{stroke-dasharray:3166 3168;stroke-dashoffset:3167;animation:IyTMaoHd_draw_25 6100ms linear 0ms infinite,IyTMaoHd_fade 6100ms linear 0ms infinite;}.IyTMaoHd_26{stroke-dasharray:3238 3240;stroke-dashoffset:3239;animation:IyTMaoHd_draw_26 6100ms linear 0ms infinite,IyTMaoHd_fade 6100ms linear 0ms infinite;}@keyframes IyTMaoHd_draw{100%{stroke-dashoffset:0;}}@keyframes IyTMaoHd_fade{0%{stroke-opacity:1;}93.44262295081967%{stroke-opacity:1;}100%{stroke-opacity:0;}}@keyframes IyTMaoHd_draw_0{13.114754098360656%{stroke-dashoffset: 2402}33.87978142076503%{ stroke-dashoffset: 0;}100%{ stroke-dashoffset: 0;}}@keyframes IyTMaoHd_draw_1{13.51408154686843%{stroke-dashoffset: 2386}34.2791088692728%{ stroke-dashoffset: 0;}100%{ stroke-dashoffset: 0;}}@keyframes IyTMaoHd_draw_2{13.913408995376209%{stroke-dashoffset: 2373}34.67843631778057%{ stroke-dashoffset: 0;}100%{ stroke-dashoffset: 0;}}@keyframes IyTMaoHd_draw_3{14.312736443883987%{stroke-dashoffset: 2364}35.077763766288356%{ stroke-dashoffset: 0;}100%{ stroke-dashoffset: 0;}}@keyframes IyTMaoHd_draw_4{14.712063892391761%{stroke-dashoffset: 2357}35.47709121479613%{ stroke-dashoffset: 0;}100%{ stroke-dashoffset: 0;}}@keyframes IyTMaoHd_draw_5{15.111391340899537%{stroke-dashoffset: 2355}35.8764186633039%{ stroke-dashoffset: 0;}100%{ stroke-dashoffset: 0;}}@keyframes IyTMaoHd_draw_6{15.510718789407315%{stroke-dashoffset: 2356}36.275746111811685%{ stroke-dashoffset: 0;}100%{ stroke-dashoffset: 0;}}@keyframes IyTMaoHd_draw_7{15.91004623791509%{stroke-dashoffset: 2362}36.67507356031947%{ stroke-dashoffset: 0;}100%{ stroke-dashoffset: 0;}}@keyframes IyTMaoHd_draw_8{16.309373686422866%{stroke-dashoffset: 2372}37.07440100882724%{ stroke-dashoffset: 0;}100%{ stroke-dashoffset: 0;}}@keyframes IyTMaoHd_draw_9{16.708701134930646%{stroke-dashoffset: 2387}37.47372845733501%{ stroke-dashoffset: 0;}100%{ stroke-dashoffset: 0;}}@keyframes IyTMaoHd_draw_10{17.10802858343842%{stroke-dashoffset: 2407}37.87305590584279%{ stroke-dashoffset: 0;}100%{ stroke-dashoffset: 0;}}@keyframes IyTMaoHd_draw_11{17.5073560319462%{stroke-dashoffset: 2432}38.272383354350566%{ stroke-dashoffset: 0;}100%{ stroke-dashoffset: 0;}}@keyframes IyTMaoHd_draw_12{17.90668348045397%{stroke-dashoffset: 2461}38.67171080285834%{ stroke-dashoffset: 0;}100%{ stroke-dashoffset: 0;}}@keyframes IyTMaoHd_draw_13{18.30601092896175%{stroke-dashoffset: 2495}39.07103825136611%{ stroke-dashoffset: 0;}100%{ stroke-dashoffset: 0;}}@keyframes IyTMaoHd_draw_14{18.705338377469527%{stroke-dashoffset: 2534}39.470365699873895%{ stroke-dashoffset: 0;}100%{ stroke-dashoffset: 0;}}@keyframes IyTMaoHd_draw_15{19.104665825977303%{stroke-dashoffset: 2576}39.86969314838167%{ stroke-dashoffset: 0;}100%{ stroke-dashoffset: 0;}}@keyframes IyTMaoHd_draw_16{19.50399327448508%{stroke-dashoffset: 2622}40.26902059688945%{ stroke-dashoffset: 0;}100%{ stroke-dashoffset: 0;}}@keyframes IyTMaoHd_draw_17{19.903320722992856%{stroke-dashoffset: 2671}40.668348045397224%{ stroke-dashoffset: 0;}100%{ stroke-dashoffset: 0;}}@keyframes IyTMaoHd_draw_18{20.302648171500632%{stroke-dashoffset: 2724}41.06767549390501%{ stroke-dashoffset: 0;}100%{ stroke-dashoffset: 0;}}@keyframes IyTMaoHd_draw_19{20.701975620008408%{stroke-dashoffset: 2779}41.46700294241278%{ stroke-dashoffset: 0;}100%{ stroke-dashoffset: 0;}}@keyframes IyTMaoHd_draw_20{21.101303068516188%{stroke-dashoffset: 2837}41.86633039092055%{ stroke-dashoffset: 0;}100%{ stroke-dashoffset: 0;}}@keyframes IyTMaoHd_draw_21{21.50063051702396%{stroke-dashoffset: 2899}42.26565783942833%{ stroke-dashoffset: 0;}100%{ stroke-dashoffset: 0;}}@keyframes IyTMaoHd_draw_22{21.899957965531737%{stroke-dashoffset: 2963}42.664985287936105%{ stroke-dashoffset: 0;}100%{ stroke-dashoffset: 0;}}@keyframes IyTMaoHd_draw_23{22.29928541403951%{stroke-dashoffset: 3029}43.06431273644388%{ stroke-dashoffset: 0;}100%{ stroke-dashoffset: 0;}}@keyframes IyTMaoHd_draw_24{22.69861286254729%{stroke-dashoffset: 3097}43.463640184951664%{ stroke-dashoffset: 0;}100%{ stroke-dashoffset: 0;}}@keyframes IyTMaoHd_draw_25{23.097940311055066%{stroke-dashoffset: 3167}43.862967633459434%{ stroke-dashoffset: 0;}100%{ stroke-dashoffset: 0;}}@keyframes IyTMaoHd_draw_26{23.497267759562842%{stroke-dashoffset: 3239}44.26229508196721%{ stroke-dashoffset: 0;}100%{ stroke-dashoffset: 0;}}</style></svg>
