<svg width="735" height="746" viewBox="0 0 735 746" fill="none" xmlns="http://www.w3.org/2000/svg" style="">
<g style="mix-blend-mode:screen" opacity="0.1">
<path opacity="0.2" d="M106.48 -644.982C-321.939 -770.928 -421.107 -502.495 -188.621 -186.172C30.3709 111.844 333.924 419.311 -72.2549 466.187C-367.745 500.328 -495.049 795.901 -456.193 922.304" stroke="#FFBB00" stroke-opacity="0.45" stroke-miterlimit="10" class="OhXyrqZO_0"></path>
<path opacity="0.2" d="M123.475 -637.749C-166.997 -730.433 -314.187 -634.796 -294.873 -472.961C-285.01 -390.062 -239.483 -289.453 -163.136 -184.253C-127.612 -134.885 -91.7774 -85.3417 -57.311 -36.9386C116.31 206.537 247.724 410.034 -89.0681 449.454C-161.463 457.988 -223.576 482.182 -273.615 517.599C-431.363 629.429 -506.581 817.507 -478.33 909.394" stroke="#FFBB00" stroke-opacity="0.45" stroke-miterlimit="10" class="OhXyrqZO_1"></path>
<path opacity="0.3" d="M140.459 -630.516C-155.574 -732.136 -310.393 -631.265 -279.016 -470.895C-262.696 -387.17 -212.142 -286.816 -137.669 -182.329C-102.391 -132.652 -69.1352 -82.7608 -37.0071 -34.1464C121.771 207.049 228.26 392.996 -105.812 432.676C-178.753 441.423 -240.901 466.119 -288.97 503.904C-442.806 624.879 -527.483 808.322 -500.437 896.504" stroke="#FFBB00" stroke-opacity="0.45" stroke-miterlimit="10" class="OhXyrqZO_2"></path>
<path opacity="0.3" d="M157.332 -623.341C-144.257 -733.892 -306.27 -627.366 -263.268 -468.884C-240.278 -384.026 -184.967 -284.167 -112.322 -180.457C-77.2315 -130.348 -46.461 -80.2389 -16.8628 -31.3414C127.325 207.441 208.826 375.982 -122.575 415.987C-196.061 424.947 -258.348 450.085 -304.403 490.171C-454.228 620.344 -548.504 799.164 -522.511 883.638" stroke="#FFBB00" stroke-opacity="0.45" strokeWidth="1.1" stroke-miterlimit="10" class="OhXyrqZO_3"></path>
<path opacity="0.3" d="M174.305 -616.103C-132.831 -735.579 -301.472 -623.173 -247.521 -466.863C-217.707 -380.691 -157.85 -281.443 -86.8819 -178.516C-52.1859 -128.091 -23.7951 -77.7062 3.27561 -28.5253C133.127 207.711 189.426 358.994 -139.363 399.202C-213.187 408.492 -275.509 434.131 -319.805 476.464C-465.462 616.013 -569.34 790.024 -544.548 870.799" stroke="#FFBB00" stroke-opacity="0.45" strokeWidth="1.1" stroke-miterlimit="10" class="OhXyrqZO_4"></path>
<path opacity="0.3" d="M191.281 -608.861C-121.399 -737.256 -296.295 -618.673 -231.668 -464.774C-194.935 -377.229 -130.743 -278.71 -61.4498 -176.564C-27.0445 -125.765 -1.13393 -75.1615 23.4118 -25.697C138.974 207.743 169.917 342.043 -156.059 382.569C-230.382 392.008 -292.784 418.213 -335.072 462.844C-476.715 611.771 -590.139 780.914 -566.547 857.993" stroke="#FFBB00" stroke-opacity="0.45" strokeWidth="1.1" stroke-miterlimit="10" class="OhXyrqZO_5"></path>
<path opacity="0.4" d="M208.268 -601.614C-110.057 -738.984 -290.496 -614.005 -215.867 -462.8C-171.854 -373.582 -103.593 -276.029 -36.0178 -174.598C-2.00554 -123.483 21.4728 -72.7254 43.5542 -22.853C145.128 207.594 150.605 325.119 -172.668 365.906C-247.581 375.624 -309.917 402.388 -350.405 449.2C-487.731 607.676 -611.049 771.846 -588.506 845.226" stroke="#FFBB00" stroke-opacity="0.45" strokeWidth="1.1" stroke-miterlimit="10" class="OhXyrqZO_6"></path>
<path opacity="0.4" d="M225.167 -594.418C-98.596 -740.644 -284.176 -609.224 -199.998 -460.689C-148.563 -369.806 -76.5902 -273.328 -10.582 -172.616C23.1412 -121.125 44.2353 -70.2782 63.7068 -19.9908C151.603 207.457 131.01 307.679 -189.234 349.28C-264.647 359.145 -326.95 386.723 -365.698 435.591C-498.761 603.679 -631.77 762.81 -610.424 832.5" stroke="#FFBB00" stroke-opacity="0.45" strokeWidth="1.1" stroke-miterlimit="10" class="OhXyrqZO_7"></path>
<path opacity="0.4" d="M242.204 -587.155C-87.1068 -742.292 -277.282 -604.393 -184.211 -458.622C-125.062 -366.085 -49.5147 -270.485 14.7699 -170.67C48.2055 -118.803 67.0212 -67.8063 83.886 -17.1028C158.212 207.223 111.815 290.838 -205.793 332.765C-281.709 342.779 -343.993 370.982 -380.799 422.023C-509.548 599.844 -652.598 753.833 -632.298 819.831" stroke="#FFBB00" stroke-opacity="0.45" strokeWidth="1.2" stroke-miterlimit="10" class="OhXyrqZO_8"></path>
<path opacity="0.5" d="M259.283 -579.882C-75.5841 -743.932 -269.96 -599.507 -168.295 -456.482C-101.231 -362.172 -22.4738 -267.744 40.2522 -168.643C73.2538 -116.391 89.9873 -65.3151 104.1 -14.1875C165.314 207.005 92.5871 273.984 -222.251 316.233C-298.763 326.525 -360.883 355.346 -396 408.509C-520.15 596.051 -673.238 744.904 -654.13 807.22" stroke="#FFBB00" stroke-opacity="0.45" strokeWidth="1.2" stroke-miterlimit="10" class="OhXyrqZO_9"></path>
<path opacity="0.5" d="M276.414 -572.6C-64.1265 -745.623 -262.312 -594.625 -152.407 -454.45C-77.1327 -358.378 4.70024 -264.925 65.7696 -166.591C98.4875 -113.959 112.89 -62.8547 124.357 -11.243C172.667 206.755 73.5354 257.237 -238.701 299.813C-315.721 310.254 -377.624 339.819 -411.158 395.045C-530.762 592.375 -693.843 736.034 -675.925 794.672" stroke="#FFBB00" stroke-opacity="0.45" strokeWidth="1.2" stroke-miterlimit="10" class="OhXyrqZO_10"></path>
<path opacity="0.5" d="M293.501 -565.363C-52.5221 -747.245 -254.139 -589.815 -136.526 -452.334C-52.8499 -354.569 31.766 -262.075 91.3316 -164.511C123.665 -111.556 136.048 -60.2451 144.665 -8.26469C180.379 206.533 54.5587 240.541 -255.049 283.381C-332.627 294.035 -394.418 324.284 -426.167 381.693C-541.132 588.872 -714.562 727.233 -697.684 782.19" stroke="#FFBB00" stroke-opacity="0.45" strokeWidth="1.2" stroke-miterlimit="10" class="OhXyrqZO_11"></path>
<path opacity="0.6" d="M310.756 -558.056C-40.8722 -748.861 -245.84 -585.125 -120.504 -450.145C-28.2304 -350.755 58.8767 -259.202 116.943 -162.404C148.85 -109.06 159.203 -57.7292 165.031 -5.25466C188.555 206.398 35.6092 223.957 -271.448 266.936C-349.384 277.922 -411.111 308.922 -441.238 368.332C-551.471 585.423 -735.107 718.485 -719.414 769.77" stroke="#FFBB00" stroke-opacity="0.45" strokeWidth="1.2" stroke-miterlimit="10" class="OhXyrqZO_12"></path>
<path opacity="0.6" d="M328.075 -550.738C-29.2819 -750.531 -237.271 -580.563 -104.546 -448C-3.48004 -347.053 86.0327 -256.308 142.502 -160.331C174.19 -106.478 182.514 -55.1261 185.451 -2.21418C197.045 206.354 16.7687 207.35 -287.745 250.659C-366.248 261.859 -427.724 293.539 -456.275 355.016C-561.533 582.076 -755.78 709.801 -741.123 757.41" stroke="#FFBB00" stroke-opacity="0.45" strokeWidth="1.3" stroke-miterlimit="10" class="OhXyrqZO_13"></path>
<path opacity="0.6" d="M345.453 -543.409C-17.5475 -752.135 -228.432 -576.127 -88.4484 -445.781C21.4464 -343.529 113.279 -253.459 168.213 -158.176C199.523 -103.995 205.98 -52.4382 206.028 0.912756C205.696 206.402 -2.016 190.78 -303.958 234.355C-383.033 245.768 -444.305 278.194 -471.18 341.799C-571.572 578.775 -776.289 701.159 -762.815 745.101" stroke="#FFBB00" stroke-opacity="0.45" strokeWidth="1.3" stroke-miterlimit="10" class="OhXyrqZO_14"></path>
<path opacity="0.7" d="M362.883 -536.072C-5.77949 -753.738 -219.581 -571.873 -72.3781 -443.676C46.4982 -340.122 140.475 -250.464 193.967 -156.003C224.856 -101.427 229.64 -49.7349 226.548 4.00444C214.749 206.591 -20.8031 174.305 -320.19 218.146C-399.736 229.832 -460.865 262.881 -486.169 328.557C-581.597 575.511 -796.793 692.559 -784.5 732.835" stroke="#FFBB00" stroke-opacity="0.45" strokeWidth="1.3" stroke-miterlimit="10" class="OhXyrqZO_15"></path>
<path opacity="0.7" d="M380.256 -528.785C5.91563 -755.396 -210.721 -567.802 -56.2225 -441.439C71.673 -336.833 167.752 -247.52 219.76 -153.813C250.229 -98.8414 253.296 -46.9478 247.109 7.11629C224.153 206.98 -39.5109 157.79 -336.355 201.897C-416.48 213.798 -477.308 247.652 -501.144 315.342C-591.406 572.398 -817.442 684.001 -806.182 720.606" stroke="#FFBB00" stroke-opacity="0.45" strokeWidth="1.3" stroke-miterlimit="10" class="OhXyrqZO_16"></path>
<path opacity="0.7" d="M397.769 -521.433C17.7369 -756.994 -201.8 -563.79 -40.1475 -439.251C96.8622 -333.722 195.06 -244.564 245.586 -151.609C275.682 -96.305 277.031 -44.2094 267.705 10.2454C233.692 207.448 -58.24 141.36 -352.506 185.668C-433.212 197.783 -493.844 232.385 -516.11 302.148C-601.208 569.31 -837.945 675.464 -827.865 708.405" stroke="#FFBB00" stroke-opacity="0.45" strokeWidth="1.3" stroke-miterlimit="10" class="OhXyrqZO_17"></path>
<path opacity="0.7" d="M415.313 -514.075C29.5778 -758.59 -192.878 -559.962 -23.9508 -436.998C122.223 -330.609 222.395 -241.598 271.336 -149.452C301.118 -93.6919 301.001 -41.3413 288.329 13.3881C243.362 207.991 -76.8496 125.002 -368.693 169.518C-449.88 181.907 -510.272 217.191 -530.923 288.964C-610.963 566.179 -858.554 666.89 -849.552 696.226" stroke="#FFBB00" stroke-opacity="0.45" strokeWidth="1.3" stroke-miterlimit="10" class="OhXyrqZO_18"></path>
<path opacity="0.8" d="M432.883 -506.714C41.3306 -760.247 -184.107 -556.315 -7.84245 -434.802C147.488 -327.738 249.605 -238.619 297.214 -147.23C326.58 -91.0707 324.847 -38.4579 308.977 16.5403C253.317 208.787 -95.5072 108.529 -384.833 153.313C-466.606 165.916 -526.657 201.943 -545.887 275.798C-620.572 563.057 -879.116 658.457 -871.249 684.064" stroke="#FFBB00" stroke-opacity="0.45" strokeWidth="1.4" stroke-miterlimit="10" class="OhXyrqZO_19"></path>
<path opacity="0.8" d="M450.372 -499.407C53.1994 -761.844 -175.236 -552.795 8.32479 -432.665C172.862 -324.991 276.983 -235.64 323.113 -144.999C351.96 -88.4993 348.921 -35.4483 329.646 19.7023C263.348 209.717 -113.87 92.6828 -401.119 137.123C-483.216 150.181 -543.088 186.769 -560.85 262.642C-630.226 560.013 -899.64 649.972 -892.953 671.916" stroke="#FFBB00" stroke-opacity="0.45" strokeWidth="1.4" stroke-miterlimit="10" class="OhXyrqZO_20"></path>
<path opacity="0.8" d="M467.945 -492.567C64.7837 -764.071 -166.992 -549.953 24.2552 -430.92C197.954 -322.776 304.104 -233.093 348.936 -143.176C377.387 -86.2556 372.937 -32.8063 350.246 22.5154C273.369 210.421 -132.899 75.8736 -417.811 120.59C-500.546 133.865 -560.114 171.206 -576.358 249.248C-640.405 556.773 -921.159 641.326 -915.5 659.606" stroke="#FFBB00" stroke-opacity="0.45" strokeWidth="1.4" stroke-miterlimit="10" class="OhXyrqZO_21"></path>
<path opacity="0.9" d="M485.528 -485.886C76.1928 -766.559 -158.818 -547.351 40.014 -429.395C223.011 -320.897 331.225 -230.683 374.764 -141.479C402.779 -84.0665 396.962 -30.278 370.845 25.2207C283.477 211.281 -152.077 58.9394 -434.742 104C-517.983 117.488 -577.403 155.594 -592.187 235.691C-650.8 553.472 -942.811 632.614 -938.329 647.235" stroke="#FFBB00" stroke-opacity="0.45" strokeWidth="1.4" stroke-miterlimit="10" class="OhXyrqZO_22"></path>
<path opacity="0.9" d="M503.129 -479.188C87.7291 -768.977 -150.822 -544.851 55.9078 -427.798C248.005 -319.063 358.385 -228.259 400.523 -139.829C428.145 -81.9896 421.119 -27.6795 391.468 27.9374C293.594 212.149 -171.326 42.0604 -451.638 87.3364C-535.576 101.108 -594.653 139.908 -608.018 222.128C-661.084 550.233 -964.567 623.841 -961.162 634.858" stroke="#FFBB00" stroke-opacity="0.45" strokeWidth="1.4" stroke-miterlimit="10" class="OhXyrqZO_23"></path>
<path opacity="0.9" d="M520.643 -472.532C99.2882 -771.385 -142.961 -542.518 71.7737 -426.312C273.081 -317.281 385.626 -225.889 426.463 -138.175C453.644 -79.8438 445.259 -25.0057 412.114 30.6638C303.73 213.212 -190.555 25.1055 -468.544 70.6631C-553.131 84.6539 -611.952 124.279 -623.748 208.617C-671.313 546.93 -986.264 615.187 -983.996 622.472" stroke="#FFBB00" stroke-opacity="0.45" strokeWidth="1.5" stroke-miterlimit="10" class="OhXyrqZO_24"></path>
<path d="M538.272 -465.8C110.763 -773.839 -135.078 -540.17 87.7235 -424.689C298.132 -315.611 412.659 -223.37 452.384 -136.445C478.916 -77.7399 469.421 -22.3215 432.778 33.4001C313.929 214.406 -209.807 8.14051 -485.505 54.0456C-570.59 68.2494 -628.96 108.629 -639.583 195.04C-680.721 543.908 -1007.92 606.463 -1006.83 610.079" stroke="#FFBB00" stroke-opacity="0.45" strokeWidth="1.5" stroke-miterlimit="10" class="OhXyrqZO_25"></path>
<path d="M555.915 -459.051C122.362 -776.225 -127.276 -537.868 103.597 -423.112C473.551 -239.186 552.29 -100.977 453.565 36.2049C283.684 272.024 -617.844 -189.347 -655.419 181.456C-691.746 540.328 -1029.67 597.677 -1029.67 597.677" stroke="#FFBB00" stroke-opacity="0.45" strokeWidth="1.5" stroke-miterlimit="10" class="OhXyrqZO_26"></path>
</g>
<style data-made-with="vivus-instant">.OhXyrqZO_0{stroke-dasharray:2401 2403;stroke-dashoffset:2402;animation:OhXyrqZO_draw_0 6100ms linear 0ms infinite,OhXyrqZO_fade 6100ms linear 0ms infinite;}.OhXyrqZO_1{stroke-dasharray:2385 2387;stroke-dashoffset:2386;animation:OhXyrqZO_draw_1 6100ms linear 0ms infinite,OhXyrqZO_fade 6100ms linear 0ms infinite;}.OhXyrqZO_2{stroke-dasharray:2372 2374;stroke-dashoffset:2373;animation:OhXyrqZO_draw_2 6100ms linear 0ms infinite,OhXyrqZO_fade 6100ms linear 0ms infinite;}.OhXyrqZO_3{stroke-dasharray:2363 2365;stroke-dashoffset:2364;animation:OhXyrqZO_draw_3 6100ms linear 0ms infinite,OhXyrqZO_fade 6100ms linear 0ms infinite;}.OhXyrqZO_4{stroke-dasharray:2356 2358;stroke-dashoffset:2357;animation:OhXyrqZO_draw_4 6100ms linear 0ms infinite,OhXyrqZO_fade 6100ms linear 0ms infinite;}.OhXyrqZO_5{stroke-dasharray:2354 2356;stroke-dashoffset:2355;animation:OhXyrqZO_draw_5 6100ms linear 0ms infinite,OhXyrqZO_fade 6100ms linear 0ms infinite;}.OhXyrqZO_6{stroke-dasharray:2355 2357;stroke-dashoffset:2356;animation:OhXyrqZO_draw_6 6100ms linear 0ms infinite,OhXyrqZO_fade 6100ms linear 0ms infinite;}.OhXyrqZO_7{stroke-dasharray:2361 2363;stroke-dashoffset:2362;animation:OhXyrqZO_draw_7 6100ms linear 0ms infinite,OhXyrqZO_fade 6100ms linear 0ms infinite;}.OhXyrqZO_8{stroke-dasharray:2371 2373;stroke-dashoffset:2372;animation:OhXyrqZO_draw_8 6100ms linear 0ms infinite,OhXyrqZO_fade 6100ms linear 0ms infinite;}.OhXyrqZO_9{stroke-dasharray:2386 2388;stroke-dashoffset:2387;animation:OhXyrqZO_draw_9 6100ms linear 0ms infinite,OhXyrqZO_fade 6100ms linear 0ms infinite;}.OhXyrqZO_10{stroke-dasharray:2406 2408;stroke-dashoffset:2407;animation:OhXyrqZO_draw_10 6100ms linear 0ms infinite,OhXyrqZO_fade 6100ms linear 0ms infinite;}.OhXyrqZO_11{stroke-dasharray:2431 2433;stroke-dashoffset:2432;animation:OhXyrqZO_draw_11 6100ms linear 0ms infinite,OhXyrqZO_fade 6100ms linear 0ms infinite;}.OhXyrqZO_12{stroke-dasharray:2460 2462;stroke-dashoffset:2461;animation:OhXyrqZO_draw_12 6100ms linear 0ms infinite,OhXyrqZO_fade 6100ms linear 0ms infinite;}.OhXyrqZO_13{stroke-dasharray:2494 2496;stroke-dashoffset:2495;animation:OhXyrqZO_draw_13 6100ms linear 0ms infinite,OhXyrqZO_fade 6100ms linear 0ms infinite;}.OhXyrqZO_14{stroke-dasharray:2533 2535;stroke-dashoffset:2534;animation:OhXyrqZO_draw_14 6100ms linear 0ms infinite,OhXyrqZO_fade 6100ms linear 0ms infinite;}.OhXyrqZO_15{stroke-dasharray:2575 2577;stroke-dashoffset:2576;animation:OhXyrqZO_draw_15 6100ms linear 0ms infinite,OhXyrqZO_fade 6100ms linear 0ms infinite;}.OhXyrqZO_16{stroke-dasharray:2621 2623;stroke-dashoffset:2622;animation:OhXyrqZO_draw_16 6100ms linear 0ms infinite,OhXyrqZO_fade 6100ms linear 0ms infinite;}.OhXyrqZO_17{stroke-dasharray:2670 2672;stroke-dashoffset:2671;animation:OhXyrqZO_draw_17 6100ms linear 0ms infinite,OhXyrqZO_fade 6100ms linear 0ms infinite;}.OhXyrqZO_18{stroke-dasharray:2723 2725;stroke-dashoffset:2724;animation:OhXyrqZO_draw_18 6100ms linear 0ms infinite,OhXyrqZO_fade 6100ms linear 0ms infinite;}.OhXyrqZO_19{stroke-dasharray:2778 2780;stroke-dashoffset:2779;animation:OhXyrqZO_draw_19 6100ms linear 0ms infinite,OhXyrqZO_fade 6100ms linear 0ms infinite;}.OhXyrqZO_20{stroke-dasharray:2836 2838;stroke-dashoffset:2837;animation:OhXyrqZO_draw_20 6100ms linear 0ms infinite,OhXyrqZO_fade 6100ms linear 0ms infinite;}.OhXyrqZO_21{stroke-dasharray:2898 2900;stroke-dashoffset:2899;animation:OhXyrqZO_draw_21 6100ms linear 0ms infinite,OhXyrqZO_fade 6100ms linear 0ms infinite;}.OhXyrqZO_22{stroke-dasharray:2962 2964;stroke-dashoffset:2963;animation:OhXyrqZO_draw_22 6100ms linear 0ms infinite,OhXyrqZO_fade 6100ms linear 0ms infinite;}.OhXyrqZO_23{stroke-dasharray:3028 3030;stroke-dashoffset:3029;animation:OhXyrqZO_draw_23 6100ms linear 0ms infinite,OhXyrqZO_fade 6100ms linear 0ms infinite;}.OhXyrqZO_24{stroke-dasharray:3096 3098;stroke-dashoffset:3097;animation:OhXyrqZO_draw_24 6100ms linear 0ms infinite,OhXyrqZO_fade 6100ms linear 0ms infinite;}.OhXyrqZO_25{stroke-dasharray:3166 3168;stroke-dashoffset:3167;animation:OhXyrqZO_draw_25 6100ms linear 0ms infinite,OhXyrqZO_fade 6100ms linear 0ms infinite;}.OhXyrqZO_26{stroke-dasharray:3238 3240;stroke-dashoffset:3239;animation:OhXyrqZO_draw_26 6100ms linear 0ms infinite,OhXyrqZO_fade 6100ms linear 0ms infinite;}@keyframes OhXyrqZO_draw{100%{stroke-dashoffset:0;}}@keyframes OhXyrqZO_fade{0%{stroke-opacity:1;}93.44262295081967%{stroke-opacity:1;}100%{stroke-opacity:0;}}@keyframes OhXyrqZO_draw_0{13.114754098360656%{stroke-dashoffset: 2402}33.87978142076503%{ stroke-dashoffset: 0;}100%{ stroke-dashoffset: 0;}}@keyframes OhXyrqZO_draw_1{13.51408154686843%{stroke-dashoffset: 2386}34.2791088692728%{ stroke-dashoffset: 0;}100%{ stroke-dashoffset: 0;}}@keyframes OhXyrqZO_draw_2{13.913408995376209%{stroke-dashoffset: 2373}34.67843631778057%{ stroke-dashoffset: 0;}100%{ stroke-dashoffset: 0;}}@keyframes OhXyrqZO_draw_3{14.312736443883987%{stroke-dashoffset: 2364}35.077763766288356%{ stroke-dashoffset: 0;}100%{ stroke-dashoffset: 0;}}@keyframes OhXyrqZO_draw_4{14.712063892391761%{stroke-dashoffset: 2357}35.47709121479613%{ stroke-dashoffset: 0;}100%{ stroke-dashoffset: 0;}}@keyframes OhXyrqZO_draw_5{15.111391340899537%{stroke-dashoffset: 2355}35.8764186633039%{ stroke-dashoffset: 0;}100%{ stroke-dashoffset: 0;}}@keyframes OhXyrqZO_draw_6{15.510718789407315%{stroke-dashoffset: 2356}36.275746111811685%{ stroke-dashoffset: 0;}100%{ stroke-dashoffset: 0;}}@keyframes OhXyrqZO_draw_7{15.91004623791509%{stroke-dashoffset: 2362}36.67507356031947%{ stroke-dashoffset: 0;}100%{ stroke-dashoffset: 0;}}@keyframes OhXyrqZO_draw_8{16.309373686422866%{stroke-dashoffset: 2372}37.07440100882724%{ stroke-dashoffset: 0;}100%{ stroke-dashoffset: 0;}}@keyframes OhXyrqZO_draw_9{16.708701134930646%{stroke-dashoffset: 2387}37.47372845733501%{ stroke-dashoffset: 0;}100%{ stroke-dashoffset: 0;}}@keyframes OhXyrqZO_draw_10{17.10802858343842%{stroke-dashoffset: 2407}37.87305590584279%{ stroke-dashoffset: 0;}100%{ stroke-dashoffset: 0;}}@keyframes OhXyrqZO_draw_11{17.5073560319462%{stroke-dashoffset: 2432}38.272383354350566%{ stroke-dashoffset: 0;}100%{ stroke-dashoffset: 0;}}@keyframes OhXyrqZO_draw_12{17.90668348045397%{stroke-dashoffset: 2461}38.67171080285834%{ stroke-dashoffset: 0;}100%{ stroke-dashoffset: 0;}}@keyframes OhXyrqZO_draw_13{18.30601092896175%{stroke-dashoffset: 2495}39.07103825136611%{ stroke-dashoffset: 0;}100%{ stroke-dashoffset: 0;}}@keyframes OhXyrqZO_draw_14{18.705338377469527%{stroke-dashoffset: 2534}39.470365699873895%{ stroke-dashoffset: 0;}100%{ stroke-dashoffset: 0;}}@keyframes OhXyrqZO_draw_15{19.104665825977303%{stroke-dashoffset: 2576}39.86969314838167%{ stroke-dashoffset: 0;}100%{ stroke-dashoffset: 0;}}@keyframes OhXyrqZO_draw_16{19.50399327448508%{stroke-dashoffset: 2622}40.26902059688945%{ stroke-dashoffset: 0;}100%{ stroke-dashoffset: 0;}}@keyframes OhXyrqZO_draw_17{19.903320722992856%{stroke-dashoffset: 2671}40.668348045397224%{ stroke-dashoffset: 0;}100%{ stroke-dashoffset: 0;}}@keyframes OhXyrqZO_draw_18{20.302648171500632%{stroke-dashoffset: 2724}41.06767549390501%{ stroke-dashoffset: 0;}100%{ stroke-dashoffset: 0;}}@keyframes OhXyrqZO_draw_19{20.701975620008408%{stroke-dashoffset: 2779}41.46700294241278%{ stroke-dashoffset: 0;}100%{ stroke-dashoffset: 0;}}@keyframes OhXyrqZO_draw_20{21.101303068516188%{stroke-dashoffset: 2837}41.86633039092055%{ stroke-dashoffset: 0;}100%{ stroke-dashoffset: 0;}}@keyframes OhXyrqZO_draw_21{21.50063051702396%{stroke-dashoffset: 2899}42.26565783942833%{ stroke-dashoffset: 0;}100%{ stroke-dashoffset: 0;}}@keyframes OhXyrqZO_draw_22{21.899957965531737%{stroke-dashoffset: 2963}42.664985287936105%{ stroke-dashoffset: 0;}100%{ stroke-dashoffset: 0;}}@keyframes OhXyrqZO_draw_23{22.29928541403951%{stroke-dashoffset: 3029}43.06431273644388%{ stroke-dashoffset: 0;}100%{ stroke-dashoffset: 0;}}@keyframes OhXyrqZO_draw_24{22.69861286254729%{stroke-dashoffset: 3097}43.463640184951664%{ stroke-dashoffset: 0;}100%{ stroke-dashoffset: 0;}}@keyframes OhXyrqZO_draw_25{23.097940311055066%{stroke-dashoffset: 3167}43.862967633459434%{ stroke-dashoffset: 0;}100%{ stroke-dashoffset: 0;}}@keyframes OhXyrqZO_draw_26{23.497267759562842%{stroke-dashoffset: 3239}44.26229508196721%{ stroke-dashoffset: 0;}100%{ stroke-dashoffset: 0;}}</style></svg>
